<?xml version="1.0" encoding="utf-8" standalone="no"?>
<!DOCTYPE svg PUBLIC "-//W3C//DTD SVG 1.1//EN"
  "http://www.w3.org/Graphics/SVG/1.1/DTD/svg11.dtd">
<svg xmlns:xlink="http://www.w3.org/1999/xlink" width="602.555938pt" height="499.649687pt" viewBox="0 0 602.555938 499.649687" xmlns="http://www.w3.org/2000/svg" version="1.1">
 <metadata>
  <rdf:RDF xmlns:dc="http://purl.org/dc/elements/1.1/" xmlns:cc="http://creativecommons.org/ns#" xmlns:rdf="http://www.w3.org/1999/02/22-rdf-syntax-ns#">
   <cc:Work>
    <dc:type rdf:resource="http://purl.org/dc/dcmitype/StillImage"/>
    <dc:date>2025-10-23T19:03:37.973515</dc:date>
    <dc:format>image/svg+xml</dc:format>
    <dc:creator>
     <cc:Agent>
      <dc:title>Matplotlib v3.10.7, https://matplotlib.org/</dc:title>
     </cc:Agent>
    </dc:creator>
   </cc:Work>
  </rdf:RDF>
 </metadata>
 <defs>
  <style type="text/css">*{stroke-linejoin: round; stroke-linecap: butt}</style>
 </defs>
 <g id="figure_1">
  <g id="patch_1">
   <path d="M 0 499.649687 
L 602.555938 499.649687 
L 602.555938 0 
L 0 0 
L 0 499.649687 
z
" style="fill: none"/>
  </g>
  <g id="axes_1">
   <g id="patch_2">
    <path d="M 40.955938 463.757812 
L 598.955938 463.757812 
L 598.955938 20.237813 
L 40.955938 20.237813 
L 40.955938 463.757812 
z
" style="fill: none"/>
   </g>
   <g id="patch_3">
    <path d="M 66.319574 350.46177 
L 66.969091 350.46177 
L 66.969091 350.46177 
L 66.319574 350.46177 
z
" clip-path="url(#pd870df13cd)" style="fill: #4682b4; opacity: 0.5; stroke: #000000; stroke-width: 0.5; stroke-linejoin: miter"/>
   </g>
   <g id="patch_4">
    <path d="M 72.814743 341.118048 
L 73.46426 341.118048 
L 73.46426 341.118048 
L 72.814743 341.118048 
z
" clip-path="url(#pd870df13cd)" style="fill: #4682b4; opacity: 0.5; stroke: #000000; stroke-width: 0.5; stroke-linejoin: miter"/>
   </g>
   <g id="patch_5">
    <path d="M 79.309913 409.078666 
L 79.95943 409.078666 
L 79.95943 329.045792 
L 79.309913 329.045792 
z
" clip-path="url(#pd870df13cd)" style="fill: #ff0000; opacity: 0.5; stroke: #000000; stroke-width: 0.5; stroke-linejoin: miter"/>
   </g>
   <g id="patch_6">
    <path d="M 85.805082 314.637267 
L 86.454599 314.637267 
L 86.454599 314.637267 
L 85.805082 314.637267 
z
" clip-path="url(#pd870df13cd)" style="fill: #4682b4; opacity: 0.5; stroke: #000000; stroke-width: 0.5; stroke-linejoin: miter"/>
   </g>
   <g id="patch_7">
    <path d="M 92.300251 298.351305 
L 92.949768 298.351305 
L 92.949768 298.351305 
L 92.300251 298.351305 
z
" clip-path="url(#pd870df13cd)" style="fill: #4682b4; opacity: 0.5; stroke: #000000; stroke-width: 0.5; stroke-linejoin: miter"/>
   </g>
   <g id="patch_8">
    <path d="M 98.795421 360.687308 
L 99.444938 360.687308 
L 99.444938 280.654434 
L 98.795421 280.654434 
z
" clip-path="url(#pd870df13cd)" style="fill: #ff0000; opacity: 0.5; stroke: #000000; stroke-width: 0.5; stroke-linejoin: miter"/>
   </g>
   <g id="patch_9">
    <path d="M 105.29059 342.027773 
L 105.940107 342.027773 
L 105.940107 261.994899 
L 105.29059 261.994899 
z
" clip-path="url(#pd870df13cd)" style="fill: #4682b4; opacity: 0.5; stroke: #000000; stroke-width: 0.5; stroke-linejoin: miter"/>
   </g>
   <g id="patch_10">
    <path d="M 111.785759 322.821243 
L 112.435276 322.821243 
L 112.435276 242.788369 
L 111.785759 242.788369 
z
" clip-path="url(#pd870df13cd)" style="fill: #4682b4; opacity: 0.5; stroke: #000000; stroke-width: 0.5; stroke-linejoin: miter"/>
   </g>
   <g id="patch_11">
    <path d="M 118.280929 336.593696 
L 118.930446 336.593696 
L 118.930446 223.41012 
L 118.280929 223.41012 
z
" clip-path="url(#pd870df13cd)" style="fill: #4682b4; opacity: 0.5; stroke: #000000; stroke-width: 0.5; stroke-linejoin: miter"/>
   </g>
   <g id="patch_12">
    <path d="M 124.776098 400.231058 
L 125.425615 400.231058 
L 125.425615 204.191354 
L 124.776098 204.191354 
z
" clip-path="url(#pd870df13cd)" style="fill: #ff0000; opacity: 0.5; stroke: #000000; stroke-width: 0.5; stroke-linejoin: miter"/>
   </g>
   <g id="patch_13">
    <path d="M 131.271267 381.457948 
L 131.920784 381.457948 
L 131.920784 185.418244 
L 131.271267 185.418244 
z
" clip-path="url(#pd870df13cd)" style="fill: #ff0000; opacity: 0.5; stroke: #000000; stroke-width: 0.5; stroke-linejoin: miter"/>
   </g>
   <g id="patch_14">
    <path d="M 137.766437 393.699951 
L 138.415954 393.699951 
L 138.415954 167.332799 
L 137.766437 167.332799 
z
" clip-path="url(#pd870df13cd)" style="fill: #ff0000; opacity: 0.5; stroke: #000000; stroke-width: 0.5; stroke-linejoin: miter"/>
   </g>
   <g id="patch_15">
    <path d="M 144.261606 403.221098 
L 144.911123 403.221098 
L 144.911123 150.134929 
L 144.261606 150.134929 
z
" clip-path="url(#pd870df13cd)" style="fill: #ff0000; opacity: 0.5; stroke: #000000; stroke-width: 0.5; stroke-linejoin: miter"/>
   </g>
   <g id="patch_16">
    <path d="M 150.756776 374.083872 
L 151.406293 374.083872 
L 151.406293 133.98525 
L 150.756776 133.98525 
z
" clip-path="url(#pd870df13cd)" style="fill: #ff0000; opacity: 0.5; stroke: #000000; stroke-width: 0.5; stroke-linejoin: miter"/>
   </g>
   <g id="patch_17">
    <path d="M 157.251945 330.755422 
L 157.901462 330.755422 
L 157.901462 119.008341 
L 157.251945 119.008341 
z
" clip-path="url(#pd870df13cd)" style="fill: #4682b4; opacity: 0.5; stroke: #000000; stroke-width: 0.5; stroke-linejoin: miter"/>
   </g>
   <g id="patch_18">
    <path d="M 163.747114 393.858837 
L 164.396631 393.858837 
L 164.396631 105.296205 
L 163.747114 105.296205 
z
" clip-path="url(#pd870df13cd)" style="fill: #ff0000; opacity: 0.5; stroke: #000000; stroke-width: 0.5; stroke-linejoin: miter"/>
   </g>
   <g id="patch_19">
    <path d="M 170.242284 370.1538 
L 170.891801 370.1538 
L 170.891801 92.911792 
L 170.242284 92.911792 
z
" clip-path="url(#pd870df13cd)" style="fill: #ff0000; opacity: 0.5; stroke: #000000; stroke-width: 0.5; stroke-linejoin: miter"/>
   </g>
   <g id="patch_20">
    <path d="M 176.737453 347.331465 
L 177.38697 347.331465 
L 177.38697 81.892451 
L 176.737453 81.892451 
z
" clip-path="url(#pd870df13cd)" style="fill: #4682b4; opacity: 0.5; stroke: #000000; stroke-width: 0.5; stroke-linejoin: miter"/>
   </g>
   <g id="patch_21">
    <path d="M 183.232622 325.339432 
L 183.882139 325.339432 
L 183.882139 72.253263 
L 183.232622 72.253263 
z
" clip-path="url(#pd870df13cd)" style="fill: #4682b4; opacity: 0.5; stroke: #000000; stroke-width: 0.5; stroke-linejoin: miter"/>
   </g>
   <g id="patch_22">
    <path d="M 189.727792 352.552805 
L 190.377309 352.552805 
L 190.377309 63.990173 
L 189.727792 63.990173 
z
" clip-path="url(#pd870df13cd)" style="fill: #4682b4; opacity: 0.5; stroke: #000000; stroke-width: 0.5; stroke-linejoin: miter"/>
   </g>
   <g id="patch_23">
    <path d="M 196.222961 322.521931 
L 196.872478 322.521931 
L 196.872478 57.082917 
L 196.222961 57.082917 
z
" clip-path="url(#pd870df13cd)" style="fill: #4682b4; opacity: 0.5; stroke: #000000; stroke-width: 0.5; stroke-linejoin: miter"/>
   </g>
   <g id="patch_24">
    <path d="M 202.71813 409.415591 
L 203.367647 409.415591 
L 203.367647 51.497697 
L 202.71813 51.497697 
z
" clip-path="url(#pd870df13cd)" style="fill: #ff0000; opacity: 0.5; stroke: #000000; stroke-width: 0.5; stroke-linejoin: miter"/>
   </g>
   <g id="patch_25">
    <path d="M 209.2133 287.288254 
L 209.862817 287.288254 
L 209.862817 47.189632 
L 209.2133 47.189632 
z
" clip-path="url(#pd870df13cd)" style="fill: #4682b4; opacity: 0.5; stroke: #000000; stroke-width: 0.5; stroke-linejoin: miter"/>
   </g>
   <g id="patch_26">
    <path d="M 215.708469 255.852034 
L 216.357986 255.852034 
L 216.357986 44.104952 
L 215.708469 44.104952 
z
" clip-path="url(#pd870df13cd)" style="fill: #4682b4; opacity: 0.5; stroke: #000000; stroke-width: 0.5; stroke-linejoin: miter"/>
   </g>
   <g id="patch_27">
    <path d="M 222.203639 295.269139 
L 222.853156 295.269139 
L 222.853156 42.182969 
L 222.203639 42.182969 
z
" clip-path="url(#pd870df13cd)" style="fill: #4682b4; opacity: 0.5; stroke: #000000; stroke-width: 0.5; stroke-linejoin: miter"/>
   </g>
   <g id="patch_28">
    <path d="M 228.698808 329.920444 
L 229.348325 329.920444 
L 229.348325 41.357812 
L 228.698808 41.357812 
z
" clip-path="url(#pd870df13cd)" style="fill: #4682b4; opacity: 0.5; stroke: #000000; stroke-width: 0.5; stroke-linejoin: miter"/>
   </g>
   <g id="patch_29">
    <path d="M 235.193977 351.525949 
L 235.843494 351.525949 
L 235.843494 41.55996 
L 235.193977 41.55996 
z
" clip-path="url(#pd870df13cd)" style="fill: #4682b4; opacity: 0.5; stroke: #000000; stroke-width: 0.5; stroke-linejoin: miter"/>
   </g>
   <g id="patch_30">
    <path d="M 241.689147 352.683557 
L 242.338664 352.683557 
L 242.338664 42.717569 
L 241.689147 42.717569 
z
" clip-path="url(#pd870df13cd)" style="fill: #4682b4; opacity: 0.5; stroke: #000000; stroke-width: 0.5; stroke-linejoin: miter"/>
   </g>
   <g id="patch_31">
    <path d="M 248.184316 402.675513 
L 248.833833 402.675513 
L 248.833833 44.757619 
L 248.184316 44.757619 
z
" clip-path="url(#pd870df13cd)" style="fill: #ff0000; opacity: 0.5; stroke: #000000; stroke-width: 0.5; stroke-linejoin: miter"/>
   </g>
   <g id="patch_32">
    <path d="M 254.679485 405.524794 
L 255.329002 405.524794 
L 255.329002 47.606901 
L 254.679485 47.606901 
z
" clip-path="url(#pd870df13cd)" style="fill: #ff0000; opacity: 0.5; stroke: #000000; stroke-width: 0.5; stroke-linejoin: miter"/>
   </g>
   <g id="patch_33">
    <path d="M 261.174655 316.631847 
L 261.824172 316.631847 
L 261.824172 51.192833 
L 261.174655 51.192833 
z
" clip-path="url(#pd870df13cd)" style="fill: #4682b4; opacity: 0.5; stroke: #000000; stroke-width: 0.5; stroke-linejoin: miter"/>
   </g>
   <g id="patch_34">
    <path d="M 267.669824 320.883175 
L 268.319341 320.883175 
L 268.319341 55.444161 
L 267.669824 55.444161 
z
" clip-path="url(#pd870df13cd)" style="fill: #4682b4; opacity: 0.5; stroke: #000000; stroke-width: 0.5; stroke-linejoin: miter"/>
   </g>
   <g id="patch_35">
    <path d="M 274.164993 359.747114 
L 274.81451 359.747114 
L 274.81451 60.29152 
L 274.164993 60.29152 
z
" clip-path="url(#pd870df13cd)" style="fill: #ff0000; opacity: 0.5; stroke: #000000; stroke-width: 0.5; stroke-linejoin: miter"/>
   </g>
   <g id="patch_36">
    <path d="M 280.660163 277.414976 
L 281.30968 277.414976 
L 281.30968 65.667894 
L 280.660163 65.667894 
z
" clip-path="url(#pd870df13cd)" style="fill: #4682b4; opacity: 0.5; stroke: #000000; stroke-width: 0.5; stroke-linejoin: miter"/>
   </g>
   <g id="patch_37">
    <path d="M 287.155332 370.964572 
L 287.804849 370.964572 
L 287.804849 71.508978 
L 287.155332 71.508978 
z
" clip-path="url(#pd870df13cd)" style="fill: #ff0000; opacity: 0.5; stroke: #000000; stroke-width: 0.5; stroke-linejoin: miter"/>
   </g>
   <g id="patch_38">
    <path d="M 293.650502 397.884943 
L 294.300019 397.884943 
L 294.300019 77.753447 
L 293.650502 77.753447 
z
" clip-path="url(#pd870df13cd)" style="fill: #ff0000; opacity: 0.5; stroke: #000000; stroke-width: 0.5; stroke-linejoin: miter"/>
   </g>
   <g id="patch_39">
    <path d="M 300.145671 361.585171 
L 300.795188 361.585171 
L 300.795188 84.343163 
L 300.145671 84.343163 
z
" clip-path="url(#pd870df13cd)" style="fill: #ff0000; opacity: 0.5; stroke: #000000; stroke-width: 0.5; stroke-linejoin: miter"/>
   </g>
   <g id="patch_40">
    <path d="M 306.64084 421.207303 
L 307.290357 421.207303 
L 307.290357 91.223309 
L 306.64084 91.223309 
z
" clip-path="url(#pd870df13cd)" style="fill: #ff0000; opacity: 0.5; stroke: #000000; stroke-width: 0.5; stroke-linejoin: miter"/>
   </g>
   <g id="patch_41">
    <path d="M 313.13601 324.70962 
L 313.785527 324.70962 
L 313.785527 98.342468 
L 313.13601 98.342468 
z
" clip-path="url(#pd870df13cd)" style="fill: #4682b4; opacity: 0.5; stroke: #000000; stroke-width: 0.5; stroke-linejoin: miter"/>
   </g>
   <g id="patch_42">
    <path d="M 319.631179 394.215287 
L 320.280696 394.215287 
L 320.280696 105.652655 
L 319.631179 105.652655 
z
" clip-path="url(#pd870df13cd)" style="fill: #ff0000; opacity: 0.5; stroke: #000000; stroke-width: 0.5; stroke-linejoin: miter"/>
   </g>
   <g id="patch_43">
    <path d="M 326.126348 401.671944 
L 326.775865 401.671944 
L 326.775865 113.109313 
L 326.126348 113.109313 
z
" clip-path="url(#pd870df13cd)" style="fill: #ff0000; opacity: 0.5; stroke: #000000; stroke-width: 0.5; stroke-linejoin: miter"/>
   </g>
   <g id="patch_44">
    <path d="M 332.621518 347.038418 
L 333.271035 347.038418 
L 333.271035 120.671266 
L 332.621518 120.671266 
z
" clip-path="url(#pd870df13cd)" style="fill: #4682b4; opacity: 0.5; stroke: #000000; stroke-width: 0.5; stroke-linejoin: miter"/>
   </g>
   <g id="patch_45">
    <path d="M 339.116687 354.667808 
L 339.766204 354.667808 
L 339.766204 128.300656 
L 339.116687 128.300656 
z
" clip-path="url(#pd870df13cd)" style="fill: #4682b4; opacity: 0.5; stroke: #000000; stroke-width: 0.5; stroke-linejoin: miter"/>
   </g>
   <g id="patch_46">
    <path d="M 345.611856 389.049016 
L 346.261373 389.049016 
L 346.261373 135.962847 
L 345.611856 135.962847 
z
" clip-path="url(#pd870df13cd)" style="fill: #ff0000; opacity: 0.5; stroke: #000000; stroke-width: 0.5; stroke-linejoin: miter"/>
   </g>
   <g id="patch_47">
    <path d="M 352.107026 463.757812 
L 352.756543 463.757812 
L 352.756543 143.626316 
L 352.107026 143.626316 
z
" clip-path="url(#pd870df13cd)" style="fill: #ff0000; opacity: 0.5; stroke: #000000; stroke-width: 0.5; stroke-linejoin: miter"/>
   </g>
   <g id="patch_48">
    <path d="M 358.602195 377.629684 
L 359.251712 377.629684 
L 359.251712 151.262532 
L 358.602195 151.262532 
z
" clip-path="url(#pd870df13cd)" style="fill: #ff0000; opacity: 0.5; stroke: #000000; stroke-width: 0.5; stroke-linejoin: miter"/>
   </g>
   <g id="patch_49">
    <path d="M 365.097365 411.931987 
L 365.746882 411.931987 
L 365.746882 158.845817 
L 365.097365 158.845817 
z
" clip-path="url(#pd870df13cd)" style="fill: #ff0000; opacity: 0.5; stroke: #000000; stroke-width: 0.5; stroke-linejoin: miter"/>
   </g>
   <g id="patch_50">
    <path d="M 371.592534 304.974211 
L 372.242051 304.974211 
L 372.242051 166.353207 
L 371.592534 166.353207 
z
" clip-path="url(#pd870df13cd)" style="fill: #4682b4; opacity: 0.5; stroke: #000000; stroke-width: 0.5; stroke-linejoin: miter"/>
   </g>
   <g id="patch_51">
    <path d="M 378.087703 352.723252 
L 378.73722 352.723252 
L 378.73722 173.764305 
L 378.087703 173.764305 
z
" clip-path="url(#pd870df13cd)" style="fill: #4682b4; opacity: 0.5; stroke: #000000; stroke-width: 0.5; stroke-linejoin: miter"/>
   </g>
   <g id="patch_52">
    <path d="M 384.582873 294.244706 
L 385.23239 294.244706 
L 385.23239 181.06113 
L 384.582873 181.06113 
z
" clip-path="url(#pd870df13cd)" style="fill: #4682b4; opacity: 0.5; stroke: #000000; stroke-width: 0.5; stroke-linejoin: miter"/>
   </g>
   <g id="patch_53">
    <path d="M 391.078042 384.267671 
L 391.727559 384.267671 
L 391.727559 188.227967 
L 391.078042 188.227967 
z
" clip-path="url(#pd870df13cd)" style="fill: #ff0000; opacity: 0.5; stroke: #000000; stroke-width: 0.5; stroke-linejoin: miter"/>
   </g>
   <g id="patch_54">
    <path d="M 397.573211 333.872224 
L 398.222728 333.872224 
L 398.222728 195.25122 
L 397.573211 195.25122 
z
" clip-path="url(#pd870df13cd)" style="fill: #4682b4; opacity: 0.5; stroke: #000000; stroke-width: 0.5; stroke-linejoin: miter"/>
   </g>
   <g id="patch_55">
    <path d="M 404.068381 340.740265 
L 404.717898 340.740265 
L 404.717898 202.119261 
L 404.068381 202.119261 
z
" clip-path="url(#pd870df13cd)" style="fill: #4682b4; opacity: 0.5; stroke: #000000; stroke-width: 0.5; stroke-linejoin: miter"/>
   </g>
   <g id="patch_56">
    <path d="M 410.56355 347.443291 
L 411.213067 347.443291 
L 411.213067 208.822287 
L 410.56355 208.822287 
z
" clip-path="url(#pd870df13cd)" style="fill: #4682b4; opacity: 0.5; stroke: #000000; stroke-width: 0.5; stroke-linejoin: miter"/>
   </g>
   <g id="patch_57">
    <path d="M 417.058719 353.973185 
L 417.708236 353.973185 
L 417.708236 215.352181 
L 417.058719 215.352181 
z
" clip-path="url(#pd870df13cd)" style="fill: #4682b4; opacity: 0.5; stroke: #000000; stroke-width: 0.5; stroke-linejoin: miter"/>
   </g>
   <g id="patch_58">
    <path d="M 423.553889 360.32338 
L 424.203406 360.32338 
L 424.203406 221.702376 
L 423.553889 221.702376 
z
" clip-path="url(#pd870df13cd)" style="fill: #ff0000; opacity: 0.5; stroke: #000000; stroke-width: 0.5; stroke-linejoin: miter"/>
   </g>
   <g id="patch_59">
    <path d="M 430.049058 341.0513 
L 430.698575 341.0513 
L 430.698575 227.867724 
L 430.049058 227.867724 
z
" clip-path="url(#pd870df13cd)" style="fill: #4682b4; opacity: 0.5; stroke: #000000; stroke-width: 0.5; stroke-linejoin: miter"/>
   </g>
   <g id="patch_60">
    <path d="M 436.544228 393.910123 
L 437.193745 393.910123 
L 437.193745 233.844375 
L 436.544228 233.844375 
z
" clip-path="url(#pd870df13cd)" style="fill: #ff0000; opacity: 0.5; stroke: #000000; stroke-width: 0.5; stroke-linejoin: miter"/>
   </g>
   <g id="patch_61">
    <path d="M 443.039397 319.662527 
L 443.688914 319.662527 
L 443.688914 239.629653 
L 443.039397 239.629653 
z
" clip-path="url(#pd870df13cd)" style="fill: #4682b4; opacity: 0.5; stroke: #000000; stroke-width: 0.5; stroke-linejoin: miter"/>
   </g>
   <g id="patch_62">
    <path d="M 449.534566 358.405527 
L 450.184083 358.405527 
L 450.184083 245.221951 
L 449.534566 245.221951 
z
" clip-path="url(#pd870df13cd)" style="fill: #ff0000; opacity: 0.5; stroke: #000000; stroke-width: 0.5; stroke-linejoin: miter"/>
   </g>
   <g id="patch_63">
    <path d="M 456.029736 250.62062 
L 456.679253 250.62062 
L 456.679253 250.62062 
L 456.029736 250.62062 
z
" clip-path="url(#pd870df13cd)" style="fill: #4682b4; opacity: 0.5; stroke: #000000; stroke-width: 0.5; stroke-linejoin: miter"/>
   </g>
   <g id="patch_64">
    <path d="M 462.524905 335.858745 
L 463.174422 335.858745 
L 463.174422 255.825871 
L 462.524905 255.825871 
z
" clip-path="url(#pd870df13cd)" style="fill: #4682b4; opacity: 0.5; stroke: #000000; stroke-width: 0.5; stroke-linejoin: miter"/>
   </g>
   <g id="patch_65">
    <path d="M 469.020074 374.022259 
L 469.669591 374.022259 
L 469.669591 260.838683 
L 469.020074 260.838683 
z
" clip-path="url(#pd870df13cd)" style="fill: #ff0000; opacity: 0.5; stroke: #000000; stroke-width: 0.5; stroke-linejoin: miter"/>
   </g>
   <g id="patch_66">
    <path d="M 475.515244 265.660716 
L 476.164761 265.660716 
L 476.164761 265.660716 
L 475.515244 265.660716 
z
" clip-path="url(#pd870df13cd)" style="fill: #4682b4; opacity: 0.5; stroke: #000000; stroke-width: 0.5; stroke-linejoin: miter"/>
   </g>
   <g id="patch_67">
    <path d="M 482.010413 270.294227 
L 482.65993 270.294227 
L 482.65993 270.294227 
L 482.010413 270.294227 
z
" clip-path="url(#pd870df13cd)" style="fill: #4682b4; opacity: 0.5; stroke: #000000; stroke-width: 0.5; stroke-linejoin: miter"/>
   </g>
   <g id="patch_68">
    <path d="M 488.505582 354.774872 
L 489.155099 354.774872 
L 489.155099 274.741998 
L 488.505582 274.741998 
z
" clip-path="url(#pd870df13cd)" style="fill: #4682b4; opacity: 0.5; stroke: #000000; stroke-width: 0.5; stroke-linejoin: miter"/>
   </g>
   <g id="patch_69">
    <path d="M 495.000752 392.190841 
L 495.650269 392.190841 
L 495.650269 279.007265 
L 495.000752 279.007265 
z
" clip-path="url(#pd870df13cd)" style="fill: #ff0000; opacity: 0.5; stroke: #000000; stroke-width: 0.5; stroke-linejoin: miter"/>
   </g>
   <g id="patch_70">
    <path d="M 501.495921 283.093654 
L 502.145438 283.093654 
L 502.145438 283.093654 
L 501.495921 283.093654 
z
" clip-path="url(#pd870df13cd)" style="fill: #4682b4; opacity: 0.5; stroke: #000000; stroke-width: 0.5; stroke-linejoin: miter"/>
   </g>
   <g id="patch_71">
    <path d="M 507.991091 367.037998 
L 508.640608 367.037998 
L 508.640608 287.005124 
L 507.991091 287.005124 
z
" clip-path="url(#pd870df13cd)" style="fill: #ff0000; opacity: 0.5; stroke: #000000; stroke-width: 0.5; stroke-linejoin: miter"/>
   </g>
   <g id="patch_72">
    <path d="M 514.48626 290.745908 
L 515.135777 290.745908 
L 515.135777 290.745908 
L 514.48626 290.745908 
z
" clip-path="url(#pd870df13cd)" style="fill: #4682b4; opacity: 0.5; stroke: #000000; stroke-width: 0.5; stroke-linejoin: miter"/>
   </g>
   <g id="patch_73">
    <path d="M 520.981429 294.320469 
L 521.630946 294.320469 
L 521.630946 294.320469 
L 520.981429 294.320469 
z
" clip-path="url(#pd870df13cd)" style="fill: #4682b4; opacity: 0.5; stroke: #000000; stroke-width: 0.5; stroke-linejoin: miter"/>
   </g>
   <g id="patch_74">
    <path d="M 527.476599 377.766327 
L 528.126116 377.766327 
L 528.126116 297.733452 
L 527.476599 297.733452 
z
" clip-path="url(#pd870df13cd)" style="fill: #ff0000; opacity: 0.5; stroke: #000000; stroke-width: 0.5; stroke-linejoin: miter"/>
   </g>
   <g id="patch_75">
    <path d="M 533.971768 414.173221 
L 534.621285 414.173221 
L 534.621285 300.989645 
L 533.971768 300.989645 
z
" clip-path="url(#pd870df13cd)" style="fill: #ff0000; opacity: 0.5; stroke: #000000; stroke-width: 0.5; stroke-linejoin: miter"/>
   </g>
   <g id="patch_76">
    <path d="M 540.466937 384.126813 
L 541.116454 384.126813 
L 541.116454 304.093938 
L 540.466937 304.093938 
z
" clip-path="url(#pd870df13cd)" style="fill: #ff0000; opacity: 0.5; stroke: #000000; stroke-width: 0.5; stroke-linejoin: miter"/>
   </g>
   <g id="patch_77">
    <path d="M 546.962107 387.084172 
L 547.611624 387.084172 
L 547.611624 307.051298 
L 546.962107 307.051298 
z
" clip-path="url(#pd870df13cd)" style="fill: #ff0000; opacity: 0.5; stroke: #000000; stroke-width: 0.5; stroke-linejoin: miter"/>
   </g>
   <g id="patch_78">
    <path d="M 553.457276 309.86673 
L 554.106793 309.86673 
L 554.106793 309.86673 
L 553.457276 309.86673 
z
" clip-path="url(#pd870df13cd)" style="fill: #4682b4; opacity: 0.5; stroke: #000000; stroke-width: 0.5; stroke-linejoin: miter"/>
   </g>
   <g id="patch_79">
    <path d="M 559.952445 392.578131 
L 560.601962 392.578131 
L 560.601962 312.545257 
L 559.952445 312.545257 
z
" clip-path="url(#pd870df13cd)" style="fill: #ff0000; opacity: 0.5; stroke: #000000; stroke-width: 0.5; stroke-linejoin: miter"/>
   </g>
   <g id="patch_80">
    <path d="M 566.447615 315.091892 
L 567.097132 315.091892 
L 567.097132 315.091892 
L 566.447615 315.091892 
z
" clip-path="url(#pd870df13cd)" style="fill: #4682b4; opacity: 0.5; stroke: #000000; stroke-width: 0.5; stroke-linejoin: miter"/>
   </g>
   <g id="patch_81">
    <path d="M 572.942784 317.511622 
L 573.592301 317.511622 
L 573.592301 317.511622 
L 572.942784 317.511622 
z
" clip-path="url(#pd870df13cd)" style="fill: #4682b4; opacity: 0.5; stroke: #000000; stroke-width: 0.5; stroke-linejoin: miter"/>
   </g>
   <g id="matplotlib.axis_1">
    <g id="xtick_1">
     <g id="line2d_1">
      <defs>
       <path id="m94327cf089" d="M 0 0 
L 0 3.5 
" style="stroke: #000000; stroke-width: 0.8"/>
      </defs>
      <g>
       <use xlink:href="#m94327cf089" x="66.644332" y="463.757812" style="stroke: #000000; stroke-width: 0.8"/>
      </g>
     </g>
     <g id="text_1">
      <!-- 0 -->
      <g transform="translate(63.463082 478.35625) scale(0.1 -0.1)">
       <defs>
        <path id="DejaVuSans-30" d="M 2034 4250 
Q 1547 4250 1301 3770 
Q 1056 3291 1056 2328 
Q 1056 1369 1301 889 
Q 1547 409 2034 409 
Q 2525 409 2770 889 
Q 3016 1369 3016 2328 
Q 3016 3291 2770 3770 
Q 2525 4250 2034 4250 
z
M 2034 4750 
Q 2819 4750 3233 4129 
Q 3647 3509 3647 2328 
Q 3647 1150 3233 529 
Q 2819 -91 2034 -91 
Q 1250 -91 836 529 
Q 422 1150 422 2328 
Q 422 3509 836 4129 
Q 1250 4750 2034 4750 
z
" transform="scale(0.015625)"/>
       </defs>
       <use xlink:href="#DejaVuSans-30"/>
      </g>
     </g>
    </g>
    <g id="xtick_2">
     <g id="line2d_2">
      <g>
       <use xlink:href="#m94327cf089" x="112.110518" y="463.757812" style="stroke: #000000; stroke-width: 0.8"/>
      </g>
     </g>
     <g id="text_2">
      <!-- 7 -->
      <g transform="translate(108.929268 478.35625) scale(0.1 -0.1)">
       <defs>
        <path id="DejaVuSans-37" d="M 525 4666 
L 3525 4666 
L 3525 4397 
L 1831 0 
L 1172 0 
L 2766 4134 
L 525 4134 
L 525 4666 
z
" transform="scale(0.015625)"/>
       </defs>
       <use xlink:href="#DejaVuSans-37"/>
      </g>
     </g>
    </g>
    <g id="xtick_3">
     <g id="line2d_3">
      <g>
       <use xlink:href="#m94327cf089" x="157.576703" y="463.757812" style="stroke: #000000; stroke-width: 0.8"/>
      </g>
     </g>
     <g id="text_3">
      <!-- 14 -->
      <g transform="translate(151.214203 478.35625) scale(0.1 -0.1)">
       <defs>
        <path id="DejaVuSans-31" d="M 794 531 
L 1825 531 
L 1825 4091 
L 703 3866 
L 703 4441 
L 1819 4666 
L 2450 4666 
L 2450 531 
L 3481 531 
L 3481 0 
L 794 0 
L 794 531 
z
" transform="scale(0.015625)"/>
        <path id="DejaVuSans-34" d="M 2419 4116 
L 825 1625 
L 2419 1625 
L 2419 4116 
z
M 2253 4666 
L 3047 4666 
L 3047 1625 
L 3713 1625 
L 3713 1100 
L 3047 1100 
L 3047 0 
L 2419 0 
L 2419 1100 
L 313 1100 
L 313 1709 
L 2253 4666 
z
" transform="scale(0.015625)"/>
       </defs>
       <use xlink:href="#DejaVuSans-31"/>
       <use xlink:href="#DejaVuSans-34" transform="translate(63.623047 0)"/>
      </g>
     </g>
    </g>
    <g id="xtick_4">
     <g id="line2d_4">
      <g>
       <use xlink:href="#m94327cf089" x="203.042889" y="463.757812" style="stroke: #000000; stroke-width: 0.8"/>
      </g>
     </g>
     <g id="text_4">
      <!-- 21 -->
      <g transform="translate(196.680389 478.35625) scale(0.1 -0.1)">
       <defs>
        <path id="DejaVuSans-32" d="M 1228 531 
L 3431 531 
L 3431 0 
L 469 0 
L 469 531 
Q 828 903 1448 1529 
Q 2069 2156 2228 2338 
Q 2531 2678 2651 2914 
Q 2772 3150 2772 3378 
Q 2772 3750 2511 3984 
Q 2250 4219 1831 4219 
Q 1534 4219 1204 4116 
Q 875 4013 500 3803 
L 500 4441 
Q 881 4594 1212 4672 
Q 1544 4750 1819 4750 
Q 2544 4750 2975 4387 
Q 3406 4025 3406 3419 
Q 3406 3131 3298 2873 
Q 3191 2616 2906 2266 
Q 2828 2175 2409 1742 
Q 1991 1309 1228 531 
z
" transform="scale(0.015625)"/>
       </defs>
       <use xlink:href="#DejaVuSans-32"/>
       <use xlink:href="#DejaVuSans-31" transform="translate(63.623047 0)"/>
      </g>
     </g>
    </g>
    <g id="xtick_5">
     <g id="line2d_5">
      <g>
       <use xlink:href="#m94327cf089" x="248.509075" y="463.757812" style="stroke: #000000; stroke-width: 0.8"/>
      </g>
     </g>
     <g id="text_5">
      <!-- 28 -->
      <g transform="translate(242.146575 478.35625) scale(0.1 -0.1)">
       <defs>
        <path id="DejaVuSans-38" d="M 2034 2216 
Q 1584 2216 1326 1975 
Q 1069 1734 1069 1313 
Q 1069 891 1326 650 
Q 1584 409 2034 409 
Q 2484 409 2743 651 
Q 3003 894 3003 1313 
Q 3003 1734 2745 1975 
Q 2488 2216 2034 2216 
z
M 1403 2484 
Q 997 2584 770 2862 
Q 544 3141 544 3541 
Q 544 4100 942 4425 
Q 1341 4750 2034 4750 
Q 2731 4750 3128 4425 
Q 3525 4100 3525 3541 
Q 3525 3141 3298 2862 
Q 3072 2584 2669 2484 
Q 3125 2378 3379 2068 
Q 3634 1759 3634 1313 
Q 3634 634 3220 271 
Q 2806 -91 2034 -91 
Q 1263 -91 848 271 
Q 434 634 434 1313 
Q 434 1759 690 2068 
Q 947 2378 1403 2484 
z
M 1172 3481 
Q 1172 3119 1398 2916 
Q 1625 2713 2034 2713 
Q 2441 2713 2670 2916 
Q 2900 3119 2900 3481 
Q 2900 3844 2670 4047 
Q 2441 4250 2034 4250 
Q 1625 4250 1398 4047 
Q 1172 3844 1172 3481 
z
" transform="scale(0.015625)"/>
       </defs>
       <use xlink:href="#DejaVuSans-32"/>
       <use xlink:href="#DejaVuSans-38" transform="translate(63.623047 0)"/>
      </g>
     </g>
    </g>
    <g id="xtick_6">
     <g id="line2d_6">
      <g>
       <use xlink:href="#m94327cf089" x="293.97526" y="463.757812" style="stroke: #000000; stroke-width: 0.8"/>
      </g>
     </g>
     <g id="text_6">
      <!-- 35 -->
      <g transform="translate(287.61276 478.35625) scale(0.1 -0.1)">
       <defs>
        <path id="DejaVuSans-33" d="M 2597 2516 
Q 3050 2419 3304 2112 
Q 3559 1806 3559 1356 
Q 3559 666 3084 287 
Q 2609 -91 1734 -91 
Q 1441 -91 1130 -33 
Q 819 25 488 141 
L 488 750 
Q 750 597 1062 519 
Q 1375 441 1716 441 
Q 2309 441 2620 675 
Q 2931 909 2931 1356 
Q 2931 1769 2642 2001 
Q 2353 2234 1838 2234 
L 1294 2234 
L 1294 2753 
L 1863 2753 
Q 2328 2753 2575 2939 
Q 2822 3125 2822 3475 
Q 2822 3834 2567 4026 
Q 2313 4219 1838 4219 
Q 1578 4219 1281 4162 
Q 984 4106 628 3988 
L 628 4550 
Q 988 4650 1302 4700 
Q 1616 4750 1894 4750 
Q 2613 4750 3031 4423 
Q 3450 4097 3450 3541 
Q 3450 3153 3228 2886 
Q 3006 2619 2597 2516 
z
" transform="scale(0.015625)"/>
        <path id="DejaVuSans-35" d="M 691 4666 
L 3169 4666 
L 3169 4134 
L 1269 4134 
L 1269 2991 
Q 1406 3038 1543 3061 
Q 1681 3084 1819 3084 
Q 2600 3084 3056 2656 
Q 3513 2228 3513 1497 
Q 3513 744 3044 326 
Q 2575 -91 1722 -91 
Q 1428 -91 1123 -41 
Q 819 9 494 109 
L 494 744 
Q 775 591 1075 516 
Q 1375 441 1709 441 
Q 2250 441 2565 725 
Q 2881 1009 2881 1497 
Q 2881 1984 2565 2268 
Q 2250 2553 1709 2553 
Q 1456 2553 1204 2497 
Q 953 2441 691 2322 
L 691 4666 
z
" transform="scale(0.015625)"/>
       </defs>
       <use xlink:href="#DejaVuSans-33"/>
       <use xlink:href="#DejaVuSans-35" transform="translate(63.623047 0)"/>
      </g>
     </g>
    </g>
    <g id="xtick_7">
     <g id="line2d_7">
      <g>
       <use xlink:href="#m94327cf089" x="339.441446" y="463.757812" style="stroke: #000000; stroke-width: 0.8"/>
      </g>
     </g>
     <g id="text_7">
      <!-- 42 -->
      <g transform="translate(333.078946 478.35625) scale(0.1 -0.1)">
       <use xlink:href="#DejaVuSans-34"/>
       <use xlink:href="#DejaVuSans-32" transform="translate(63.623047 0)"/>
      </g>
     </g>
    </g>
    <g id="xtick_8">
     <g id="line2d_8">
      <g>
       <use xlink:href="#m94327cf089" x="384.907631" y="463.757812" style="stroke: #000000; stroke-width: 0.8"/>
      </g>
     </g>
     <g id="text_8">
      <!-- 49 -->
      <g transform="translate(378.545131 478.35625) scale(0.1 -0.1)">
       <defs>
        <path id="DejaVuSans-39" d="M 703 97 
L 703 672 
Q 941 559 1184 500 
Q 1428 441 1663 441 
Q 2288 441 2617 861 
Q 2947 1281 2994 2138 
Q 2813 1869 2534 1725 
Q 2256 1581 1919 1581 
Q 1219 1581 811 2004 
Q 403 2428 403 3163 
Q 403 3881 828 4315 
Q 1253 4750 1959 4750 
Q 2769 4750 3195 4129 
Q 3622 3509 3622 2328 
Q 3622 1225 3098 567 
Q 2575 -91 1691 -91 
Q 1453 -91 1209 -44 
Q 966 3 703 97 
z
M 1959 2075 
Q 2384 2075 2632 2365 
Q 2881 2656 2881 3163 
Q 2881 3666 2632 3958 
Q 2384 4250 1959 4250 
Q 1534 4250 1286 3958 
Q 1038 3666 1038 3163 
Q 1038 2656 1286 2365 
Q 1534 2075 1959 2075 
z
" transform="scale(0.015625)"/>
       </defs>
       <use xlink:href="#DejaVuSans-34"/>
       <use xlink:href="#DejaVuSans-39" transform="translate(63.623047 0)"/>
      </g>
     </g>
    </g>
    <g id="xtick_9">
     <g id="line2d_9">
      <g>
       <use xlink:href="#m94327cf089" x="430.373817" y="463.757812" style="stroke: #000000; stroke-width: 0.8"/>
      </g>
     </g>
     <g id="text_9">
      <!-- 56 -->
      <g transform="translate(424.011317 478.35625) scale(0.1 -0.1)">
       <defs>
        <path id="DejaVuSans-36" d="M 2113 2584 
Q 1688 2584 1439 2293 
Q 1191 2003 1191 1497 
Q 1191 994 1439 701 
Q 1688 409 2113 409 
Q 2538 409 2786 701 
Q 3034 994 3034 1497 
Q 3034 2003 2786 2293 
Q 2538 2584 2113 2584 
z
M 3366 4563 
L 3366 3988 
Q 3128 4100 2886 4159 
Q 2644 4219 2406 4219 
Q 1781 4219 1451 3797 
Q 1122 3375 1075 2522 
Q 1259 2794 1537 2939 
Q 1816 3084 2150 3084 
Q 2853 3084 3261 2657 
Q 3669 2231 3669 1497 
Q 3669 778 3244 343 
Q 2819 -91 2113 -91 
Q 1303 -91 875 529 
Q 447 1150 447 2328 
Q 447 3434 972 4092 
Q 1497 4750 2381 4750 
Q 2619 4750 2861 4703 
Q 3103 4656 3366 4563 
z
" transform="scale(0.015625)"/>
       </defs>
       <use xlink:href="#DejaVuSans-35"/>
       <use xlink:href="#DejaVuSans-36" transform="translate(63.623047 0)"/>
      </g>
     </g>
    </g>
    <g id="xtick_10">
     <g id="line2d_10">
      <g>
       <use xlink:href="#m94327cf089" x="475.840002" y="463.757812" style="stroke: #000000; stroke-width: 0.8"/>
      </g>
     </g>
     <g id="text_10">
      <!-- 63 -->
      <g transform="translate(469.477502 478.35625) scale(0.1 -0.1)">
       <use xlink:href="#DejaVuSans-36"/>
       <use xlink:href="#DejaVuSans-33" transform="translate(63.623047 0)"/>
      </g>
     </g>
    </g>
    <g id="xtick_11">
     <g id="line2d_11">
      <g>
       <use xlink:href="#m94327cf089" x="521.306188" y="463.757812" style="stroke: #000000; stroke-width: 0.8"/>
      </g>
     </g>
     <g id="text_11">
      <!-- 70 -->
      <g transform="translate(514.943688 478.35625) scale(0.1 -0.1)">
       <use xlink:href="#DejaVuSans-37"/>
       <use xlink:href="#DejaVuSans-30" transform="translate(63.623047 0)"/>
      </g>
     </g>
    </g>
    <g id="xtick_12">
     <g id="line2d_12">
      <g>
       <use xlink:href="#m94327cf089" x="566.772373" y="463.757812" style="stroke: #000000; stroke-width: 0.8"/>
      </g>
     </g>
     <g id="text_12">
      <!-- 77 -->
      <g transform="translate(560.409873 478.35625) scale(0.1 -0.1)">
       <use xlink:href="#DejaVuSans-37"/>
       <use xlink:href="#DejaVuSans-37" transform="translate(63.623047 0)"/>
      </g>
     </g>
    </g>
    <g id="text_13">
     <!-- Count Values -->
     <g transform="translate(280.627813 493.554062) scale(0.12 -0.12)">
      <defs>
       <path id="DejaVuSans-43" d="M 4122 4306 
L 4122 3641 
Q 3803 3938 3442 4084 
Q 3081 4231 2675 4231 
Q 1875 4231 1450 3742 
Q 1025 3253 1025 2328 
Q 1025 1406 1450 917 
Q 1875 428 2675 428 
Q 3081 428 3442 575 
Q 3803 722 4122 1019 
L 4122 359 
Q 3791 134 3420 21 
Q 3050 -91 2638 -91 
Q 1578 -91 968 557 
Q 359 1206 359 2328 
Q 359 3453 968 4101 
Q 1578 4750 2638 4750 
Q 3056 4750 3426 4639 
Q 3797 4528 4122 4306 
z
" transform="scale(0.015625)"/>
       <path id="DejaVuSans-6f" d="M 1959 3097 
Q 1497 3097 1228 2736 
Q 959 2375 959 1747 
Q 959 1119 1226 758 
Q 1494 397 1959 397 
Q 2419 397 2687 759 
Q 2956 1122 2956 1747 
Q 2956 2369 2687 2733 
Q 2419 3097 1959 3097 
z
M 1959 3584 
Q 2709 3584 3137 3096 
Q 3566 2609 3566 1747 
Q 3566 888 3137 398 
Q 2709 -91 1959 -91 
Q 1206 -91 779 398 
Q 353 888 353 1747 
Q 353 2609 779 3096 
Q 1206 3584 1959 3584 
z
" transform="scale(0.015625)"/>
       <path id="DejaVuSans-75" d="M 544 1381 
L 544 3500 
L 1119 3500 
L 1119 1403 
Q 1119 906 1312 657 
Q 1506 409 1894 409 
Q 2359 409 2629 706 
Q 2900 1003 2900 1516 
L 2900 3500 
L 3475 3500 
L 3475 0 
L 2900 0 
L 2900 538 
Q 2691 219 2414 64 
Q 2138 -91 1772 -91 
Q 1169 -91 856 284 
Q 544 659 544 1381 
z
M 1991 3584 
L 1991 3584 
z
" transform="scale(0.015625)"/>
       <path id="DejaVuSans-6e" d="M 3513 2113 
L 3513 0 
L 2938 0 
L 2938 2094 
Q 2938 2591 2744 2837 
Q 2550 3084 2163 3084 
Q 1697 3084 1428 2787 
Q 1159 2491 1159 1978 
L 1159 0 
L 581 0 
L 581 3500 
L 1159 3500 
L 1159 2956 
Q 1366 3272 1645 3428 
Q 1925 3584 2291 3584 
Q 2894 3584 3203 3211 
Q 3513 2838 3513 2113 
z
" transform="scale(0.015625)"/>
       <path id="DejaVuSans-74" d="M 1172 4494 
L 1172 3500 
L 2356 3500 
L 2356 3053 
L 1172 3053 
L 1172 1153 
Q 1172 725 1289 603 
Q 1406 481 1766 481 
L 2356 481 
L 2356 0 
L 1766 0 
Q 1100 0 847 248 
Q 594 497 594 1153 
L 594 3053 
L 172 3053 
L 172 3500 
L 594 3500 
L 594 4494 
L 1172 4494 
z
" transform="scale(0.015625)"/>
       <path id="DejaVuSans-20" transform="scale(0.015625)"/>
       <path id="DejaVuSans-56" d="M 1831 0 
L 50 4666 
L 709 4666 
L 2188 738 
L 3669 4666 
L 4325 4666 
L 2547 0 
L 1831 0 
z
" transform="scale(0.015625)"/>
       <path id="DejaVuSans-61" d="M 2194 1759 
Q 1497 1759 1228 1600 
Q 959 1441 959 1056 
Q 959 750 1161 570 
Q 1363 391 1709 391 
Q 2188 391 2477 730 
Q 2766 1069 2766 1631 
L 2766 1759 
L 2194 1759 
z
M 3341 1997 
L 3341 0 
L 2766 0 
L 2766 531 
Q 2569 213 2275 61 
Q 1981 -91 1556 -91 
Q 1019 -91 701 211 
Q 384 513 384 1019 
Q 384 1609 779 1909 
Q 1175 2209 1959 2209 
L 2766 2209 
L 2766 2266 
Q 2766 2663 2505 2880 
Q 2244 3097 1772 3097 
Q 1472 3097 1187 3025 
Q 903 2953 641 2809 
L 641 3341 
Q 956 3463 1253 3523 
Q 1550 3584 1831 3584 
Q 2591 3584 2966 3190 
Q 3341 2797 3341 1997 
z
" transform="scale(0.015625)"/>
       <path id="DejaVuSans-6c" d="M 603 4863 
L 1178 4863 
L 1178 0 
L 603 0 
L 603 4863 
z
" transform="scale(0.015625)"/>
       <path id="DejaVuSans-65" d="M 3597 1894 
L 3597 1613 
L 953 1613 
Q 991 1019 1311 708 
Q 1631 397 2203 397 
Q 2534 397 2845 478 
Q 3156 559 3463 722 
L 3463 178 
Q 3153 47 2828 -22 
Q 2503 -91 2169 -91 
Q 1331 -91 842 396 
Q 353 884 353 1716 
Q 353 2575 817 3079 
Q 1281 3584 2069 3584 
Q 2775 3584 3186 3129 
Q 3597 2675 3597 1894 
z
M 3022 2063 
Q 3016 2534 2758 2815 
Q 2500 3097 2075 3097 
Q 1594 3097 1305 2825 
Q 1016 2553 972 2059 
L 3022 2063 
z
" transform="scale(0.015625)"/>
       <path id="DejaVuSans-73" d="M 2834 3397 
L 2834 2853 
Q 2591 2978 2328 3040 
Q 2066 3103 1784 3103 
Q 1356 3103 1142 2972 
Q 928 2841 928 2578 
Q 928 2378 1081 2264 
Q 1234 2150 1697 2047 
L 1894 2003 
Q 2506 1872 2764 1633 
Q 3022 1394 3022 966 
Q 3022 478 2636 193 
Q 2250 -91 1575 -91 
Q 1294 -91 989 -36 
Q 684 19 347 128 
L 347 722 
Q 666 556 975 473 
Q 1284 391 1588 391 
Q 1994 391 2212 530 
Q 2431 669 2431 922 
Q 2431 1156 2273 1281 
Q 2116 1406 1581 1522 
L 1381 1569 
Q 847 1681 609 1914 
Q 372 2147 372 2553 
Q 372 3047 722 3315 
Q 1072 3584 1716 3584 
Q 2034 3584 2315 3537 
Q 2597 3491 2834 3397 
z
" transform="scale(0.015625)"/>
      </defs>
      <use xlink:href="#DejaVuSans-43"/>
      <use xlink:href="#DejaVuSans-6f" transform="translate(69.824219 0)"/>
      <use xlink:href="#DejaVuSans-75" transform="translate(131.005859 0)"/>
      <use xlink:href="#DejaVuSans-6e" transform="translate(194.384766 0)"/>
      <use xlink:href="#DejaVuSans-74" transform="translate(257.763672 0)"/>
      <use xlink:href="#DejaVuSans-20" transform="translate(296.972656 0)"/>
      <use xlink:href="#DejaVuSans-56" transform="translate(328.759766 0)"/>
      <use xlink:href="#DejaVuSans-61" transform="translate(389.417969 0)"/>
      <use xlink:href="#DejaVuSans-6c" transform="translate(450.697266 0)"/>
      <use xlink:href="#DejaVuSans-75" transform="translate(478.480469 0)"/>
      <use xlink:href="#DejaVuSans-65" transform="translate(541.859375 0)"/>
      <use xlink:href="#DejaVuSans-73" transform="translate(603.382812 0)"/>
     </g>
    </g>
   </g>
   <g id="matplotlib.axis_2">
    <g id="ytick_1">
     <g id="line2d_13">
      <path d="M 40.955938 437.962838 
L 598.955938 437.962838 
" clip-path="url(#pd870df13cd)" style="fill: none; stroke: #b0b0b0; stroke-opacity: 0; stroke-width: 0.8; stroke-linecap: square"/>
     </g>
     <g id="line2d_14">
      <defs>
       <path id="m57589e5847" d="M 0 0 
L -3.5 0 
" style="stroke: #000000; stroke-width: 0.8"/>
      </defs>
      <g>
       <use xlink:href="#m57589e5847" x="40.955938" y="437.962838" style="stroke: #000000; stroke-width: 0.8"/>
      </g>
     </g>
     <g id="text_14">
      <!-- −1 -->
      <g transform="translate(19.21375 441.762056) scale(0.1 -0.1)">
       <defs>
        <path id="DejaVuSans-2212" d="M 678 2272 
L 4684 2272 
L 4684 1741 
L 678 1741 
L 678 2272 
z
" transform="scale(0.015625)"/>
       </defs>
       <use xlink:href="#DejaVuSans-2212"/>
       <use xlink:href="#DejaVuSans-31" transform="translate(83.789062 0)"/>
      </g>
     </g>
    </g>
    <g id="ytick_2">
     <g id="line2d_15">
      <path d="M 40.955938 357.929964 
L 598.955938 357.929964 
" clip-path="url(#pd870df13cd)" style="fill: none; stroke: #b0b0b0; stroke-opacity: 0; stroke-width: 0.8; stroke-linecap: square"/>
     </g>
     <g id="line2d_16">
      <g>
       <use xlink:href="#m57589e5847" x="40.955938" y="357.929964" style="stroke: #000000; stroke-width: 0.8"/>
      </g>
     </g>
     <g id="text_15">
      <!-- 0 -->
      <g transform="translate(27.593438 361.729182) scale(0.1 -0.1)">
       <use xlink:href="#DejaVuSans-30"/>
      </g>
     </g>
    </g>
    <g id="ytick_3">
     <g id="line2d_17">
      <path d="M 40.955938 277.897089 
L 598.955938 277.897089 
" clip-path="url(#pd870df13cd)" style="fill: none; stroke: #b0b0b0; stroke-opacity: 0; stroke-width: 0.8; stroke-linecap: square"/>
     </g>
     <g id="line2d_18">
      <g>
       <use xlink:href="#m57589e5847" x="40.955938" y="277.897089" style="stroke: #000000; stroke-width: 0.8"/>
      </g>
     </g>
     <g id="text_16">
      <!-- 1 -->
      <g transform="translate(27.593438 281.696308) scale(0.1 -0.1)">
       <use xlink:href="#DejaVuSans-31"/>
      </g>
     </g>
    </g>
    <g id="ytick_4">
     <g id="line2d_19">
      <path d="M 40.955938 197.864215 
L 598.955938 197.864215 
" clip-path="url(#pd870df13cd)" style="fill: none; stroke: #b0b0b0; stroke-opacity: 0; stroke-width: 0.8; stroke-linecap: square"/>
     </g>
     <g id="line2d_20">
      <g>
       <use xlink:href="#m57589e5847" x="40.955938" y="197.864215" style="stroke: #000000; stroke-width: 0.8"/>
      </g>
     </g>
     <g id="text_17">
      <!-- 2 -->
      <g transform="translate(27.593438 201.663434) scale(0.1 -0.1)">
       <use xlink:href="#DejaVuSans-32"/>
      </g>
     </g>
    </g>
    <g id="ytick_5">
     <g id="line2d_21">
      <path d="M 40.955938 117.831341 
L 598.955938 117.831341 
" clip-path="url(#pd870df13cd)" style="fill: none; stroke: #b0b0b0; stroke-opacity: 0; stroke-width: 0.8; stroke-linecap: square"/>
     </g>
     <g id="line2d_22">
      <g>
       <use xlink:href="#m57589e5847" x="40.955938" y="117.831341" style="stroke: #000000; stroke-width: 0.8"/>
      </g>
     </g>
     <g id="text_18">
      <!-- 3 -->
      <g transform="translate(27.593438 121.63056) scale(0.1 -0.1)">
       <use xlink:href="#DejaVuSans-33"/>
      </g>
     </g>
    </g>
    <g id="ytick_6">
     <g id="line2d_23">
      <path d="M 40.955938 37.798467 
L 598.955938 37.798467 
" clip-path="url(#pd870df13cd)" style="fill: none; stroke: #b0b0b0; stroke-opacity: 0; stroke-width: 0.8; stroke-linecap: square"/>
     </g>
     <g id="line2d_24">
      <g>
       <use xlink:href="#m57589e5847" x="40.955938" y="37.798467" style="stroke: #000000; stroke-width: 0.8"/>
      </g>
     </g>
     <g id="text_19">
      <!-- 4 -->
      <g transform="translate(27.593438 41.597686) scale(0.1 -0.1)">
       <use xlink:href="#DejaVuSans-34"/>
      </g>
     </g>
    </g>
    <g id="text_20">
     <!-- Square Root of Frequency -->
     <g transform="translate(12.718125 319.212187) rotate(-90) scale(0.12 -0.12)">
      <defs>
       <path id="DejaVuSans-53" d="M 3425 4513 
L 3425 3897 
Q 3066 4069 2747 4153 
Q 2428 4238 2131 4238 
Q 1616 4238 1336 4038 
Q 1056 3838 1056 3469 
Q 1056 3159 1242 3001 
Q 1428 2844 1947 2747 
L 2328 2669 
Q 3034 2534 3370 2195 
Q 3706 1856 3706 1288 
Q 3706 609 3251 259 
Q 2797 -91 1919 -91 
Q 1588 -91 1214 -16 
Q 841 59 441 206 
L 441 856 
Q 825 641 1194 531 
Q 1563 422 1919 422 
Q 2459 422 2753 634 
Q 3047 847 3047 1241 
Q 3047 1584 2836 1778 
Q 2625 1972 2144 2069 
L 1759 2144 
Q 1053 2284 737 2584 
Q 422 2884 422 3419 
Q 422 4038 858 4394 
Q 1294 4750 2059 4750 
Q 2388 4750 2728 4690 
Q 3069 4631 3425 4513 
z
" transform="scale(0.015625)"/>
       <path id="DejaVuSans-71" d="M 947 1747 
Q 947 1113 1208 752 
Q 1469 391 1925 391 
Q 2381 391 2643 752 
Q 2906 1113 2906 1747 
Q 2906 2381 2643 2742 
Q 2381 3103 1925 3103 
Q 1469 3103 1208 2742 
Q 947 2381 947 1747 
z
M 2906 525 
Q 2725 213 2448 61 
Q 2172 -91 1784 -91 
Q 1150 -91 751 415 
Q 353 922 353 1747 
Q 353 2572 751 3078 
Q 1150 3584 1784 3584 
Q 2172 3584 2448 3432 
Q 2725 3281 2906 2969 
L 2906 3500 
L 3481 3500 
L 3481 -1331 
L 2906 -1331 
L 2906 525 
z
" transform="scale(0.015625)"/>
       <path id="DejaVuSans-72" d="M 2631 2963 
Q 2534 3019 2420 3045 
Q 2306 3072 2169 3072 
Q 1681 3072 1420 2755 
Q 1159 2438 1159 1844 
L 1159 0 
L 581 0 
L 581 3500 
L 1159 3500 
L 1159 2956 
Q 1341 3275 1631 3429 
Q 1922 3584 2338 3584 
Q 2397 3584 2469 3576 
Q 2541 3569 2628 3553 
L 2631 2963 
z
" transform="scale(0.015625)"/>
       <path id="DejaVuSans-52" d="M 2841 2188 
Q 3044 2119 3236 1894 
Q 3428 1669 3622 1275 
L 4263 0 
L 3584 0 
L 2988 1197 
Q 2756 1666 2539 1819 
Q 2322 1972 1947 1972 
L 1259 1972 
L 1259 0 
L 628 0 
L 628 4666 
L 2053 4666 
Q 2853 4666 3247 4331 
Q 3641 3997 3641 3322 
Q 3641 2881 3436 2590 
Q 3231 2300 2841 2188 
z
M 1259 4147 
L 1259 2491 
L 2053 2491 
Q 2509 2491 2742 2702 
Q 2975 2913 2975 3322 
Q 2975 3731 2742 3939 
Q 2509 4147 2053 4147 
L 1259 4147 
z
" transform="scale(0.015625)"/>
       <path id="DejaVuSans-66" d="M 2375 4863 
L 2375 4384 
L 1825 4384 
Q 1516 4384 1395 4259 
Q 1275 4134 1275 3809 
L 1275 3500 
L 2222 3500 
L 2222 3053 
L 1275 3053 
L 1275 0 
L 697 0 
L 697 3053 
L 147 3053 
L 147 3500 
L 697 3500 
L 697 3744 
Q 697 4328 969 4595 
Q 1241 4863 1831 4863 
L 2375 4863 
z
" transform="scale(0.015625)"/>
       <path id="DejaVuSans-46" d="M 628 4666 
L 3309 4666 
L 3309 4134 
L 1259 4134 
L 1259 2759 
L 3109 2759 
L 3109 2228 
L 1259 2228 
L 1259 0 
L 628 0 
L 628 4666 
z
" transform="scale(0.015625)"/>
       <path id="DejaVuSans-63" d="M 3122 3366 
L 3122 2828 
Q 2878 2963 2633 3030 
Q 2388 3097 2138 3097 
Q 1578 3097 1268 2742 
Q 959 2388 959 1747 
Q 959 1106 1268 751 
Q 1578 397 2138 397 
Q 2388 397 2633 464 
Q 2878 531 3122 666 
L 3122 134 
Q 2881 22 2623 -34 
Q 2366 -91 2075 -91 
Q 1284 -91 818 406 
Q 353 903 353 1747 
Q 353 2603 823 3093 
Q 1294 3584 2113 3584 
Q 2378 3584 2631 3529 
Q 2884 3475 3122 3366 
z
" transform="scale(0.015625)"/>
       <path id="DejaVuSans-79" d="M 2059 -325 
Q 1816 -950 1584 -1140 
Q 1353 -1331 966 -1331 
L 506 -1331 
L 506 -850 
L 844 -850 
Q 1081 -850 1212 -737 
Q 1344 -625 1503 -206 
L 1606 56 
L 191 3500 
L 800 3500 
L 1894 763 
L 2988 3500 
L 3597 3500 
L 2059 -325 
z
" transform="scale(0.015625)"/>
      </defs>
      <use xlink:href="#DejaVuSans-53"/>
      <use xlink:href="#DejaVuSans-71" transform="translate(63.476562 0)"/>
      <use xlink:href="#DejaVuSans-75" transform="translate(126.953125 0)"/>
      <use xlink:href="#DejaVuSans-61" transform="translate(190.332031 0)"/>
      <use xlink:href="#DejaVuSans-72" transform="translate(251.611328 0)"/>
      <use xlink:href="#DejaVuSans-65" transform="translate(290.474609 0)"/>
      <use xlink:href="#DejaVuSans-20" transform="translate(351.998047 0)"/>
      <use xlink:href="#DejaVuSans-52" transform="translate(383.785156 0)"/>
      <use xlink:href="#DejaVuSans-6f" transform="translate(448.767578 0)"/>
      <use xlink:href="#DejaVuSans-6f" transform="translate(509.949219 0)"/>
      <use xlink:href="#DejaVuSans-74" transform="translate(571.130859 0)"/>
      <use xlink:href="#DejaVuSans-20" transform="translate(610.339844 0)"/>
      <use xlink:href="#DejaVuSans-6f" transform="translate(642.126953 0)"/>
      <use xlink:href="#DejaVuSans-66" transform="translate(703.308594 0)"/>
      <use xlink:href="#DejaVuSans-20" transform="translate(738.513672 0)"/>
      <use xlink:href="#DejaVuSans-46" transform="translate(770.300781 0)"/>
      <use xlink:href="#DejaVuSans-72" transform="translate(820.570312 0)"/>
      <use xlink:href="#DejaVuSans-65" transform="translate(859.433594 0)"/>
      <use xlink:href="#DejaVuSans-71" transform="translate(920.957031 0)"/>
      <use xlink:href="#DejaVuSans-75" transform="translate(984.433594 0)"/>
      <use xlink:href="#DejaVuSans-65" transform="translate(1047.8125 0)"/>
      <use xlink:href="#DejaVuSans-6e" transform="translate(1109.335938 0)"/>
      <use xlink:href="#DejaVuSans-63" transform="translate(1172.714844 0)"/>
      <use xlink:href="#DejaVuSans-79" transform="translate(1227.695312 0)"/>
     </g>
    </g>
   </g>
   <g id="line2d_25">
    <path d="M 66.644332 350.46177 
L 73.139502 341.118048 
L 79.634671 329.045792 
L 86.12984 314.637267 
L 92.62501 298.351305 
L 99.120179 280.654434 
L 105.615349 261.994899 
L 112.110518 242.788369 
L 118.605687 223.41012 
L 125.100857 204.191354 
L 131.596026 185.418244 
L 138.091195 167.332799 
L 144.586365 150.134929 
L 151.081534 133.98525 
L 157.576703 119.008341 
L 164.071873 105.296205 
L 170.567042 92.911792 
L 177.062212 81.892451 
L 183.557381 72.253263 
L 190.05255 63.990173 
L 196.54772 57.082917 
L 203.042889 51.497697 
L 209.538058 47.189632 
L 216.033228 44.104952 
L 222.528397 42.182969 
L 229.023566 41.357813 
L 235.518736 41.55996 
L 242.013905 42.717569 
L 248.509075 44.757619 
L 255.004244 47.606901 
L 261.499413 51.192833 
L 267.994583 55.444161 
L 274.489752 60.29152 
L 280.984921 65.667894 
L 287.480091 71.508978 
L 293.97526 77.753447 
L 300.470429 84.343163 
L 306.965599 91.223309 
L 313.460768 98.342468 
L 319.955938 105.652655 
L 326.451107 113.109313 
L 332.946276 120.671266 
L 339.441446 128.300656 
L 345.936615 135.962847 
L 352.431784 143.626316 
L 358.926954 151.262532 
L 365.422123 158.845817 
L 371.917292 166.353207 
L 378.412462 173.764305 
L 384.907631 181.06113 
L 391.4028 188.227967 
L 397.89797 195.25122 
L 404.393139 202.119261 
L 410.888309 208.822287 
L 417.383478 215.352181 
L 423.878647 221.702376 
L 430.373817 227.867724 
L 436.868986 233.844375 
L 443.364155 239.629653 
L 449.859325 245.221951 
L 456.354494 250.62062 
L 462.849663 255.825871 
L 469.344833 260.838683 
L 475.840002 265.660716 
L 482.335172 270.294227 
L 488.830341 274.741998 
L 495.32551 279.007265 
L 501.82068 283.093654 
L 508.315849 287.005124 
L 514.811018 290.745908 
L 521.306188 294.320469 
L 527.801357 297.733452 
L 534.296526 300.989645 
L 540.791696 304.093938 
L 547.286865 307.051298 
L 553.782035 309.86673 
L 560.277204 312.545257 
L 566.772373 315.091892 
L 573.267543 317.511622 
" clip-path="url(#pd870df13cd)" style="fill: none; stroke: #000000; stroke-width: 2; stroke-linecap: square"/>
    <defs>
     <path id="m0903490778" d="M 0 2 
C 0.530406 2 1.03916 1.789267 1.414214 1.414214 
C 1.789267 1.03916 2 0.530406 2 0 
C 2 -0.530406 1.789267 -1.03916 1.414214 -1.414214 
C 1.03916 -1.789267 0.530406 -2 0 -2 
C -0.530406 -2 -1.03916 -1.789267 -1.414214 -1.414214 
C -1.789267 -1.03916 -2 -0.530406 -2 0 
C -2 0.530406 -1.789267 1.03916 -1.414214 1.414214 
C -1.03916 1.789267 -0.530406 2 0 2 
z
" style="stroke: #000000"/>
    </defs>
    <g clip-path="url(#pd870df13cd)">
     <use xlink:href="#m0903490778" x="66.644332" y="350.46177" style="stroke: #000000"/>
     <use xlink:href="#m0903490778" x="73.139502" y="341.118048" style="stroke: #000000"/>
     <use xlink:href="#m0903490778" x="79.634671" y="329.045792" style="stroke: #000000"/>
     <use xlink:href="#m0903490778" x="86.12984" y="314.637267" style="stroke: #000000"/>
     <use xlink:href="#m0903490778" x="92.62501" y="298.351305" style="stroke: #000000"/>
     <use xlink:href="#m0903490778" x="99.120179" y="280.654434" style="stroke: #000000"/>
     <use xlink:href="#m0903490778" x="105.615349" y="261.994899" style="stroke: #000000"/>
     <use xlink:href="#m0903490778" x="112.110518" y="242.788369" style="stroke: #000000"/>
     <use xlink:href="#m0903490778" x="118.605687" y="223.41012" style="stroke: #000000"/>
     <use xlink:href="#m0903490778" x="125.100857" y="204.191354" style="stroke: #000000"/>
     <use xlink:href="#m0903490778" x="131.596026" y="185.418244" style="stroke: #000000"/>
     <use xlink:href="#m0903490778" x="138.091195" y="167.332799" style="stroke: #000000"/>
     <use xlink:href="#m0903490778" x="144.586365" y="150.134929" style="stroke: #000000"/>
     <use xlink:href="#m0903490778" x="151.081534" y="133.98525" style="stroke: #000000"/>
     <use xlink:href="#m0903490778" x="157.576703" y="119.008341" style="stroke: #000000"/>
     <use xlink:href="#m0903490778" x="164.071873" y="105.296205" style="stroke: #000000"/>
     <use xlink:href="#m0903490778" x="170.567042" y="92.911792" style="stroke: #000000"/>
     <use xlink:href="#m0903490778" x="177.062212" y="81.892451" style="stroke: #000000"/>
     <use xlink:href="#m0903490778" x="183.557381" y="72.253263" style="stroke: #000000"/>
     <use xlink:href="#m0903490778" x="190.05255" y="63.990173" style="stroke: #000000"/>
     <use xlink:href="#m0903490778" x="196.54772" y="57.082917" style="stroke: #000000"/>
     <use xlink:href="#m0903490778" x="203.042889" y="51.497697" style="stroke: #000000"/>
     <use xlink:href="#m0903490778" x="209.538058" y="47.189632" style="stroke: #000000"/>
     <use xlink:href="#m0903490778" x="216.033228" y="44.104952" style="stroke: #000000"/>
     <use xlink:href="#m0903490778" x="222.528397" y="42.182969" style="stroke: #000000"/>
     <use xlink:href="#m0903490778" x="229.023566" y="41.357813" style="stroke: #000000"/>
     <use xlink:href="#m0903490778" x="235.518736" y="41.55996" style="stroke: #000000"/>
     <use xlink:href="#m0903490778" x="242.013905" y="42.717569" style="stroke: #000000"/>
     <use xlink:href="#m0903490778" x="248.509075" y="44.757619" style="stroke: #000000"/>
     <use xlink:href="#m0903490778" x="255.004244" y="47.606901" style="stroke: #000000"/>
     <use xlink:href="#m0903490778" x="261.499413" y="51.192833" style="stroke: #000000"/>
     <use xlink:href="#m0903490778" x="267.994583" y="55.444161" style="stroke: #000000"/>
     <use xlink:href="#m0903490778" x="274.489752" y="60.29152" style="stroke: #000000"/>
     <use xlink:href="#m0903490778" x="280.984921" y="65.667894" style="stroke: #000000"/>
     <use xlink:href="#m0903490778" x="287.480091" y="71.508978" style="stroke: #000000"/>
     <use xlink:href="#m0903490778" x="293.97526" y="77.753447" style="stroke: #000000"/>
     <use xlink:href="#m0903490778" x="300.470429" y="84.343163" style="stroke: #000000"/>
     <use xlink:href="#m0903490778" x="306.965599" y="91.223309" style="stroke: #000000"/>
     <use xlink:href="#m0903490778" x="313.460768" y="98.342468" style="stroke: #000000"/>
     <use xlink:href="#m0903490778" x="319.955938" y="105.652655" style="stroke: #000000"/>
     <use xlink:href="#m0903490778" x="326.451107" y="113.109313" style="stroke: #000000"/>
     <use xlink:href="#m0903490778" x="332.946276" y="120.671266" style="stroke: #000000"/>
     <use xlink:href="#m0903490778" x="339.441446" y="128.300656" style="stroke: #000000"/>
     <use xlink:href="#m0903490778" x="345.936615" y="135.962847" style="stroke: #000000"/>
     <use xlink:href="#m0903490778" x="352.431784" y="143.626316" style="stroke: #000000"/>
     <use xlink:href="#m0903490778" x="358.926954" y="151.262532" style="stroke: #000000"/>
     <use xlink:href="#m0903490778" x="365.422123" y="158.845817" style="stroke: #000000"/>
     <use xlink:href="#m0903490778" x="371.917292" y="166.353207" style="stroke: #000000"/>
     <use xlink:href="#m0903490778" x="378.412462" y="173.764305" style="stroke: #000000"/>
     <use xlink:href="#m0903490778" x="384.907631" y="181.06113" style="stroke: #000000"/>
     <use xlink:href="#m0903490778" x="391.4028" y="188.227967" style="stroke: #000000"/>
     <use xlink:href="#m0903490778" x="397.89797" y="195.25122" style="stroke: #000000"/>
     <use xlink:href="#m0903490778" x="404.393139" y="202.119261" style="stroke: #000000"/>
     <use xlink:href="#m0903490778" x="410.888309" y="208.822287" style="stroke: #000000"/>
     <use xlink:href="#m0903490778" x="417.383478" y="215.352181" style="stroke: #000000"/>
     <use xlink:href="#m0903490778" x="423.878647" y="221.702376" style="stroke: #000000"/>
     <use xlink:href="#m0903490778" x="430.373817" y="227.867724" style="stroke: #000000"/>
     <use xlink:href="#m0903490778" x="436.868986" y="233.844375" style="stroke: #000000"/>
     <use xlink:href="#m0903490778" x="443.364155" y="239.629653" style="stroke: #000000"/>
     <use xlink:href="#m0903490778" x="449.859325" y="245.221951" style="stroke: #000000"/>
     <use xlink:href="#m0903490778" x="456.354494" y="250.62062" style="stroke: #000000"/>
     <use xlink:href="#m0903490778" x="462.849663" y="255.825871" style="stroke: #000000"/>
     <use xlink:href="#m0903490778" x="469.344833" y="260.838683" style="stroke: #000000"/>
     <use xlink:href="#m0903490778" x="475.840002" y="265.660716" style="stroke: #000000"/>
     <use xlink:href="#m0903490778" x="482.335172" y="270.294227" style="stroke: #000000"/>
     <use xlink:href="#m0903490778" x="488.830341" y="274.741998" style="stroke: #000000"/>
     <use xlink:href="#m0903490778" x="495.32551" y="279.007265" style="stroke: #000000"/>
     <use xlink:href="#m0903490778" x="501.82068" y="283.093654" style="stroke: #000000"/>
     <use xlink:href="#m0903490778" x="508.315849" y="287.005124" style="stroke: #000000"/>
     <use xlink:href="#m0903490778" x="514.811018" y="290.745908" style="stroke: #000000"/>
     <use xlink:href="#m0903490778" x="521.306188" y="294.320469" style="stroke: #000000"/>
     <use xlink:href="#m0903490778" x="527.801357" y="297.733452" style="stroke: #000000"/>
     <use xlink:href="#m0903490778" x="534.296526" y="300.989645" style="stroke: #000000"/>
     <use xlink:href="#m0903490778" x="540.791696" y="304.093938" style="stroke: #000000"/>
     <use xlink:href="#m0903490778" x="547.286865" y="307.051298" style="stroke: #000000"/>
     <use xlink:href="#m0903490778" x="553.782035" y="309.86673" style="stroke: #000000"/>
     <use xlink:href="#m0903490778" x="560.277204" y="312.545257" style="stroke: #000000"/>
     <use xlink:href="#m0903490778" x="566.772373" y="315.091892" style="stroke: #000000"/>
     <use xlink:href="#m0903490778" x="573.267543" y="317.511622" style="stroke: #000000"/>
    </g>
   </g>
   <g id="line2d_26">
    <path d="M 40.955938 357.929964 
L 598.955938 357.929964 
" clip-path="url(#pd870df13cd)" style="fill: none; stroke-dasharray: 5.55,2.4; stroke-dashoffset: 0; stroke: #808080; stroke-opacity: 0.5; stroke-width: 1.5"/>
   </g>
   <g id="patch_82">
    <path d="M 40.955938 463.757812 
L 40.955938 20.237812 
" style="fill: none; stroke: #000000; stroke-width: 0.8; stroke-linejoin: miter; stroke-linecap: square"/>
   </g>
   <g id="patch_83">
    <path d="M 598.955938 463.757812 
L 598.955938 20.237812 
" style="fill: none; stroke: #000000; stroke-width: 0.8; stroke-linejoin: miter; stroke-linecap: square"/>
   </g>
   <g id="patch_84">
    <path d="M 40.955938 463.757812 
L 598.955938 463.757812 
" style="fill: none; stroke: #000000; stroke-width: 0.8; stroke-linejoin: miter; stroke-linecap: square"/>
   </g>
   <g id="patch_85">
    <path d="M 40.955938 20.237813 
L 598.955938 20.237813 
" style="fill: none; stroke: #000000; stroke-width: 0.8; stroke-linejoin: miter; stroke-linecap: square"/>
   </g>
   <g id="text_21">
    <!-- Hanging Rootogram: Negative Binomial Distribution Fit -->
    <g transform="translate(100.985 14.237812) scale(0.14 -0.14)">
     <defs>
      <path id="DejaVuSans-Bold-48" d="M 588 4666 
L 1791 4666 
L 1791 2888 
L 3566 2888 
L 3566 4666 
L 4769 4666 
L 4769 0 
L 3566 0 
L 3566 1978 
L 1791 1978 
L 1791 0 
L 588 0 
L 588 4666 
z
" transform="scale(0.015625)"/>
      <path id="DejaVuSans-Bold-61" d="M 2106 1575 
Q 1756 1575 1579 1456 
Q 1403 1338 1403 1106 
Q 1403 894 1545 773 
Q 1688 653 1941 653 
Q 2256 653 2472 879 
Q 2688 1106 2688 1447 
L 2688 1575 
L 2106 1575 
z
M 3816 1997 
L 3816 0 
L 2688 0 
L 2688 519 
Q 2463 200 2181 54 
Q 1900 -91 1497 -91 
Q 953 -91 614 226 
Q 275 544 275 1050 
Q 275 1666 698 1953 
Q 1122 2241 2028 2241 
L 2688 2241 
L 2688 2328 
Q 2688 2594 2478 2717 
Q 2269 2841 1825 2841 
Q 1466 2841 1156 2769 
Q 847 2697 581 2553 
L 581 3406 
Q 941 3494 1303 3539 
Q 1666 3584 2028 3584 
Q 2975 3584 3395 3211 
Q 3816 2838 3816 1997 
z
" transform="scale(0.015625)"/>
      <path id="DejaVuSans-Bold-6e" d="M 4056 2131 
L 4056 0 
L 2931 0 
L 2931 347 
L 2931 1631 
Q 2931 2084 2911 2256 
Q 2891 2428 2841 2509 
Q 2775 2619 2662 2680 
Q 2550 2741 2406 2741 
Q 2056 2741 1856 2470 
Q 1656 2200 1656 1722 
L 1656 0 
L 538 0 
L 538 3500 
L 1656 3500 
L 1656 2988 
Q 1909 3294 2193 3439 
Q 2478 3584 2822 3584 
Q 3428 3584 3742 3212 
Q 4056 2841 4056 2131 
z
" transform="scale(0.015625)"/>
      <path id="DejaVuSans-Bold-67" d="M 2919 594 
Q 2688 288 2409 144 
Q 2131 0 1766 0 
Q 1125 0 706 504 
Q 288 1009 288 1791 
Q 288 2575 706 3076 
Q 1125 3578 1766 3578 
Q 2131 3578 2409 3434 
Q 2688 3291 2919 2981 
L 2919 3500 
L 4044 3500 
L 4044 353 
Q 4044 -491 3511 -936 
Q 2978 -1381 1966 -1381 
Q 1638 -1381 1331 -1331 
Q 1025 -1281 716 -1178 
L 716 -306 
Q 1009 -475 1290 -558 
Q 1572 -641 1856 -641 
Q 2406 -641 2662 -400 
Q 2919 -159 2919 353 
L 2919 594 
z
M 2181 2772 
Q 1834 2772 1640 2515 
Q 1447 2259 1447 1791 
Q 1447 1309 1634 1061 
Q 1822 813 2181 813 
Q 2531 813 2725 1069 
Q 2919 1325 2919 1791 
Q 2919 2259 2725 2515 
Q 2531 2772 2181 2772 
z
" transform="scale(0.015625)"/>
      <path id="DejaVuSans-Bold-69" d="M 538 3500 
L 1656 3500 
L 1656 0 
L 538 0 
L 538 3500 
z
M 538 4863 
L 1656 4863 
L 1656 3950 
L 538 3950 
L 538 4863 
z
" transform="scale(0.015625)"/>
      <path id="DejaVuSans-Bold-20" transform="scale(0.015625)"/>
      <path id="DejaVuSans-Bold-52" d="M 2297 2597 
Q 2675 2597 2839 2737 
Q 3003 2878 3003 3200 
Q 3003 3519 2839 3656 
Q 2675 3794 2297 3794 
L 1791 3794 
L 1791 2597 
L 2297 2597 
z
M 1791 1766 
L 1791 0 
L 588 0 
L 588 4666 
L 2425 4666 
Q 3347 4666 3776 4356 
Q 4206 4047 4206 3378 
Q 4206 2916 3982 2619 
Q 3759 2322 3309 2181 
Q 3556 2125 3751 1926 
Q 3947 1728 4147 1325 
L 4800 0 
L 3519 0 
L 2950 1159 
Q 2778 1509 2601 1637 
Q 2425 1766 2131 1766 
L 1791 1766 
z
" transform="scale(0.015625)"/>
      <path id="DejaVuSans-Bold-6f" d="M 2203 2784 
Q 1831 2784 1636 2517 
Q 1441 2250 1441 1747 
Q 1441 1244 1636 976 
Q 1831 709 2203 709 
Q 2569 709 2762 976 
Q 2956 1244 2956 1747 
Q 2956 2250 2762 2517 
Q 2569 2784 2203 2784 
z
M 2203 3584 
Q 3106 3584 3614 3096 
Q 4122 2609 4122 1747 
Q 4122 884 3614 396 
Q 3106 -91 2203 -91 
Q 1297 -91 786 396 
Q 275 884 275 1747 
Q 275 2609 786 3096 
Q 1297 3584 2203 3584 
z
" transform="scale(0.015625)"/>
      <path id="DejaVuSans-Bold-74" d="M 1759 4494 
L 1759 3500 
L 2913 3500 
L 2913 2700 
L 1759 2700 
L 1759 1216 
Q 1759 972 1856 886 
Q 1953 800 2241 800 
L 2816 800 
L 2816 0 
L 1856 0 
Q 1194 0 917 276 
Q 641 553 641 1216 
L 641 2700 
L 84 2700 
L 84 3500 
L 641 3500 
L 641 4494 
L 1759 4494 
z
" transform="scale(0.015625)"/>
      <path id="DejaVuSans-Bold-72" d="M 3138 2547 
Q 2991 2616 2845 2648 
Q 2700 2681 2553 2681 
Q 2122 2681 1889 2404 
Q 1656 2128 1656 1613 
L 1656 0 
L 538 0 
L 538 3500 
L 1656 3500 
L 1656 2925 
Q 1872 3269 2151 3426 
Q 2431 3584 2822 3584 
Q 2878 3584 2943 3579 
Q 3009 3575 3134 3559 
L 3138 2547 
z
" transform="scale(0.015625)"/>
      <path id="DejaVuSans-Bold-6d" d="M 3781 2919 
Q 3994 3244 4286 3414 
Q 4578 3584 4928 3584 
Q 5531 3584 5847 3212 
Q 6163 2841 6163 2131 
L 6163 0 
L 5038 0 
L 5038 1825 
Q 5041 1866 5042 1909 
Q 5044 1953 5044 2034 
Q 5044 2406 4934 2573 
Q 4825 2741 4581 2741 
Q 4263 2741 4089 2478 
Q 3916 2216 3909 1719 
L 3909 0 
L 2784 0 
L 2784 1825 
Q 2784 2406 2684 2573 
Q 2584 2741 2328 2741 
Q 2006 2741 1831 2477 
Q 1656 2213 1656 1722 
L 1656 0 
L 531 0 
L 531 3500 
L 1656 3500 
L 1656 2988 
Q 1863 3284 2130 3434 
Q 2397 3584 2719 3584 
Q 3081 3584 3359 3409 
Q 3638 3234 3781 2919 
z
" transform="scale(0.015625)"/>
      <path id="DejaVuSans-Bold-3a" d="M 716 3500 
L 1844 3500 
L 1844 2291 
L 716 2291 
L 716 3500 
z
M 716 1209 
L 1844 1209 
L 1844 0 
L 716 0 
L 716 1209 
z
" transform="scale(0.015625)"/>
      <path id="DejaVuSans-Bold-4e" d="M 588 4666 
L 1931 4666 
L 3628 1466 
L 3628 4666 
L 4769 4666 
L 4769 0 
L 3425 0 
L 1728 3200 
L 1728 0 
L 588 0 
L 588 4666 
z
" transform="scale(0.015625)"/>
      <path id="DejaVuSans-Bold-65" d="M 4031 1759 
L 4031 1441 
L 1416 1441 
Q 1456 1047 1700 850 
Q 1944 653 2381 653 
Q 2734 653 3104 758 
Q 3475 863 3866 1075 
L 3866 213 
Q 3469 63 3072 -14 
Q 2675 -91 2278 -91 
Q 1328 -91 801 392 
Q 275 875 275 1747 
Q 275 2603 792 3093 
Q 1309 3584 2216 3584 
Q 3041 3584 3536 3087 
Q 4031 2591 4031 1759 
z
M 2881 2131 
Q 2881 2450 2695 2645 
Q 2509 2841 2209 2841 
Q 1884 2841 1681 2658 
Q 1478 2475 1428 2131 
L 2881 2131 
z
" transform="scale(0.015625)"/>
      <path id="DejaVuSans-Bold-76" d="M 97 3500 
L 1216 3500 
L 2088 1081 
L 2956 3500 
L 4078 3500 
L 2700 0 
L 1472 0 
L 97 3500 
z
" transform="scale(0.015625)"/>
      <path id="DejaVuSans-Bold-42" d="M 2456 2859 
Q 2741 2859 2887 2984 
Q 3034 3109 3034 3353 
Q 3034 3594 2887 3720 
Q 2741 3847 2456 3847 
L 1791 3847 
L 1791 2859 
L 2456 2859 
z
M 2497 819 
Q 2859 819 3042 972 
Q 3225 1125 3225 1434 
Q 3225 1738 3044 1889 
Q 2863 2041 2497 2041 
L 1791 2041 
L 1791 819 
L 2497 819 
z
M 3616 2497 
Q 4003 2384 4215 2081 
Q 4428 1778 4428 1338 
Q 4428 663 3972 331 
Q 3516 0 2584 0 
L 588 0 
L 588 4666 
L 2394 4666 
Q 3366 4666 3802 4372 
Q 4238 4078 4238 3431 
Q 4238 3091 4078 2852 
Q 3919 2613 3616 2497 
z
" transform="scale(0.015625)"/>
      <path id="DejaVuSans-Bold-6c" d="M 538 4863 
L 1656 4863 
L 1656 0 
L 538 0 
L 538 4863 
z
" transform="scale(0.015625)"/>
      <path id="DejaVuSans-Bold-44" d="M 1791 3756 
L 1791 909 
L 2222 909 
Q 2959 909 3348 1275 
Q 3738 1641 3738 2338 
Q 3738 3031 3350 3393 
Q 2963 3756 2222 3756 
L 1791 3756 
z
M 588 4666 
L 1856 4666 
Q 2919 4666 3439 4514 
Q 3959 4363 4331 4000 
Q 4659 3684 4818 3271 
Q 4978 2859 4978 2338 
Q 4978 1809 4818 1395 
Q 4659 981 4331 666 
Q 3956 303 3431 151 
Q 2906 0 1856 0 
L 588 0 
L 588 4666 
z
" transform="scale(0.015625)"/>
      <path id="DejaVuSans-Bold-73" d="M 3272 3391 
L 3272 2541 
Q 2913 2691 2578 2766 
Q 2244 2841 1947 2841 
Q 1628 2841 1473 2761 
Q 1319 2681 1319 2516 
Q 1319 2381 1436 2309 
Q 1553 2238 1856 2203 
L 2053 2175 
Q 2913 2066 3209 1816 
Q 3506 1566 3506 1031 
Q 3506 472 3093 190 
Q 2681 -91 1863 -91 
Q 1516 -91 1145 -36 
Q 775 19 384 128 
L 384 978 
Q 719 816 1070 734 
Q 1422 653 1784 653 
Q 2113 653 2278 743 
Q 2444 834 2444 1013 
Q 2444 1163 2330 1236 
Q 2216 1309 1875 1350 
L 1678 1375 
Q 931 1469 631 1722 
Q 331 1975 331 2491 
Q 331 3047 712 3315 
Q 1094 3584 1881 3584 
Q 2191 3584 2531 3537 
Q 2872 3491 3272 3391 
z
" transform="scale(0.015625)"/>
      <path id="DejaVuSans-Bold-62" d="M 2400 722 
Q 2759 722 2948 984 
Q 3138 1247 3138 1747 
Q 3138 2247 2948 2509 
Q 2759 2772 2400 2772 
Q 2041 2772 1848 2508 
Q 1656 2244 1656 1747 
Q 1656 1250 1848 986 
Q 2041 722 2400 722 
z
M 1656 2988 
Q 1888 3294 2169 3439 
Q 2450 3584 2816 3584 
Q 3463 3584 3878 3070 
Q 4294 2556 4294 1747 
Q 4294 938 3878 423 
Q 3463 -91 2816 -91 
Q 2450 -91 2169 54 
Q 1888 200 1656 506 
L 1656 0 
L 538 0 
L 538 4863 
L 1656 4863 
L 1656 2988 
z
" transform="scale(0.015625)"/>
      <path id="DejaVuSans-Bold-75" d="M 500 1363 
L 500 3500 
L 1625 3500 
L 1625 3150 
Q 1625 2866 1622 2436 
Q 1619 2006 1619 1863 
Q 1619 1441 1641 1255 
Q 1663 1069 1716 984 
Q 1784 875 1895 815 
Q 2006 756 2150 756 
Q 2500 756 2700 1025 
Q 2900 1294 2900 1772 
L 2900 3500 
L 4019 3500 
L 4019 0 
L 2900 0 
L 2900 506 
Q 2647 200 2364 54 
Q 2081 -91 1741 -91 
Q 1134 -91 817 281 
Q 500 653 500 1363 
z
" transform="scale(0.015625)"/>
      <path id="DejaVuSans-Bold-46" d="M 588 4666 
L 3834 4666 
L 3834 3756 
L 1791 3756 
L 1791 2888 
L 3713 2888 
L 3713 1978 
L 1791 1978 
L 1791 0 
L 588 0 
L 588 4666 
z
" transform="scale(0.015625)"/>
     </defs>
     <use xlink:href="#DejaVuSans-Bold-48"/>
     <use xlink:href="#DejaVuSans-Bold-61" transform="translate(83.691406 0)"/>
     <use xlink:href="#DejaVuSans-Bold-6e" transform="translate(151.171875 0)"/>
     <use xlink:href="#DejaVuSans-Bold-67" transform="translate(222.363281 0)"/>
     <use xlink:href="#DejaVuSans-Bold-69" transform="translate(293.945312 0)"/>
     <use xlink:href="#DejaVuSans-Bold-6e" transform="translate(328.222656 0)"/>
     <use xlink:href="#DejaVuSans-Bold-67" transform="translate(399.414062 0)"/>
     <use xlink:href="#DejaVuSans-Bold-20" transform="translate(470.996094 0)"/>
     <use xlink:href="#DejaVuSans-Bold-52" transform="translate(505.810547 0)"/>
     <use xlink:href="#DejaVuSans-Bold-6f" transform="translate(582.8125 0)"/>
     <use xlink:href="#DejaVuSans-Bold-6f" transform="translate(651.513672 0)"/>
     <use xlink:href="#DejaVuSans-Bold-74" transform="translate(720.214844 0)"/>
     <use xlink:href="#DejaVuSans-Bold-6f" transform="translate(768.017578 0)"/>
     <use xlink:href="#DejaVuSans-Bold-67" transform="translate(836.71875 0)"/>
     <use xlink:href="#DejaVuSans-Bold-72" transform="translate(908.300781 0)"/>
     <use xlink:href="#DejaVuSans-Bold-61" transform="translate(957.617188 0)"/>
     <use xlink:href="#DejaVuSans-Bold-6d" transform="translate(1025.097656 0)"/>
     <use xlink:href="#DejaVuSans-Bold-3a" transform="translate(1129.296875 0)"/>
     <use xlink:href="#DejaVuSans-Bold-20" transform="translate(1169.287109 0)"/>
     <use xlink:href="#DejaVuSans-Bold-4e" transform="translate(1204.101562 0)"/>
     <use xlink:href="#DejaVuSans-Bold-65" transform="translate(1287.792969 0)"/>
     <use xlink:href="#DejaVuSans-Bold-67" transform="translate(1355.615234 0)"/>
     <use xlink:href="#DejaVuSans-Bold-61" transform="translate(1427.197266 0)"/>
     <use xlink:href="#DejaVuSans-Bold-74" transform="translate(1494.677734 0)"/>
     <use xlink:href="#DejaVuSans-Bold-69" transform="translate(1542.480469 0)"/>
     <use xlink:href="#DejaVuSans-Bold-76" transform="translate(1576.757812 0)"/>
     <use xlink:href="#DejaVuSans-Bold-65" transform="translate(1641.943359 0)"/>
     <use xlink:href="#DejaVuSans-Bold-20" transform="translate(1709.765625 0)"/>
     <use xlink:href="#DejaVuSans-Bold-42" transform="translate(1744.580078 0)"/>
     <use xlink:href="#DejaVuSans-Bold-69" transform="translate(1820.800781 0)"/>
     <use xlink:href="#DejaVuSans-Bold-6e" transform="translate(1855.078125 0)"/>
     <use xlink:href="#DejaVuSans-Bold-6f" transform="translate(1926.269531 0)"/>
     <use xlink:href="#DejaVuSans-Bold-6d" transform="translate(1994.970703 0)"/>
     <use xlink:href="#DejaVuSans-Bold-69" transform="translate(2099.169922 0)"/>
     <use xlink:href="#DejaVuSans-Bold-61" transform="translate(2133.447266 0)"/>
     <use xlink:href="#DejaVuSans-Bold-6c" transform="translate(2200.927734 0)"/>
     <use xlink:href="#DejaVuSans-Bold-20" transform="translate(2235.205078 0)"/>
     <use xlink:href="#DejaVuSans-Bold-44" transform="translate(2270.019531 0)"/>
     <use xlink:href="#DejaVuSans-Bold-69" transform="translate(2353.027344 0)"/>
     <use xlink:href="#DejaVuSans-Bold-73" transform="translate(2387.304688 0)"/>
     <use xlink:href="#DejaVuSans-Bold-74" transform="translate(2446.826172 0)"/>
     <use xlink:href="#DejaVuSans-Bold-72" transform="translate(2494.628906 0)"/>
     <use xlink:href="#DejaVuSans-Bold-69" transform="translate(2543.945312 0)"/>
     <use xlink:href="#DejaVuSans-Bold-62" transform="translate(2578.222656 0)"/>
     <use xlink:href="#DejaVuSans-Bold-75" transform="translate(2649.804688 0)"/>
     <use xlink:href="#DejaVuSans-Bold-74" transform="translate(2720.996094 0)"/>
     <use xlink:href="#DejaVuSans-Bold-69" transform="translate(2768.798828 0)"/>
     <use xlink:href="#DejaVuSans-Bold-6f" transform="translate(2803.076172 0)"/>
     <use xlink:href="#DejaVuSans-Bold-6e" transform="translate(2871.777344 0)"/>
     <use xlink:href="#DejaVuSans-Bold-20" transform="translate(2942.96875 0)"/>
     <use xlink:href="#DejaVuSans-Bold-46" transform="translate(2977.783203 0)"/>
     <use xlink:href="#DejaVuSans-Bold-69" transform="translate(3046.09375 0)"/>
     <use xlink:href="#DejaVuSans-Bold-74" transform="translate(3080.371094 0)"/>
    </g>
   </g>
   <g id="legend_1">
    <g id="patch_86">
     <path d="M 381.793594 61.329688 
L 591.255937 61.329688 
Q 593.455938 61.329688 593.455938 59.129688 
L 593.455938 27.937813 
Q 593.455938 25.737813 591.255937 25.737813 
L 381.793594 25.737813 
Q 379.593594 25.737813 379.593594 27.937813 
L 379.593594 59.129688 
Q 379.593594 61.329688 381.793594 61.329688 
z
" style="fill: #ffffff; opacity: 0.8; stroke: #cccccc; stroke-linejoin: miter"/>
    </g>
    <g id="line2d_27">
     <path d="M 383.993594 34.646094 
L 394.993594 34.646094 
L 405.993594 34.646094 
" style="fill: none; stroke: #000000; stroke-width: 2; stroke-linecap: square"/>
     <g>
      <use xlink:href="#m0903490778" x="394.993594" y="34.646094" style="stroke: #000000"/>
     </g>
    </g>
    <g id="text_22">
     <!-- Theoretical (Negative Binomial) -->
     <g transform="translate(414.793594 38.496094) scale(0.11 -0.11)">
      <defs>
       <path id="DejaVuSans-54" d="M -19 4666 
L 3928 4666 
L 3928 4134 
L 2272 4134 
L 2272 0 
L 1638 0 
L 1638 4134 
L -19 4134 
L -19 4666 
z
" transform="scale(0.015625)"/>
       <path id="DejaVuSans-68" d="M 3513 2113 
L 3513 0 
L 2938 0 
L 2938 2094 
Q 2938 2591 2744 2837 
Q 2550 3084 2163 3084 
Q 1697 3084 1428 2787 
Q 1159 2491 1159 1978 
L 1159 0 
L 581 0 
L 581 4863 
L 1159 4863 
L 1159 2956 
Q 1366 3272 1645 3428 
Q 1925 3584 2291 3584 
Q 2894 3584 3203 3211 
Q 3513 2838 3513 2113 
z
" transform="scale(0.015625)"/>
       <path id="DejaVuSans-69" d="M 603 3500 
L 1178 3500 
L 1178 0 
L 603 0 
L 603 3500 
z
M 603 4863 
L 1178 4863 
L 1178 4134 
L 603 4134 
L 603 4863 
z
" transform="scale(0.015625)"/>
       <path id="DejaVuSans-28" d="M 1984 4856 
Q 1566 4138 1362 3434 
Q 1159 2731 1159 2009 
Q 1159 1288 1364 580 
Q 1569 -128 1984 -844 
L 1484 -844 
Q 1016 -109 783 600 
Q 550 1309 550 2009 
Q 550 2706 781 3412 
Q 1013 4119 1484 4856 
L 1984 4856 
z
" transform="scale(0.015625)"/>
       <path id="DejaVuSans-4e" d="M 628 4666 
L 1478 4666 
L 3547 763 
L 3547 4666 
L 4159 4666 
L 4159 0 
L 3309 0 
L 1241 3903 
L 1241 0 
L 628 0 
L 628 4666 
z
" transform="scale(0.015625)"/>
       <path id="DejaVuSans-67" d="M 2906 1791 
Q 2906 2416 2648 2759 
Q 2391 3103 1925 3103 
Q 1463 3103 1205 2759 
Q 947 2416 947 1791 
Q 947 1169 1205 825 
Q 1463 481 1925 481 
Q 2391 481 2648 825 
Q 2906 1169 2906 1791 
z
M 3481 434 
Q 3481 -459 3084 -895 
Q 2688 -1331 1869 -1331 
Q 1566 -1331 1297 -1286 
Q 1028 -1241 775 -1147 
L 775 -588 
Q 1028 -725 1275 -790 
Q 1522 -856 1778 -856 
Q 2344 -856 2625 -561 
Q 2906 -266 2906 331 
L 2906 616 
Q 2728 306 2450 153 
Q 2172 0 1784 0 
Q 1141 0 747 490 
Q 353 981 353 1791 
Q 353 2603 747 3093 
Q 1141 3584 1784 3584 
Q 2172 3584 2450 3431 
Q 2728 3278 2906 2969 
L 2906 3500 
L 3481 3500 
L 3481 434 
z
" transform="scale(0.015625)"/>
       <path id="DejaVuSans-76" d="M 191 3500 
L 800 3500 
L 1894 563 
L 2988 3500 
L 3597 3500 
L 2284 0 
L 1503 0 
L 191 3500 
z
" transform="scale(0.015625)"/>
       <path id="DejaVuSans-42" d="M 1259 2228 
L 1259 519 
L 2272 519 
Q 2781 519 3026 730 
Q 3272 941 3272 1375 
Q 3272 1813 3026 2020 
Q 2781 2228 2272 2228 
L 1259 2228 
z
M 1259 4147 
L 1259 2741 
L 2194 2741 
Q 2656 2741 2882 2914 
Q 3109 3088 3109 3444 
Q 3109 3797 2882 3972 
Q 2656 4147 2194 4147 
L 1259 4147 
z
M 628 4666 
L 2241 4666 
Q 2963 4666 3353 4366 
Q 3744 4066 3744 3513 
Q 3744 3084 3544 2831 
Q 3344 2578 2956 2516 
Q 3422 2416 3680 2098 
Q 3938 1781 3938 1306 
Q 3938 681 3513 340 
Q 3088 0 2303 0 
L 628 0 
L 628 4666 
z
" transform="scale(0.015625)"/>
       <path id="DejaVuSans-6d" d="M 3328 2828 
Q 3544 3216 3844 3400 
Q 4144 3584 4550 3584 
Q 5097 3584 5394 3201 
Q 5691 2819 5691 2113 
L 5691 0 
L 5113 0 
L 5113 2094 
Q 5113 2597 4934 2840 
Q 4756 3084 4391 3084 
Q 3944 3084 3684 2787 
Q 3425 2491 3425 1978 
L 3425 0 
L 2847 0 
L 2847 2094 
Q 2847 2600 2669 2842 
Q 2491 3084 2119 3084 
Q 1678 3084 1418 2786 
Q 1159 2488 1159 1978 
L 1159 0 
L 581 0 
L 581 3500 
L 1159 3500 
L 1159 2956 
Q 1356 3278 1631 3431 
Q 1906 3584 2284 3584 
Q 2666 3584 2933 3390 
Q 3200 3197 3328 2828 
z
" transform="scale(0.015625)"/>
       <path id="DejaVuSans-29" d="M 513 4856 
L 1013 4856 
Q 1481 4119 1714 3412 
Q 1947 2706 1947 2009 
Q 1947 1309 1714 600 
Q 1481 -109 1013 -844 
L 513 -844 
Q 928 -128 1133 580 
Q 1338 1288 1338 2009 
Q 1338 2731 1133 3434 
Q 928 4138 513 4856 
z
" transform="scale(0.015625)"/>
      </defs>
      <use xlink:href="#DejaVuSans-54"/>
      <use xlink:href="#DejaVuSans-68" transform="translate(61.083984 0)"/>
      <use xlink:href="#DejaVuSans-65" transform="translate(124.462891 0)"/>
      <use xlink:href="#DejaVuSans-6f" transform="translate(185.986328 0)"/>
      <use xlink:href="#DejaVuSans-72" transform="translate(247.167969 0)"/>
      <use xlink:href="#DejaVuSans-65" transform="translate(286.03125 0)"/>
      <use xlink:href="#DejaVuSans-74" transform="translate(347.554688 0)"/>
      <use xlink:href="#DejaVuSans-69" transform="translate(386.763672 0)"/>
      <use xlink:href="#DejaVuSans-63" transform="translate(414.546875 0)"/>
      <use xlink:href="#DejaVuSans-61" transform="translate(469.527344 0)"/>
      <use xlink:href="#DejaVuSans-6c" transform="translate(530.806641 0)"/>
      <use xlink:href="#DejaVuSans-20" transform="translate(558.589844 0)"/>
      <use xlink:href="#DejaVuSans-28" transform="translate(590.376953 0)"/>
      <use xlink:href="#DejaVuSans-4e" transform="translate(629.390625 0)"/>
      <use xlink:href="#DejaVuSans-65" transform="translate(704.195312 0)"/>
      <use xlink:href="#DejaVuSans-67" transform="translate(765.71875 0)"/>
      <use xlink:href="#DejaVuSans-61" transform="translate(829.195312 0)"/>
      <use xlink:href="#DejaVuSans-74" transform="translate(890.474609 0)"/>
      <use xlink:href="#DejaVuSans-69" transform="translate(929.683594 0)"/>
      <use xlink:href="#DejaVuSans-76" transform="translate(957.466797 0)"/>
      <use xlink:href="#DejaVuSans-65" transform="translate(1016.646484 0)"/>
      <use xlink:href="#DejaVuSans-20" transform="translate(1078.169922 0)"/>
      <use xlink:href="#DejaVuSans-42" transform="translate(1109.957031 0)"/>
      <use xlink:href="#DejaVuSans-69" transform="translate(1178.560547 0)"/>
      <use xlink:href="#DejaVuSans-6e" transform="translate(1206.34375 0)"/>
      <use xlink:href="#DejaVuSans-6f" transform="translate(1269.722656 0)"/>
      <use xlink:href="#DejaVuSans-6d" transform="translate(1330.904297 0)"/>
      <use xlink:href="#DejaVuSans-69" transform="translate(1428.316406 0)"/>
      <use xlink:href="#DejaVuSans-61" transform="translate(1456.099609 0)"/>
      <use xlink:href="#DejaVuSans-6c" transform="translate(1517.378906 0)"/>
      <use xlink:href="#DejaVuSans-29" transform="translate(1545.162109 0)"/>
     </g>
    </g>
    <g id="line2d_28">
     <path d="M 383.993594 50.792031 
L 394.993594 50.792031 
L 405.993594 50.792031 
" style="fill: none; stroke-dasharray: 5.55,2.4; stroke-dashoffset: 0; stroke: #808080; stroke-opacity: 0.5; stroke-width: 1.5"/>
    </g>
    <g id="text_23">
     <!-- Reference line (x-axis) -->
     <g transform="translate(414.793594 54.642031) scale(0.11 -0.11)">
      <defs>
       <path id="DejaVuSans-78" d="M 3513 3500 
L 2247 1797 
L 3578 0 
L 2900 0 
L 1881 1375 
L 863 0 
L 184 0 
L 1544 1831 
L 300 3500 
L 978 3500 
L 1906 2253 
L 2834 3500 
L 3513 3500 
z
" transform="scale(0.015625)"/>
       <path id="DejaVuSans-2d" d="M 313 2009 
L 1997 2009 
L 1997 1497 
L 313 1497 
L 313 2009 
z
" transform="scale(0.015625)"/>
      </defs>
      <use xlink:href="#DejaVuSans-52"/>
      <use xlink:href="#DejaVuSans-65" transform="translate(64.982422 0)"/>
      <use xlink:href="#DejaVuSans-66" transform="translate(126.505859 0)"/>
      <use xlink:href="#DejaVuSans-65" transform="translate(161.710938 0)"/>
      <use xlink:href="#DejaVuSans-72" transform="translate(223.234375 0)"/>
      <use xlink:href="#DejaVuSans-65" transform="translate(262.097656 0)"/>
      <use xlink:href="#DejaVuSans-6e" transform="translate(323.621094 0)"/>
      <use xlink:href="#DejaVuSans-63" transform="translate(387 0)"/>
      <use xlink:href="#DejaVuSans-65" transform="translate(441.980469 0)"/>
      <use xlink:href="#DejaVuSans-20" transform="translate(503.503906 0)"/>
      <use xlink:href="#DejaVuSans-6c" transform="translate(535.291016 0)"/>
      <use xlink:href="#DejaVuSans-69" transform="translate(563.074219 0)"/>
      <use xlink:href="#DejaVuSans-6e" transform="translate(590.857422 0)"/>
      <use xlink:href="#DejaVuSans-65" transform="translate(654.236328 0)"/>
      <use xlink:href="#DejaVuSans-20" transform="translate(715.759766 0)"/>
      <use xlink:href="#DejaVuSans-28" transform="translate(747.546875 0)"/>
      <use xlink:href="#DejaVuSans-78" transform="translate(786.560547 0)"/>
      <use xlink:href="#DejaVuSans-2d" transform="translate(845.740234 0)"/>
      <use xlink:href="#DejaVuSans-61" transform="translate(881.824219 0)"/>
      <use xlink:href="#DejaVuSans-78" transform="translate(943.103516 0)"/>
      <use xlink:href="#DejaVuSans-69" transform="translate(1002.283203 0)"/>
      <use xlink:href="#DejaVuSans-73" transform="translate(1030.066406 0)"/>
      <use xlink:href="#DejaVuSans-29" transform="translate(1082.166016 0)"/>
     </g>
    </g>
   </g>
  </g>
 </g>
 <defs>
  <clipPath id="pd870df13cd">
   <rect x="40.955938" y="20.237812" width="558" height="443.52"/>
  </clipPath>
 </defs>
</svg>
