<?xml version="1.0" encoding="utf-8" standalone="no"?>
<!DOCTYPE svg PUBLIC "-//W3C//DTD SVG 1.1//EN"
  "http://www.w3.org/Graphics/SVG/1.1/DTD/svg11.dtd">
<svg xmlns:xlink="http://www.w3.org/1999/xlink" width="705.279375pt" height="560.769688pt" viewBox="0 0 705.279375 560.769688" xmlns="http://www.w3.org/2000/svg" version="1.1">
 <metadata>
  <rdf:RDF xmlns:dc="http://purl.org/dc/elements/1.1/" xmlns:cc="http://creativecommons.org/ns#" xmlns:rdf="http://www.w3.org/1999/02/22-rdf-syntax-ns#">
   <cc:Work>
    <dc:type rdf:resource="http://purl.org/dc/dcmitype/StillImage"/>
    <dc:date>2025-10-23T19:03:37.785852</dc:date>
    <dc:format>image/svg+xml</dc:format>
    <dc:creator>
     <cc:Agent>
      <dc:title>Matplotlib v3.10.7, https://matplotlib.org/</dc:title>
     </cc:Agent>
    </dc:creator>
   </cc:Work>
  </rdf:RDF>
 </metadata>
 <defs>
  <style type="text/css">*{stroke-linejoin: round; stroke-linecap: butt}</style>
 </defs>
 <g id="figure_1">
  <g id="patch_1">
   <path d="M 0 560.769688 
L 705.279375 560.769688 
L 705.279375 0 
L 0 0 
L 0 560.769688 
z
" style="fill: none"/>
  </g>
  <g id="axes_1">
   <g id="patch_2">
    <path d="M 48.479375 524.877813 
L 701.679375 524.877813 
L 701.679375 20.237812 
L 48.479375 20.237812 
L 48.479375 524.877813 
z
" style="fill: none"/>
   </g>
   <g id="patch_3">
    <path d="M 82.858322 524.877813 
L 89.10904 524.877813 
L 89.10904 500.847336 
L 82.858322 500.847336 
z
" clip-path="url(#p93fe338cdf)" style="opacity: 0.5"/>
   </g>
   <g id="patch_4">
    <path d="M 106.298514 524.877813 
L 112.549231 524.877813 
L 112.549231 500.847336 
L 106.298514 500.847336 
z
" clip-path="url(#p93fe338cdf)" style="opacity: 0.5"/>
   </g>
   <g id="patch_5">
    <path d="M 114.111911 524.877813 
L 120.362629 524.877813 
L 120.362629 500.847336 
L 114.111911 500.847336 
z
" clip-path="url(#p93fe338cdf)" style="opacity: 0.5"/>
   </g>
   <g id="patch_6">
    <path d="M 121.925308 524.877813 
L 128.176026 524.877813 
L 128.176026 500.847336 
L 121.925308 500.847336 
z
" clip-path="url(#p93fe338cdf)" style="opacity: 0.5"/>
   </g>
   <g id="patch_7">
    <path d="M 129.738705 524.877813 
L 135.989423 524.877813 
L 135.989423 476.81686 
L 129.738705 476.81686 
z
" clip-path="url(#p93fe338cdf)" style="opacity: 0.5"/>
   </g>
   <g id="patch_8">
    <path d="M 137.552102 524.877813 
L 143.80282 524.877813 
L 143.80282 380.694955 
L 137.552102 380.694955 
z
" clip-path="url(#p93fe338cdf)" style="opacity: 0.5"/>
   </g>
   <g id="patch_9">
    <path d="M 145.365499 524.877813 
L 151.616217 524.877813 
L 151.616217 380.694955 
L 145.365499 380.694955 
z
" clip-path="url(#p93fe338cdf)" style="opacity: 0.5"/>
   </g>
   <g id="patch_10">
    <path d="M 153.178897 524.877813 
L 159.429614 524.877813 
L 159.429614 332.634003 
L 153.178897 332.634003 
z
" clip-path="url(#p93fe338cdf)" style="opacity: 0.5"/>
   </g>
   <g id="patch_11">
    <path d="M 160.992294 524.877813 
L 167.243011 524.877813 
L 167.243011 284.573051 
L 160.992294 284.573051 
z
" clip-path="url(#p93fe338cdf)" style="opacity: 0.5"/>
   </g>
   <g id="patch_12">
    <path d="M 168.805691 524.877813 
L 175.056408 524.877813 
L 175.056408 308.603527 
L 168.805691 308.603527 
z
" clip-path="url(#p93fe338cdf)" style="opacity: 0.5"/>
   </g>
   <g id="patch_13">
    <path d="M 176.619088 524.877813 
L 182.869806 524.877813 
L 182.869806 356.664479 
L 176.619088 356.664479 
z
" clip-path="url(#p93fe338cdf)" style="opacity: 0.5"/>
   </g>
   <g id="patch_14">
    <path d="M 184.432485 524.877813 
L 190.683203 524.877813 
L 190.683203 212.481622 
L 184.432485 212.481622 
z
" clip-path="url(#p93fe338cdf)" style="opacity: 0.5"/>
   </g>
   <g id="patch_15">
    <path d="M 192.245882 524.877813 
L 198.4966 524.877813 
L 198.4966 236.512098 
L 192.245882 236.512098 
z
" clip-path="url(#p93fe338cdf)" style="opacity: 0.5"/>
   </g>
   <g id="patch_16">
    <path d="M 200.059279 524.877813 
L 206.309997 524.877813 
L 206.309997 260.542574 
L 200.059279 260.542574 
z
" clip-path="url(#p93fe338cdf)" style="opacity: 0.5"/>
   </g>
   <g id="patch_17">
    <path d="M 207.872676 524.877813 
L 214.123394 524.877813 
L 214.123394 284.573051 
L 207.872676 284.573051 
z
" clip-path="url(#p93fe338cdf)" style="opacity: 0.5"/>
   </g>
   <g id="patch_18">
    <path d="M 215.686074 524.877813 
L 221.936791 524.877813 
L 221.936791 212.481622 
L 215.686074 212.481622 
z
" clip-path="url(#p93fe338cdf)" style="opacity: 0.5"/>
   </g>
   <g id="patch_19">
    <path d="M 223.499471 524.877813 
L 229.750188 524.877813 
L 229.750188 260.542574 
L 223.499471 260.542574 
z
" clip-path="url(#p93fe338cdf)" style="opacity: 0.5"/>
   </g>
   <g id="patch_20">
    <path d="M 231.312868 524.877813 
L 237.563586 524.877813 
L 237.563586 44.268289 
L 231.312868 44.268289 
z
" clip-path="url(#p93fe338cdf)" style="opacity: 0.5"/>
   </g>
   <g id="patch_21">
    <path d="M 239.126265 524.877813 
L 245.376983 524.877813 
L 245.376983 308.603527 
L 239.126265 308.603527 
z
" clip-path="url(#p93fe338cdf)" style="opacity: 0.5"/>
   </g>
   <g id="patch_22">
    <path d="M 246.939662 524.877813 
L 253.19038 524.877813 
L 253.19038 356.664479 
L 246.939662 356.664479 
z
" clip-path="url(#p93fe338cdf)" style="opacity: 0.5"/>
   </g>
   <g id="patch_23">
    <path d="M 254.753059 524.877813 
L 261.003777 524.877813 
L 261.003777 284.573051 
L 254.753059 284.573051 
z
" clip-path="url(#p93fe338cdf)" style="opacity: 0.5"/>
   </g>
   <g id="patch_24">
    <path d="M 262.566456 524.877813 
L 268.817174 524.877813 
L 268.817174 212.481622 
L 262.566456 212.481622 
z
" clip-path="url(#p93fe338cdf)" style="opacity: 0.5"/>
   </g>
   <g id="patch_25">
    <path d="M 270.379853 524.877813 
L 276.630571 524.877813 
L 276.630571 164.42067 
L 270.379853 164.42067 
z
" clip-path="url(#p93fe338cdf)" style="opacity: 0.5"/>
   </g>
   <g id="patch_26">
    <path d="M 278.193251 524.877813 
L 284.443968 524.877813 
L 284.443968 164.42067 
L 278.193251 164.42067 
z
" clip-path="url(#p93fe338cdf)" style="opacity: 0.5"/>
   </g>
   <g id="patch_27">
    <path d="M 286.006648 524.877813 
L 292.257365 524.877813 
L 292.257365 44.268289 
L 286.006648 44.268289 
z
" clip-path="url(#p93fe338cdf)" style="opacity: 0.5"/>
   </g>
   <g id="patch_28">
    <path d="M 293.820045 524.877813 
L 300.070763 524.877813 
L 300.070763 44.268289 
L 293.820045 44.268289 
z
" clip-path="url(#p93fe338cdf)" style="opacity: 0.5"/>
   </g>
   <g id="patch_29">
    <path d="M 301.633442 524.877813 
L 307.88416 524.877813 
L 307.88416 260.542574 
L 301.633442 260.542574 
z
" clip-path="url(#p93fe338cdf)" style="opacity: 0.5"/>
   </g>
   <g id="patch_30">
    <path d="M 309.446839 524.877813 
L 315.697557 524.877813 
L 315.697557 260.542574 
L 309.446839 260.542574 
z
" clip-path="url(#p93fe338cdf)" style="opacity: 0.5"/>
   </g>
   <g id="patch_31">
    <path d="M 317.260236 524.877813 
L 323.510954 524.877813 
L 323.510954 188.451146 
L 317.260236 188.451146 
z
" clip-path="url(#p93fe338cdf)" style="opacity: 0.5"/>
   </g>
   <g id="patch_32">
    <path d="M 325.073633 524.877813 
L 331.324351 524.877813 
L 331.324351 356.664479 
L 325.073633 356.664479 
z
" clip-path="url(#p93fe338cdf)" style="opacity: 0.5"/>
   </g>
   <g id="patch_33">
    <path d="M 332.887031 524.877813 
L 339.137748 524.877813 
L 339.137748 188.451146 
L 332.887031 188.451146 
z
" clip-path="url(#p93fe338cdf)" style="opacity: 0.5"/>
   </g>
   <g id="patch_34">
    <path d="M 340.700428 524.877813 
L 346.951145 524.877813 
L 346.951145 140.390193 
L 340.700428 140.390193 
z
" clip-path="url(#p93fe338cdf)" style="opacity: 0.5"/>
   </g>
   <g id="patch_35">
    <path d="M 348.513825 524.877813 
L 354.764542 524.877813 
L 354.764542 236.512098 
L 348.513825 236.512098 
z
" clip-path="url(#p93fe338cdf)" style="opacity: 0.5"/>
   </g>
   <g id="patch_36">
    <path d="M 356.327222 524.877813 
L 362.57794 524.877813 
L 362.57794 116.359717 
L 356.327222 116.359717 
z
" clip-path="url(#p93fe338cdf)" style="opacity: 0.5"/>
   </g>
   <g id="patch_37">
    <path d="M 364.140619 524.877813 
L 370.391337 524.877813 
L 370.391337 332.634003 
L 364.140619 332.634003 
z
" clip-path="url(#p93fe338cdf)" style="opacity: 0.5"/>
   </g>
   <g id="patch_38">
    <path d="M 371.954016 524.877813 
L 378.204734 524.877813 
L 378.204734 212.481622 
L 371.954016 212.481622 
z
" clip-path="url(#p93fe338cdf)" style="opacity: 0.5"/>
   </g>
   <g id="patch_39">
    <path d="M 379.767413 524.877813 
L 386.018131 524.877813 
L 386.018131 212.481622 
L 379.767413 212.481622 
z
" clip-path="url(#p93fe338cdf)" style="opacity: 0.5"/>
   </g>
   <g id="patch_40">
    <path d="M 387.58081 524.877813 
L 393.831528 524.877813 
L 393.831528 332.634003 
L 387.58081 332.634003 
z
" clip-path="url(#p93fe338cdf)" style="opacity: 0.5"/>
   </g>
   <g id="patch_41">
    <path d="M 395.394208 524.877813 
L 401.644925 524.877813 
L 401.644925 332.634003 
L 395.394208 332.634003 
z
" clip-path="url(#p93fe338cdf)" style="opacity: 0.5"/>
   </g>
   <g id="patch_42">
    <path d="M 403.207605 524.877813 
L 409.458322 524.877813 
L 409.458322 284.573051 
L 403.207605 284.573051 
z
" clip-path="url(#p93fe338cdf)" style="opacity: 0.5"/>
   </g>
   <g id="patch_43">
    <path d="M 411.021002 524.877813 
L 417.271719 524.877813 
L 417.271719 140.390193 
L 411.021002 140.390193 
z
" clip-path="url(#p93fe338cdf)" style="opacity: 0.5"/>
   </g>
   <g id="patch_44">
    <path d="M 418.834399 524.877813 
L 425.085117 524.877813 
L 425.085117 332.634003 
L 418.834399 332.634003 
z
" clip-path="url(#p93fe338cdf)" style="opacity: 0.5"/>
   </g>
   <g id="patch_45">
    <path d="M 426.647796 524.877813 
L 432.898514 524.877813 
L 432.898514 284.573051 
L 426.647796 284.573051 
z
" clip-path="url(#p93fe338cdf)" style="opacity: 0.5"/>
   </g>
   <g id="patch_46">
    <path d="M 434.461193 524.877813 
L 440.711911 524.877813 
L 440.711911 452.786384 
L 434.461193 452.786384 
z
" clip-path="url(#p93fe338cdf)" style="opacity: 0.5"/>
   </g>
   <g id="patch_47">
    <path d="M 442.27459 524.877813 
L 448.525308 524.877813 
L 448.525308 404.725432 
L 442.27459 404.725432 
z
" clip-path="url(#p93fe338cdf)" style="opacity: 0.5"/>
   </g>
   <g id="patch_48">
    <path d="M 450.087987 524.877813 
L 456.338705 524.877813 
L 456.338705 476.81686 
L 450.087987 476.81686 
z
" clip-path="url(#p93fe338cdf)" style="opacity: 0.5"/>
   </g>
   <g id="patch_49">
    <path d="M 457.901385 524.877813 
L 464.152102 524.877813 
L 464.152102 380.694955 
L 457.901385 380.694955 
z
" clip-path="url(#p93fe338cdf)" style="opacity: 0.5"/>
   </g>
   <g id="patch_50">
    <path d="M 465.714782 524.877813 
L 471.965499 524.877813 
L 471.965499 452.786384 
L 465.714782 452.786384 
z
" clip-path="url(#p93fe338cdf)" style="opacity: 0.5"/>
   </g>
   <g id="patch_51">
    <path d="M 473.528179 524.877813 
L 479.778897 524.877813 
L 479.778897 452.786384 
L 473.528179 452.786384 
z
" clip-path="url(#p93fe338cdf)" style="opacity: 0.5"/>
   </g>
   <g id="patch_52">
    <path d="M 481.341576 524.877813 
L 487.592294 524.877813 
L 487.592294 452.786384 
L 481.341576 452.786384 
z
" clip-path="url(#p93fe338cdf)" style="opacity: 0.5"/>
   </g>
   <g id="patch_53">
    <path d="M 489.154973 524.877813 
L 495.405691 524.877813 
L 495.405691 452.786384 
L 489.154973 452.786384 
z
" clip-path="url(#p93fe338cdf)" style="opacity: 0.5"/>
   </g>
   <g id="patch_54">
    <path d="M 496.96837 524.877813 
L 503.219088 524.877813 
L 503.219088 452.786384 
L 496.96837 452.786384 
z
" clip-path="url(#p93fe338cdf)" style="opacity: 0.5"/>
   </g>
   <g id="patch_55">
    <path d="M 504.781767 524.877813 
L 511.032485 524.877813 
L 511.032485 476.81686 
L 504.781767 476.81686 
z
" clip-path="url(#p93fe338cdf)" style="opacity: 0.5"/>
   </g>
   <g id="patch_56">
    <path d="M 512.595164 524.877813 
L 518.845882 524.877813 
L 518.845882 428.755908 
L 512.595164 428.755908 
z
" clip-path="url(#p93fe338cdf)" style="opacity: 0.5"/>
   </g>
   <g id="patch_57">
    <path d="M 520.408562 524.877813 
L 526.659279 524.877813 
L 526.659279 500.847336 
L 520.408562 500.847336 
z
" clip-path="url(#p93fe338cdf)" style="opacity: 0.5"/>
   </g>
   <g id="patch_58">
    <path d="M 528.221959 524.877813 
L 534.472676 524.877813 
L 534.472676 476.81686 
L 528.221959 476.81686 
z
" clip-path="url(#p93fe338cdf)" style="opacity: 0.5"/>
   </g>
   <g id="patch_59">
    <path d="M 543.848753 524.877813 
L 550.099471 524.877813 
L 550.099471 500.847336 
L 543.848753 500.847336 
z
" clip-path="url(#p93fe338cdf)" style="opacity: 0.5"/>
   </g>
   <g id="patch_60">
    <path d="M 551.66215 524.877813 
L 557.912868 524.877813 
L 557.912868 476.81686 
L 551.66215 476.81686 
z
" clip-path="url(#p93fe338cdf)" style="opacity: 0.5"/>
   </g>
   <g id="patch_61">
    <path d="M 575.102342 524.877813 
L 581.353059 524.877813 
L 581.353059 500.847336 
L 575.102342 500.847336 
z
" clip-path="url(#p93fe338cdf)" style="opacity: 0.5"/>
   </g>
   <g id="patch_62">
    <path d="M 582.915739 524.877813 
L 589.166456 524.877813 
L 589.166456 476.81686 
L 582.915739 476.81686 
z
" clip-path="url(#p93fe338cdf)" style="opacity: 0.5"/>
   </g>
   <g id="patch_63">
    <path d="M 598.542533 524.877813 
L 604.793251 524.877813 
L 604.793251 500.847336 
L 598.542533 500.847336 
z
" clip-path="url(#p93fe338cdf)" style="opacity: 0.5"/>
   </g>
   <g id="patch_64">
    <path d="M 621.982724 524.877813 
L 628.233442 524.877813 
L 628.233442 500.847336 
L 621.982724 500.847336 
z
" clip-path="url(#p93fe338cdf)" style="opacity: 0.5"/>
   </g>
   <g id="patch_65">
    <path d="M 629.796121 524.877813 
L 636.046839 524.877813 
L 636.046839 476.81686 
L 629.796121 476.81686 
z
" clip-path="url(#p93fe338cdf)" style="opacity: 0.5"/>
   </g>
   <g id="patch_66">
    <path d="M 637.609519 524.877813 
L 643.860236 524.877813 
L 643.860236 500.847336 
L 637.609519 500.847336 
z
" clip-path="url(#p93fe338cdf)" style="opacity: 0.5"/>
   </g>
   <g id="patch_67">
    <path d="M 645.422916 524.877813 
L 651.673633 524.877813 
L 651.673633 500.847336 
L 645.422916 500.847336 
z
" clip-path="url(#p93fe338cdf)" style="opacity: 0.5"/>
   </g>
   <g id="patch_68">
    <path d="M 661.04971 524.877813 
L 667.300428 524.877813 
L 667.300428 500.847336 
L 661.04971 500.847336 
z
" clip-path="url(#p93fe338cdf)" style="opacity: 0.5"/>
   </g>
   <g id="matplotlib.axis_1">
    <g id="xtick_1">
     <g id="line2d_1">
      <defs>
       <path id="mb31eb593cd" d="M 0 0 
L 0 3.5 
" style="stroke: #000000; stroke-width: 0.8"/>
      </defs>
      <g>
       <use xlink:href="#mb31eb593cd" x="78.170284" y="524.877813" style="stroke: #000000; stroke-width: 0.8"/>
      </g>
     </g>
     <g id="text_1">
      <!-- 1 -->
      <g transform="translate(74.989034 539.47625) scale(0.1 -0.1)">
       <defs>
        <path id="DejaVuSans-31" d="M 794 531 
L 1825 531 
L 1825 4091 
L 703 3866 
L 703 4441 
L 1819 4666 
L 2450 4666 
L 2450 531 
L 3481 531 
L 3481 0 
L 794 0 
L 794 531 
z
" transform="scale(0.015625)"/>
       </defs>
       <use xlink:href="#DejaVuSans-31"/>
      </g>
     </g>
    </g>
    <g id="xtick_2">
     <g id="line2d_2">
      <g>
       <use xlink:href="#mb31eb593cd" x="101.610475" y="524.877813" style="stroke: #000000; stroke-width: 0.8"/>
      </g>
     </g>
     <g id="text_2">
      <!-- 4 -->
      <g transform="translate(98.429225 539.47625) scale(0.1 -0.1)">
       <defs>
        <path id="DejaVuSans-34" d="M 2419 4116 
L 825 1625 
L 2419 1625 
L 2419 4116 
z
M 2253 4666 
L 3047 4666 
L 3047 1625 
L 3713 1625 
L 3713 1100 
L 3047 1100 
L 3047 0 
L 2419 0 
L 2419 1100 
L 313 1100 
L 313 1709 
L 2253 4666 
z
" transform="scale(0.015625)"/>
       </defs>
       <use xlink:href="#DejaVuSans-34"/>
      </g>
     </g>
    </g>
    <g id="xtick_3">
     <g id="line2d_3">
      <g>
       <use xlink:href="#mb31eb593cd" x="125.050667" y="524.877813" style="stroke: #000000; stroke-width: 0.8"/>
      </g>
     </g>
     <g id="text_3">
      <!-- 7 -->
      <g transform="translate(121.869417 539.47625) scale(0.1 -0.1)">
       <defs>
        <path id="DejaVuSans-37" d="M 525 4666 
L 3525 4666 
L 3525 4397 
L 1831 0 
L 1172 0 
L 2766 4134 
L 525 4134 
L 525 4666 
z
" transform="scale(0.015625)"/>
       </defs>
       <use xlink:href="#DejaVuSans-37"/>
      </g>
     </g>
    </g>
    <g id="xtick_4">
     <g id="line2d_4">
      <g>
       <use xlink:href="#mb31eb593cd" x="148.490858" y="524.877813" style="stroke: #000000; stroke-width: 0.8"/>
      </g>
     </g>
     <g id="text_4">
      <!-- 10 -->
      <g transform="translate(142.128358 539.47625) scale(0.1 -0.1)">
       <defs>
        <path id="DejaVuSans-30" d="M 2034 4250 
Q 1547 4250 1301 3770 
Q 1056 3291 1056 2328 
Q 1056 1369 1301 889 
Q 1547 409 2034 409 
Q 2525 409 2770 889 
Q 3016 1369 3016 2328 
Q 3016 3291 2770 3770 
Q 2525 4250 2034 4250 
z
M 2034 4750 
Q 2819 4750 3233 4129 
Q 3647 3509 3647 2328 
Q 3647 1150 3233 529 
Q 2819 -91 2034 -91 
Q 1250 -91 836 529 
Q 422 1150 422 2328 
Q 422 3509 836 4129 
Q 1250 4750 2034 4750 
z
" transform="scale(0.015625)"/>
       </defs>
       <use xlink:href="#DejaVuSans-31"/>
       <use xlink:href="#DejaVuSans-30" transform="translate(63.623047 0)"/>
      </g>
     </g>
    </g>
    <g id="xtick_5">
     <g id="line2d_5">
      <g>
       <use xlink:href="#mb31eb593cd" x="171.93105" y="524.877813" style="stroke: #000000; stroke-width: 0.8"/>
      </g>
     </g>
     <g id="text_5">
      <!-- 13 -->
      <g transform="translate(165.56855 539.47625) scale(0.1 -0.1)">
       <defs>
        <path id="DejaVuSans-33" d="M 2597 2516 
Q 3050 2419 3304 2112 
Q 3559 1806 3559 1356 
Q 3559 666 3084 287 
Q 2609 -91 1734 -91 
Q 1441 -91 1130 -33 
Q 819 25 488 141 
L 488 750 
Q 750 597 1062 519 
Q 1375 441 1716 441 
Q 2309 441 2620 675 
Q 2931 909 2931 1356 
Q 2931 1769 2642 2001 
Q 2353 2234 1838 2234 
L 1294 2234 
L 1294 2753 
L 1863 2753 
Q 2328 2753 2575 2939 
Q 2822 3125 2822 3475 
Q 2822 3834 2567 4026 
Q 2313 4219 1838 4219 
Q 1578 4219 1281 4162 
Q 984 4106 628 3988 
L 628 4550 
Q 988 4650 1302 4700 
Q 1616 4750 1894 4750 
Q 2613 4750 3031 4423 
Q 3450 4097 3450 3541 
Q 3450 3153 3228 2886 
Q 3006 2619 2597 2516 
z
" transform="scale(0.015625)"/>
       </defs>
       <use xlink:href="#DejaVuSans-31"/>
       <use xlink:href="#DejaVuSans-33" transform="translate(63.623047 0)"/>
      </g>
     </g>
    </g>
    <g id="xtick_6">
     <g id="line2d_6">
      <g>
       <use xlink:href="#mb31eb593cd" x="195.371241" y="524.877813" style="stroke: #000000; stroke-width: 0.8"/>
      </g>
     </g>
     <g id="text_6">
      <!-- 16 -->
      <g transform="translate(189.008741 539.47625) scale(0.1 -0.1)">
       <defs>
        <path id="DejaVuSans-36" d="M 2113 2584 
Q 1688 2584 1439 2293 
Q 1191 2003 1191 1497 
Q 1191 994 1439 701 
Q 1688 409 2113 409 
Q 2538 409 2786 701 
Q 3034 994 3034 1497 
Q 3034 2003 2786 2293 
Q 2538 2584 2113 2584 
z
M 3366 4563 
L 3366 3988 
Q 3128 4100 2886 4159 
Q 2644 4219 2406 4219 
Q 1781 4219 1451 3797 
Q 1122 3375 1075 2522 
Q 1259 2794 1537 2939 
Q 1816 3084 2150 3084 
Q 2853 3084 3261 2657 
Q 3669 2231 3669 1497 
Q 3669 778 3244 343 
Q 2819 -91 2113 -91 
Q 1303 -91 875 529 
Q 447 1150 447 2328 
Q 447 3434 972 4092 
Q 1497 4750 2381 4750 
Q 2619 4750 2861 4703 
Q 3103 4656 3366 4563 
z
" transform="scale(0.015625)"/>
       </defs>
       <use xlink:href="#DejaVuSans-31"/>
       <use xlink:href="#DejaVuSans-36" transform="translate(63.623047 0)"/>
      </g>
     </g>
    </g>
    <g id="xtick_7">
     <g id="line2d_7">
      <g>
       <use xlink:href="#mb31eb593cd" x="218.811432" y="524.877813" style="stroke: #000000; stroke-width: 0.8"/>
      </g>
     </g>
     <g id="text_7">
      <!-- 19 -->
      <g transform="translate(212.448932 539.47625) scale(0.1 -0.1)">
       <defs>
        <path id="DejaVuSans-39" d="M 703 97 
L 703 672 
Q 941 559 1184 500 
Q 1428 441 1663 441 
Q 2288 441 2617 861 
Q 2947 1281 2994 2138 
Q 2813 1869 2534 1725 
Q 2256 1581 1919 1581 
Q 1219 1581 811 2004 
Q 403 2428 403 3163 
Q 403 3881 828 4315 
Q 1253 4750 1959 4750 
Q 2769 4750 3195 4129 
Q 3622 3509 3622 2328 
Q 3622 1225 3098 567 
Q 2575 -91 1691 -91 
Q 1453 -91 1209 -44 
Q 966 3 703 97 
z
M 1959 2075 
Q 2384 2075 2632 2365 
Q 2881 2656 2881 3163 
Q 2881 3666 2632 3958 
Q 2384 4250 1959 4250 
Q 1534 4250 1286 3958 
Q 1038 3666 1038 3163 
Q 1038 2656 1286 2365 
Q 1534 2075 1959 2075 
z
" transform="scale(0.015625)"/>
       </defs>
       <use xlink:href="#DejaVuSans-31"/>
       <use xlink:href="#DejaVuSans-39" transform="translate(63.623047 0)"/>
      </g>
     </g>
    </g>
    <g id="xtick_8">
     <g id="line2d_8">
      <g>
       <use xlink:href="#mb31eb593cd" x="242.251624" y="524.877813" style="stroke: #000000; stroke-width: 0.8"/>
      </g>
     </g>
     <g id="text_8">
      <!-- 22 -->
      <g transform="translate(235.889124 539.47625) scale(0.1 -0.1)">
       <defs>
        <path id="DejaVuSans-32" d="M 1228 531 
L 3431 531 
L 3431 0 
L 469 0 
L 469 531 
Q 828 903 1448 1529 
Q 2069 2156 2228 2338 
Q 2531 2678 2651 2914 
Q 2772 3150 2772 3378 
Q 2772 3750 2511 3984 
Q 2250 4219 1831 4219 
Q 1534 4219 1204 4116 
Q 875 4013 500 3803 
L 500 4441 
Q 881 4594 1212 4672 
Q 1544 4750 1819 4750 
Q 2544 4750 2975 4387 
Q 3406 4025 3406 3419 
Q 3406 3131 3298 2873 
Q 3191 2616 2906 2266 
Q 2828 2175 2409 1742 
Q 1991 1309 1228 531 
z
" transform="scale(0.015625)"/>
       </defs>
       <use xlink:href="#DejaVuSans-32"/>
       <use xlink:href="#DejaVuSans-32" transform="translate(63.623047 0)"/>
      </g>
     </g>
    </g>
    <g id="xtick_9">
     <g id="line2d_9">
      <g>
       <use xlink:href="#mb31eb593cd" x="265.691815" y="524.877813" style="stroke: #000000; stroke-width: 0.8"/>
      </g>
     </g>
     <g id="text_9">
      <!-- 25 -->
      <g transform="translate(259.329315 539.47625) scale(0.1 -0.1)">
       <defs>
        <path id="DejaVuSans-35" d="M 691 4666 
L 3169 4666 
L 3169 4134 
L 1269 4134 
L 1269 2991 
Q 1406 3038 1543 3061 
Q 1681 3084 1819 3084 
Q 2600 3084 3056 2656 
Q 3513 2228 3513 1497 
Q 3513 744 3044 326 
Q 2575 -91 1722 -91 
Q 1428 -91 1123 -41 
Q 819 9 494 109 
L 494 744 
Q 775 591 1075 516 
Q 1375 441 1709 441 
Q 2250 441 2565 725 
Q 2881 1009 2881 1497 
Q 2881 1984 2565 2268 
Q 2250 2553 1709 2553 
Q 1456 2553 1204 2497 
Q 953 2441 691 2322 
L 691 4666 
z
" transform="scale(0.015625)"/>
       </defs>
       <use xlink:href="#DejaVuSans-32"/>
       <use xlink:href="#DejaVuSans-35" transform="translate(63.623047 0)"/>
      </g>
     </g>
    </g>
    <g id="xtick_10">
     <g id="line2d_10">
      <g>
       <use xlink:href="#mb31eb593cd" x="289.132007" y="524.877813" style="stroke: #000000; stroke-width: 0.8"/>
      </g>
     </g>
     <g id="text_10">
      <!-- 28 -->
      <g transform="translate(282.769507 539.47625) scale(0.1 -0.1)">
       <defs>
        <path id="DejaVuSans-38" d="M 2034 2216 
Q 1584 2216 1326 1975 
Q 1069 1734 1069 1313 
Q 1069 891 1326 650 
Q 1584 409 2034 409 
Q 2484 409 2743 651 
Q 3003 894 3003 1313 
Q 3003 1734 2745 1975 
Q 2488 2216 2034 2216 
z
M 1403 2484 
Q 997 2584 770 2862 
Q 544 3141 544 3541 
Q 544 4100 942 4425 
Q 1341 4750 2034 4750 
Q 2731 4750 3128 4425 
Q 3525 4100 3525 3541 
Q 3525 3141 3298 2862 
Q 3072 2584 2669 2484 
Q 3125 2378 3379 2068 
Q 3634 1759 3634 1313 
Q 3634 634 3220 271 
Q 2806 -91 2034 -91 
Q 1263 -91 848 271 
Q 434 634 434 1313 
Q 434 1759 690 2068 
Q 947 2378 1403 2484 
z
M 1172 3481 
Q 1172 3119 1398 2916 
Q 1625 2713 2034 2713 
Q 2441 2713 2670 2916 
Q 2900 3119 2900 3481 
Q 2900 3844 2670 4047 
Q 2441 4250 2034 4250 
Q 1625 4250 1398 4047 
Q 1172 3844 1172 3481 
z
" transform="scale(0.015625)"/>
       </defs>
       <use xlink:href="#DejaVuSans-32"/>
       <use xlink:href="#DejaVuSans-38" transform="translate(63.623047 0)"/>
      </g>
     </g>
    </g>
    <g id="xtick_11">
     <g id="line2d_11">
      <g>
       <use xlink:href="#mb31eb593cd" x="312.572198" y="524.877813" style="stroke: #000000; stroke-width: 0.8"/>
      </g>
     </g>
     <g id="text_11">
      <!-- 31 -->
      <g transform="translate(306.209698 539.47625) scale(0.1 -0.1)">
       <use xlink:href="#DejaVuSans-33"/>
       <use xlink:href="#DejaVuSans-31" transform="translate(63.623047 0)"/>
      </g>
     </g>
    </g>
    <g id="xtick_12">
     <g id="line2d_12">
      <g>
       <use xlink:href="#mb31eb593cd" x="336.012389" y="524.877813" style="stroke: #000000; stroke-width: 0.8"/>
      </g>
     </g>
     <g id="text_12">
      <!-- 34 -->
      <g transform="translate(329.649889 539.47625) scale(0.1 -0.1)">
       <use xlink:href="#DejaVuSans-33"/>
       <use xlink:href="#DejaVuSans-34" transform="translate(63.623047 0)"/>
      </g>
     </g>
    </g>
    <g id="xtick_13">
     <g id="line2d_13">
      <g>
       <use xlink:href="#mb31eb593cd" x="359.452581" y="524.877813" style="stroke: #000000; stroke-width: 0.8"/>
      </g>
     </g>
     <g id="text_13">
      <!-- 37 -->
      <g transform="translate(353.090081 539.47625) scale(0.1 -0.1)">
       <use xlink:href="#DejaVuSans-33"/>
       <use xlink:href="#DejaVuSans-37" transform="translate(63.623047 0)"/>
      </g>
     </g>
    </g>
    <g id="xtick_14">
     <g id="line2d_14">
      <g>
       <use xlink:href="#mb31eb593cd" x="382.892772" y="524.877813" style="stroke: #000000; stroke-width: 0.8"/>
      </g>
     </g>
     <g id="text_14">
      <!-- 40 -->
      <g transform="translate(376.530272 539.47625) scale(0.1 -0.1)">
       <use xlink:href="#DejaVuSans-34"/>
       <use xlink:href="#DejaVuSans-30" transform="translate(63.623047 0)"/>
      </g>
     </g>
    </g>
    <g id="xtick_15">
     <g id="line2d_15">
      <g>
       <use xlink:href="#mb31eb593cd" x="406.332964" y="524.877813" style="stroke: #000000; stroke-width: 0.8"/>
      </g>
     </g>
     <g id="text_15">
      <!-- 43 -->
      <g transform="translate(399.970464 539.47625) scale(0.1 -0.1)">
       <use xlink:href="#DejaVuSans-34"/>
       <use xlink:href="#DejaVuSans-33" transform="translate(63.623047 0)"/>
      </g>
     </g>
    </g>
    <g id="xtick_16">
     <g id="line2d_16">
      <g>
       <use xlink:href="#mb31eb593cd" x="429.773155" y="524.877813" style="stroke: #000000; stroke-width: 0.8"/>
      </g>
     </g>
     <g id="text_16">
      <!-- 46 -->
      <g transform="translate(423.410655 539.47625) scale(0.1 -0.1)">
       <use xlink:href="#DejaVuSans-34"/>
       <use xlink:href="#DejaVuSans-36" transform="translate(63.623047 0)"/>
      </g>
     </g>
    </g>
    <g id="xtick_17">
     <g id="line2d_17">
      <g>
       <use xlink:href="#mb31eb593cd" x="453.213346" y="524.877813" style="stroke: #000000; stroke-width: 0.8"/>
      </g>
     </g>
     <g id="text_17">
      <!-- 49 -->
      <g transform="translate(446.850846 539.47625) scale(0.1 -0.1)">
       <use xlink:href="#DejaVuSans-34"/>
       <use xlink:href="#DejaVuSans-39" transform="translate(63.623047 0)"/>
      </g>
     </g>
    </g>
    <g id="xtick_18">
     <g id="line2d_18">
      <g>
       <use xlink:href="#mb31eb593cd" x="476.653538" y="524.877813" style="stroke: #000000; stroke-width: 0.8"/>
      </g>
     </g>
     <g id="text_18">
      <!-- 52 -->
      <g transform="translate(470.291038 539.47625) scale(0.1 -0.1)">
       <use xlink:href="#DejaVuSans-35"/>
       <use xlink:href="#DejaVuSans-32" transform="translate(63.623047 0)"/>
      </g>
     </g>
    </g>
    <g id="xtick_19">
     <g id="line2d_19">
      <g>
       <use xlink:href="#mb31eb593cd" x="500.093729" y="524.877813" style="stroke: #000000; stroke-width: 0.8"/>
      </g>
     </g>
     <g id="text_19">
      <!-- 55 -->
      <g transform="translate(493.731229 539.47625) scale(0.1 -0.1)">
       <use xlink:href="#DejaVuSans-35"/>
       <use xlink:href="#DejaVuSans-35" transform="translate(63.623047 0)"/>
      </g>
     </g>
    </g>
    <g id="xtick_20">
     <g id="line2d_20">
      <g>
       <use xlink:href="#mb31eb593cd" x="523.53392" y="524.877813" style="stroke: #000000; stroke-width: 0.8"/>
      </g>
     </g>
     <g id="text_20">
      <!-- 58 -->
      <g transform="translate(517.17142 539.47625) scale(0.1 -0.1)">
       <use xlink:href="#DejaVuSans-35"/>
       <use xlink:href="#DejaVuSans-38" transform="translate(63.623047 0)"/>
      </g>
     </g>
    </g>
    <g id="xtick_21">
     <g id="line2d_21">
      <g>
       <use xlink:href="#mb31eb593cd" x="546.974112" y="524.877813" style="stroke: #000000; stroke-width: 0.8"/>
      </g>
     </g>
     <g id="text_21">
      <!-- 61 -->
      <g transform="translate(540.611612 539.47625) scale(0.1 -0.1)">
       <use xlink:href="#DejaVuSans-36"/>
       <use xlink:href="#DejaVuSans-31" transform="translate(63.623047 0)"/>
      </g>
     </g>
    </g>
    <g id="xtick_22">
     <g id="line2d_22">
      <g>
       <use xlink:href="#mb31eb593cd" x="570.414303" y="524.877813" style="stroke: #000000; stroke-width: 0.8"/>
      </g>
     </g>
     <g id="text_22">
      <!-- 64 -->
      <g transform="translate(564.051803 539.47625) scale(0.1 -0.1)">
       <use xlink:href="#DejaVuSans-36"/>
       <use xlink:href="#DejaVuSans-34" transform="translate(63.623047 0)"/>
      </g>
     </g>
    </g>
    <g id="xtick_23">
     <g id="line2d_23">
      <g>
       <use xlink:href="#mb31eb593cd" x="593.854495" y="524.877813" style="stroke: #000000; stroke-width: 0.8"/>
      </g>
     </g>
     <g id="text_23">
      <!-- 67 -->
      <g transform="translate(587.491995 539.47625) scale(0.1 -0.1)">
       <use xlink:href="#DejaVuSans-36"/>
       <use xlink:href="#DejaVuSans-37" transform="translate(63.623047 0)"/>
      </g>
     </g>
    </g>
    <g id="xtick_24">
     <g id="line2d_24">
      <g>
       <use xlink:href="#mb31eb593cd" x="617.294686" y="524.877813" style="stroke: #000000; stroke-width: 0.8"/>
      </g>
     </g>
     <g id="text_24">
      <!-- 70 -->
      <g transform="translate(610.932186 539.47625) scale(0.1 -0.1)">
       <use xlink:href="#DejaVuSans-37"/>
       <use xlink:href="#DejaVuSans-30" transform="translate(63.623047 0)"/>
      </g>
     </g>
    </g>
    <g id="xtick_25">
     <g id="line2d_25">
      <g>
       <use xlink:href="#mb31eb593cd" x="640.734877" y="524.877813" style="stroke: #000000; stroke-width: 0.8"/>
      </g>
     </g>
     <g id="text_25">
      <!-- 73 -->
      <g transform="translate(634.372377 539.47625) scale(0.1 -0.1)">
       <use xlink:href="#DejaVuSans-37"/>
       <use xlink:href="#DejaVuSans-33" transform="translate(63.623047 0)"/>
      </g>
     </g>
    </g>
    <g id="xtick_26">
     <g id="line2d_26">
      <g>
       <use xlink:href="#mb31eb593cd" x="664.175069" y="524.877813" style="stroke: #000000; stroke-width: 0.8"/>
      </g>
     </g>
     <g id="text_26">
      <!-- 76 -->
      <g transform="translate(657.812569 539.47625) scale(0.1 -0.1)">
       <use xlink:href="#DejaVuSans-37"/>
       <use xlink:href="#DejaVuSans-36" transform="translate(63.623047 0)"/>
      </g>
     </g>
    </g>
    <g id="text_27">
     <!-- Values -->
     <g transform="translate(355.47625 554.674062) scale(0.12 -0.12)">
      <defs>
       <path id="DejaVuSans-56" d="M 1831 0 
L 50 4666 
L 709 4666 
L 2188 738 
L 3669 4666 
L 4325 4666 
L 2547 0 
L 1831 0 
z
" transform="scale(0.015625)"/>
       <path id="DejaVuSans-61" d="M 2194 1759 
Q 1497 1759 1228 1600 
Q 959 1441 959 1056 
Q 959 750 1161 570 
Q 1363 391 1709 391 
Q 2188 391 2477 730 
Q 2766 1069 2766 1631 
L 2766 1759 
L 2194 1759 
z
M 3341 1997 
L 3341 0 
L 2766 0 
L 2766 531 
Q 2569 213 2275 61 
Q 1981 -91 1556 -91 
Q 1019 -91 701 211 
Q 384 513 384 1019 
Q 384 1609 779 1909 
Q 1175 2209 1959 2209 
L 2766 2209 
L 2766 2266 
Q 2766 2663 2505 2880 
Q 2244 3097 1772 3097 
Q 1472 3097 1187 3025 
Q 903 2953 641 2809 
L 641 3341 
Q 956 3463 1253 3523 
Q 1550 3584 1831 3584 
Q 2591 3584 2966 3190 
Q 3341 2797 3341 1997 
z
" transform="scale(0.015625)"/>
       <path id="DejaVuSans-6c" d="M 603 4863 
L 1178 4863 
L 1178 0 
L 603 0 
L 603 4863 
z
" transform="scale(0.015625)"/>
       <path id="DejaVuSans-75" d="M 544 1381 
L 544 3500 
L 1119 3500 
L 1119 1403 
Q 1119 906 1312 657 
Q 1506 409 1894 409 
Q 2359 409 2629 706 
Q 2900 1003 2900 1516 
L 2900 3500 
L 3475 3500 
L 3475 0 
L 2900 0 
L 2900 538 
Q 2691 219 2414 64 
Q 2138 -91 1772 -91 
Q 1169 -91 856 284 
Q 544 659 544 1381 
z
M 1991 3584 
L 1991 3584 
z
" transform="scale(0.015625)"/>
       <path id="DejaVuSans-65" d="M 3597 1894 
L 3597 1613 
L 953 1613 
Q 991 1019 1311 708 
Q 1631 397 2203 397 
Q 2534 397 2845 478 
Q 3156 559 3463 722 
L 3463 178 
Q 3153 47 2828 -22 
Q 2503 -91 2169 -91 
Q 1331 -91 842 396 
Q 353 884 353 1716 
Q 353 2575 817 3079 
Q 1281 3584 2069 3584 
Q 2775 3584 3186 3129 
Q 3597 2675 3597 1894 
z
M 3022 2063 
Q 3016 2534 2758 2815 
Q 2500 3097 2075 3097 
Q 1594 3097 1305 2825 
Q 1016 2553 972 2059 
L 3022 2063 
z
" transform="scale(0.015625)"/>
       <path id="DejaVuSans-73" d="M 2834 3397 
L 2834 2853 
Q 2591 2978 2328 3040 
Q 2066 3103 1784 3103 
Q 1356 3103 1142 2972 
Q 928 2841 928 2578 
Q 928 2378 1081 2264 
Q 1234 2150 1697 2047 
L 1894 2003 
Q 2506 1872 2764 1633 
Q 3022 1394 3022 966 
Q 3022 478 2636 193 
Q 2250 -91 1575 -91 
Q 1294 -91 989 -36 
Q 684 19 347 128 
L 347 722 
Q 666 556 975 473 
Q 1284 391 1588 391 
Q 1994 391 2212 530 
Q 2431 669 2431 922 
Q 2431 1156 2273 1281 
Q 2116 1406 1581 1522 
L 1381 1569 
Q 847 1681 609 1914 
Q 372 2147 372 2553 
Q 372 3047 722 3315 
Q 1072 3584 1716 3584 
Q 2034 3584 2315 3537 
Q 2597 3491 2834 3397 
z
" transform="scale(0.015625)"/>
      </defs>
      <use xlink:href="#DejaVuSans-56"/>
      <use xlink:href="#DejaVuSans-61" transform="translate(60.658203 0)"/>
      <use xlink:href="#DejaVuSans-6c" transform="translate(121.9375 0)"/>
      <use xlink:href="#DejaVuSans-75" transform="translate(149.720703 0)"/>
      <use xlink:href="#DejaVuSans-65" transform="translate(213.099609 0)"/>
      <use xlink:href="#DejaVuSans-73" transform="translate(274.623047 0)"/>
     </g>
    </g>
   </g>
   <g id="matplotlib.axis_2">
    <g id="ytick_1">
     <g id="line2d_27">
      <path d="M 48.479375 524.877813 
L 701.679375 524.877813 
" clip-path="url(#p93fe338cdf)" style="fill: none; stroke: #b0b0b0; stroke-opacity: 0; stroke-width: 0.8; stroke-linecap: square"/>
     </g>
     <g id="line2d_28">
      <defs>
       <path id="m87bf109e92" d="M 0 0 
L -3.5 0 
" style="stroke: #000000; stroke-width: 0.8"/>
      </defs>
      <g>
       <use xlink:href="#m87bf109e92" x="48.479375" y="524.877813" style="stroke: #000000; stroke-width: 0.8"/>
      </g>
     </g>
     <g id="text_28">
      <!-- 0.0 -->
      <g transform="translate(25.57625 528.677031) scale(0.1 -0.1)">
       <defs>
        <path id="DejaVuSans-2e" d="M 684 794 
L 1344 794 
L 1344 0 
L 684 0 
L 684 794 
z
" transform="scale(0.015625)"/>
       </defs>
       <use xlink:href="#DejaVuSans-30"/>
       <use xlink:href="#DejaVuSans-2e" transform="translate(63.623047 0)"/>
       <use xlink:href="#DejaVuSans-30" transform="translate(95.410156 0)"/>
      </g>
     </g>
    </g>
    <g id="ytick_2">
     <g id="line2d_29">
      <path d="M 48.479375 464.801622 
L 701.679375 464.801622 
" clip-path="url(#p93fe338cdf)" style="fill: none; stroke: #b0b0b0; stroke-opacity: 0; stroke-width: 0.8; stroke-linecap: square"/>
     </g>
     <g id="line2d_30">
      <g>
       <use xlink:href="#m87bf109e92" x="48.479375" y="464.801622" style="stroke: #000000; stroke-width: 0.8"/>
      </g>
     </g>
     <g id="text_29">
      <!-- 2.5 -->
      <g transform="translate(25.57625 468.600841) scale(0.1 -0.1)">
       <use xlink:href="#DejaVuSans-32"/>
       <use xlink:href="#DejaVuSans-2e" transform="translate(63.623047 0)"/>
       <use xlink:href="#DejaVuSans-35" transform="translate(95.410156 0)"/>
      </g>
     </g>
    </g>
    <g id="ytick_3">
     <g id="line2d_31">
      <path d="M 48.479375 404.725432 
L 701.679375 404.725432 
" clip-path="url(#p93fe338cdf)" style="fill: none; stroke: #b0b0b0; stroke-opacity: 0; stroke-width: 0.8; stroke-linecap: square"/>
     </g>
     <g id="line2d_32">
      <g>
       <use xlink:href="#m87bf109e92" x="48.479375" y="404.725432" style="stroke: #000000; stroke-width: 0.8"/>
      </g>
     </g>
     <g id="text_30">
      <!-- 5.0 -->
      <g transform="translate(25.57625 408.52465) scale(0.1 -0.1)">
       <use xlink:href="#DejaVuSans-35"/>
       <use xlink:href="#DejaVuSans-2e" transform="translate(63.623047 0)"/>
       <use xlink:href="#DejaVuSans-30" transform="translate(95.410156 0)"/>
      </g>
     </g>
    </g>
    <g id="ytick_4">
     <g id="line2d_33">
      <path d="M 48.479375 344.649241 
L 701.679375 344.649241 
" clip-path="url(#p93fe338cdf)" style="fill: none; stroke: #b0b0b0; stroke-opacity: 0; stroke-width: 0.8; stroke-linecap: square"/>
     </g>
     <g id="line2d_34">
      <g>
       <use xlink:href="#m87bf109e92" x="48.479375" y="344.649241" style="stroke: #000000; stroke-width: 0.8"/>
      </g>
     </g>
     <g id="text_31">
      <!-- 7.5 -->
      <g transform="translate(25.57625 348.44846) scale(0.1 -0.1)">
       <use xlink:href="#DejaVuSans-37"/>
       <use xlink:href="#DejaVuSans-2e" transform="translate(63.623047 0)"/>
       <use xlink:href="#DejaVuSans-35" transform="translate(95.410156 0)"/>
      </g>
     </g>
    </g>
    <g id="ytick_5">
     <g id="line2d_35">
      <path d="M 48.479375 284.573051 
L 701.679375 284.573051 
" clip-path="url(#p93fe338cdf)" style="fill: none; stroke: #b0b0b0; stroke-opacity: 0; stroke-width: 0.8; stroke-linecap: square"/>
     </g>
     <g id="line2d_36">
      <g>
       <use xlink:href="#m87bf109e92" x="48.479375" y="284.573051" style="stroke: #000000; stroke-width: 0.8"/>
      </g>
     </g>
     <g id="text_32">
      <!-- 10.0 -->
      <g transform="translate(19.21375 288.372269) scale(0.1 -0.1)">
       <use xlink:href="#DejaVuSans-31"/>
       <use xlink:href="#DejaVuSans-30" transform="translate(63.623047 0)"/>
       <use xlink:href="#DejaVuSans-2e" transform="translate(127.246094 0)"/>
       <use xlink:href="#DejaVuSans-30" transform="translate(159.033203 0)"/>
      </g>
     </g>
    </g>
    <g id="ytick_6">
     <g id="line2d_37">
      <path d="M 48.479375 224.49686 
L 701.679375 224.49686 
" clip-path="url(#p93fe338cdf)" style="fill: none; stroke: #b0b0b0; stroke-opacity: 0; stroke-width: 0.8; stroke-linecap: square"/>
     </g>
     <g id="line2d_38">
      <g>
       <use xlink:href="#m87bf109e92" x="48.479375" y="224.49686" style="stroke: #000000; stroke-width: 0.8"/>
      </g>
     </g>
     <g id="text_33">
      <!-- 12.5 -->
      <g transform="translate(19.21375 228.296079) scale(0.1 -0.1)">
       <use xlink:href="#DejaVuSans-31"/>
       <use xlink:href="#DejaVuSans-32" transform="translate(63.623047 0)"/>
       <use xlink:href="#DejaVuSans-2e" transform="translate(127.246094 0)"/>
       <use xlink:href="#DejaVuSans-35" transform="translate(159.033203 0)"/>
      </g>
     </g>
    </g>
    <g id="ytick_7">
     <g id="line2d_39">
      <path d="M 48.479375 164.42067 
L 701.679375 164.42067 
" clip-path="url(#p93fe338cdf)" style="fill: none; stroke: #b0b0b0; stroke-opacity: 0; stroke-width: 0.8; stroke-linecap: square"/>
     </g>
     <g id="line2d_40">
      <g>
       <use xlink:href="#m87bf109e92" x="48.479375" y="164.42067" style="stroke: #000000; stroke-width: 0.8"/>
      </g>
     </g>
     <g id="text_34">
      <!-- 15.0 -->
      <g transform="translate(19.21375 168.219888) scale(0.1 -0.1)">
       <use xlink:href="#DejaVuSans-31"/>
       <use xlink:href="#DejaVuSans-35" transform="translate(63.623047 0)"/>
       <use xlink:href="#DejaVuSans-2e" transform="translate(127.246094 0)"/>
       <use xlink:href="#DejaVuSans-30" transform="translate(159.033203 0)"/>
      </g>
     </g>
    </g>
    <g id="ytick_8">
     <g id="line2d_41">
      <path d="M 48.479375 104.344479 
L 701.679375 104.344479 
" clip-path="url(#p93fe338cdf)" style="fill: none; stroke: #b0b0b0; stroke-opacity: 0; stroke-width: 0.8; stroke-linecap: square"/>
     </g>
     <g id="line2d_42">
      <g>
       <use xlink:href="#m87bf109e92" x="48.479375" y="104.344479" style="stroke: #000000; stroke-width: 0.8"/>
      </g>
     </g>
     <g id="text_35">
      <!-- 17.5 -->
      <g transform="translate(19.21375 108.143698) scale(0.1 -0.1)">
       <use xlink:href="#DejaVuSans-31"/>
       <use xlink:href="#DejaVuSans-37" transform="translate(63.623047 0)"/>
       <use xlink:href="#DejaVuSans-2e" transform="translate(127.246094 0)"/>
       <use xlink:href="#DejaVuSans-35" transform="translate(159.033203 0)"/>
      </g>
     </g>
    </g>
    <g id="ytick_9">
     <g id="line2d_43">
      <path d="M 48.479375 44.268289 
L 701.679375 44.268289 
" clip-path="url(#p93fe338cdf)" style="fill: none; stroke: #b0b0b0; stroke-opacity: 0; stroke-width: 0.8; stroke-linecap: square"/>
     </g>
     <g id="line2d_44">
      <g>
       <use xlink:href="#m87bf109e92" x="48.479375" y="44.268289" style="stroke: #000000; stroke-width: 0.8"/>
      </g>
     </g>
     <g id="text_36">
      <!-- 20.0 -->
      <g transform="translate(19.21375 48.067507) scale(0.1 -0.1)">
       <use xlink:href="#DejaVuSans-32"/>
       <use xlink:href="#DejaVuSans-30" transform="translate(63.623047 0)"/>
       <use xlink:href="#DejaVuSans-2e" transform="translate(127.246094 0)"/>
       <use xlink:href="#DejaVuSans-30" transform="translate(159.033203 0)"/>
      </g>
     </g>
    </g>
    <g id="text_37">
     <!-- Count -->
     <g transform="translate(12.718125 290.375937) rotate(-90) scale(0.12 -0.12)">
      <defs>
       <path id="DejaVuSans-43" d="M 4122 4306 
L 4122 3641 
Q 3803 3938 3442 4084 
Q 3081 4231 2675 4231 
Q 1875 4231 1450 3742 
Q 1025 3253 1025 2328 
Q 1025 1406 1450 917 
Q 1875 428 2675 428 
Q 3081 428 3442 575 
Q 3803 722 4122 1019 
L 4122 359 
Q 3791 134 3420 21 
Q 3050 -91 2638 -91 
Q 1578 -91 968 557 
Q 359 1206 359 2328 
Q 359 3453 968 4101 
Q 1578 4750 2638 4750 
Q 3056 4750 3426 4639 
Q 3797 4528 4122 4306 
z
" transform="scale(0.015625)"/>
       <path id="DejaVuSans-6f" d="M 1959 3097 
Q 1497 3097 1228 2736 
Q 959 2375 959 1747 
Q 959 1119 1226 758 
Q 1494 397 1959 397 
Q 2419 397 2687 759 
Q 2956 1122 2956 1747 
Q 2956 2369 2687 2733 
Q 2419 3097 1959 3097 
z
M 1959 3584 
Q 2709 3584 3137 3096 
Q 3566 2609 3566 1747 
Q 3566 888 3137 398 
Q 2709 -91 1959 -91 
Q 1206 -91 779 398 
Q 353 888 353 1747 
Q 353 2609 779 3096 
Q 1206 3584 1959 3584 
z
" transform="scale(0.015625)"/>
       <path id="DejaVuSans-6e" d="M 3513 2113 
L 3513 0 
L 2938 0 
L 2938 2094 
Q 2938 2591 2744 2837 
Q 2550 3084 2163 3084 
Q 1697 3084 1428 2787 
Q 1159 2491 1159 1978 
L 1159 0 
L 581 0 
L 581 3500 
L 1159 3500 
L 1159 2956 
Q 1366 3272 1645 3428 
Q 1925 3584 2291 3584 
Q 2894 3584 3203 3211 
Q 3513 2838 3513 2113 
z
" transform="scale(0.015625)"/>
       <path id="DejaVuSans-74" d="M 1172 4494 
L 1172 3500 
L 2356 3500 
L 2356 3053 
L 1172 3053 
L 1172 1153 
Q 1172 725 1289 603 
Q 1406 481 1766 481 
L 2356 481 
L 2356 0 
L 1766 0 
Q 1100 0 847 248 
Q 594 497 594 1153 
L 594 3053 
L 172 3053 
L 172 3500 
L 594 3500 
L 594 4494 
L 1172 4494 
z
" transform="scale(0.015625)"/>
      </defs>
      <use xlink:href="#DejaVuSans-43"/>
      <use xlink:href="#DejaVuSans-6f" transform="translate(69.824219 0)"/>
      <use xlink:href="#DejaVuSans-75" transform="translate(131.005859 0)"/>
      <use xlink:href="#DejaVuSans-6e" transform="translate(194.384766 0)"/>
      <use xlink:href="#DejaVuSans-74" transform="translate(257.763672 0)"/>
     </g>
    </g>
   </g>
   <g id="line2d_45">
    <path d="M 78.170284 523.817436 
L 85.983681 521.747805 
L 93.797078 517.846202 
L 101.610475 511.560794 
L 109.423873 502.474639 
L 117.23727 490.349107 
L 125.050667 475.139617 
L 132.864064 456.988993 
L 140.677461 436.204803 
L 148.490858 413.226775 
L 156.304255 388.589561 
L 164.117653 362.884949 
L 171.93105 336.72653 
L 179.744447 310.718747 
L 187.557844 285.431411 
L 195.371241 261.380095 
L 203.184638 239.012302 
L 210.998035 218.698958 
L 218.811432 200.730586 
L 226.62483 185.317397 
L 234.438227 172.5925 
L 242.251624 162.617464 
L 250.065021 155.389542 
L 257.878418 150.849911 
L 265.691815 148.892427 
L 273.505212 149.372445 
L 281.318609 152.115391 
L 289.132007 156.924806 
L 296.945404 163.589713 
L 304.758801 171.891186 
L 312.572198 181.608056 
L 320.385595 192.521754 
L 328.198992 204.420298 
L 336.012389 217.101479 
L 343.825786 230.375293 
L 351.639184 244.065703 
L 359.452581 258.011808 
L 367.265978 272.068488 
L 375.079375 286.106621 
L 382.892772 300.012925 
L 390.706169 313.689522 
L 398.519566 327.053264 
L 406.332964 340.034887 
L 414.146361 352.578051 
L 421.959758 364.638293 
L 429.773155 376.181943 
L 437.586552 387.185028 
L 445.399949 397.63219 
L 453.213346 407.515631 
L 461.026743 416.834111 
L 468.840141 425.592006 
L 476.653538 433.79842 
L 484.466935 441.466384 
L 492.280332 448.612112 
L 500.093729 455.25434 
L 507.907126 461.41373 
L 515.720523 467.112352 
L 523.53392 472.373217 
L 531.347318 477.219887 
L 539.160715 481.676133 
L 546.974112 485.765648 
L 554.787509 489.511807 
L 562.600906 492.937474 
L 570.414303 496.064842 
L 578.2277 498.915309 
L 586.041097 501.509389 
L 593.854495 503.866641 
L 601.667892 506.005624 
L 609.481289 507.943874 
L 617.294686 509.697894 
L 625.108083 511.283157 
L 632.92148 512.714123 
L 640.734877 514.004258 
L 648.548275 515.166074 
L 656.361672 516.211157 
L 664.175069 517.150213 
L 671.988466 517.993107 
" clip-path="url(#p93fe338cdf)" style="fill: none; stroke: #000000; stroke-width: 2; stroke-linecap: square"/>
    <defs>
     <path id="m896b93aee8" d="M 0 3 
C 0.795609 3 1.55874 2.683901 2.12132 2.12132 
C 2.683901 1.55874 3 0.795609 3 0 
C 3 -0.795609 2.683901 -1.55874 2.12132 -2.12132 
C 1.55874 -2.683901 0.795609 -3 0 -3 
C -0.795609 -3 -1.55874 -2.683901 -2.12132 -2.12132 
C -2.683901 -1.55874 -3 -0.795609 -3 0 
C -3 0.795609 -2.683901 1.55874 -2.12132 2.12132 
C -1.55874 2.683901 -0.795609 3 0 3 
z
" style="stroke: #000000"/>
    </defs>
    <g clip-path="url(#p93fe338cdf)">
     <use xlink:href="#m896b93aee8" x="78.170284" y="523.817436" style="stroke: #000000"/>
     <use xlink:href="#m896b93aee8" x="85.983681" y="521.747805" style="stroke: #000000"/>
     <use xlink:href="#m896b93aee8" x="93.797078" y="517.846202" style="stroke: #000000"/>
     <use xlink:href="#m896b93aee8" x="101.610475" y="511.560794" style="stroke: #000000"/>
     <use xlink:href="#m896b93aee8" x="109.423873" y="502.474639" style="stroke: #000000"/>
     <use xlink:href="#m896b93aee8" x="117.23727" y="490.349107" style="stroke: #000000"/>
     <use xlink:href="#m896b93aee8" x="125.050667" y="475.139617" style="stroke: #000000"/>
     <use xlink:href="#m896b93aee8" x="132.864064" y="456.988993" style="stroke: #000000"/>
     <use xlink:href="#m896b93aee8" x="140.677461" y="436.204803" style="stroke: #000000"/>
     <use xlink:href="#m896b93aee8" x="148.490858" y="413.226775" style="stroke: #000000"/>
     <use xlink:href="#m896b93aee8" x="156.304255" y="388.589561" style="stroke: #000000"/>
     <use xlink:href="#m896b93aee8" x="164.117653" y="362.884949" style="stroke: #000000"/>
     <use xlink:href="#m896b93aee8" x="171.93105" y="336.72653" style="stroke: #000000"/>
     <use xlink:href="#m896b93aee8" x="179.744447" y="310.718747" style="stroke: #000000"/>
     <use xlink:href="#m896b93aee8" x="187.557844" y="285.431411" style="stroke: #000000"/>
     <use xlink:href="#m896b93aee8" x="195.371241" y="261.380095" style="stroke: #000000"/>
     <use xlink:href="#m896b93aee8" x="203.184638" y="239.012302" style="stroke: #000000"/>
     <use xlink:href="#m896b93aee8" x="210.998035" y="218.698958" style="stroke: #000000"/>
     <use xlink:href="#m896b93aee8" x="218.811432" y="200.730586" style="stroke: #000000"/>
     <use xlink:href="#m896b93aee8" x="226.62483" y="185.317397" style="stroke: #000000"/>
     <use xlink:href="#m896b93aee8" x="234.438227" y="172.5925" style="stroke: #000000"/>
     <use xlink:href="#m896b93aee8" x="242.251624" y="162.617464" style="stroke: #000000"/>
     <use xlink:href="#m896b93aee8" x="250.065021" y="155.389542" style="stroke: #000000"/>
     <use xlink:href="#m896b93aee8" x="257.878418" y="150.849911" style="stroke: #000000"/>
     <use xlink:href="#m896b93aee8" x="265.691815" y="148.892427" style="stroke: #000000"/>
     <use xlink:href="#m896b93aee8" x="273.505212" y="149.372445" style="stroke: #000000"/>
     <use xlink:href="#m896b93aee8" x="281.318609" y="152.115391" style="stroke: #000000"/>
     <use xlink:href="#m896b93aee8" x="289.132007" y="156.924806" style="stroke: #000000"/>
     <use xlink:href="#m896b93aee8" x="296.945404" y="163.589713" style="stroke: #000000"/>
     <use xlink:href="#m896b93aee8" x="304.758801" y="171.891186" style="stroke: #000000"/>
     <use xlink:href="#m896b93aee8" x="312.572198" y="181.608056" style="stroke: #000000"/>
     <use xlink:href="#m896b93aee8" x="320.385595" y="192.521754" style="stroke: #000000"/>
     <use xlink:href="#m896b93aee8" x="328.198992" y="204.420298" style="stroke: #000000"/>
     <use xlink:href="#m896b93aee8" x="336.012389" y="217.101479" style="stroke: #000000"/>
     <use xlink:href="#m896b93aee8" x="343.825786" y="230.375293" style="stroke: #000000"/>
     <use xlink:href="#m896b93aee8" x="351.639184" y="244.065703" style="stroke: #000000"/>
     <use xlink:href="#m896b93aee8" x="359.452581" y="258.011808" style="stroke: #000000"/>
     <use xlink:href="#m896b93aee8" x="367.265978" y="272.068488" style="stroke: #000000"/>
     <use xlink:href="#m896b93aee8" x="375.079375" y="286.106621" style="stroke: #000000"/>
     <use xlink:href="#m896b93aee8" x="382.892772" y="300.012925" style="stroke: #000000"/>
     <use xlink:href="#m896b93aee8" x="390.706169" y="313.689522" style="stroke: #000000"/>
     <use xlink:href="#m896b93aee8" x="398.519566" y="327.053264" style="stroke: #000000"/>
     <use xlink:href="#m896b93aee8" x="406.332964" y="340.034887" style="stroke: #000000"/>
     <use xlink:href="#m896b93aee8" x="414.146361" y="352.578051" style="stroke: #000000"/>
     <use xlink:href="#m896b93aee8" x="421.959758" y="364.638293" style="stroke: #000000"/>
     <use xlink:href="#m896b93aee8" x="429.773155" y="376.181943" style="stroke: #000000"/>
     <use xlink:href="#m896b93aee8" x="437.586552" y="387.185028" style="stroke: #000000"/>
     <use xlink:href="#m896b93aee8" x="445.399949" y="397.63219" style="stroke: #000000"/>
     <use xlink:href="#m896b93aee8" x="453.213346" y="407.515631" style="stroke: #000000"/>
     <use xlink:href="#m896b93aee8" x="461.026743" y="416.834111" style="stroke: #000000"/>
     <use xlink:href="#m896b93aee8" x="468.840141" y="425.592006" style="stroke: #000000"/>
     <use xlink:href="#m896b93aee8" x="476.653538" y="433.79842" style="stroke: #000000"/>
     <use xlink:href="#m896b93aee8" x="484.466935" y="441.466384" style="stroke: #000000"/>
     <use xlink:href="#m896b93aee8" x="492.280332" y="448.612112" style="stroke: #000000"/>
     <use xlink:href="#m896b93aee8" x="500.093729" y="455.25434" style="stroke: #000000"/>
     <use xlink:href="#m896b93aee8" x="507.907126" y="461.41373" style="stroke: #000000"/>
     <use xlink:href="#m896b93aee8" x="515.720523" y="467.112352" style="stroke: #000000"/>
     <use xlink:href="#m896b93aee8" x="523.53392" y="472.373217" style="stroke: #000000"/>
     <use xlink:href="#m896b93aee8" x="531.347318" y="477.219887" style="stroke: #000000"/>
     <use xlink:href="#m896b93aee8" x="539.160715" y="481.676133" style="stroke: #000000"/>
     <use xlink:href="#m896b93aee8" x="546.974112" y="485.765648" style="stroke: #000000"/>
     <use xlink:href="#m896b93aee8" x="554.787509" y="489.511807" style="stroke: #000000"/>
     <use xlink:href="#m896b93aee8" x="562.600906" y="492.937474" style="stroke: #000000"/>
     <use xlink:href="#m896b93aee8" x="570.414303" y="496.064842" style="stroke: #000000"/>
     <use xlink:href="#m896b93aee8" x="578.2277" y="498.915309" style="stroke: #000000"/>
     <use xlink:href="#m896b93aee8" x="586.041097" y="501.509389" style="stroke: #000000"/>
     <use xlink:href="#m896b93aee8" x="593.854495" y="503.866641" style="stroke: #000000"/>
     <use xlink:href="#m896b93aee8" x="601.667892" y="506.005624" style="stroke: #000000"/>
     <use xlink:href="#m896b93aee8" x="609.481289" y="507.943874" style="stroke: #000000"/>
     <use xlink:href="#m896b93aee8" x="617.294686" y="509.697894" style="stroke: #000000"/>
     <use xlink:href="#m896b93aee8" x="625.108083" y="511.283157" style="stroke: #000000"/>
     <use xlink:href="#m896b93aee8" x="632.92148" y="512.714123" style="stroke: #000000"/>
     <use xlink:href="#m896b93aee8" x="640.734877" y="514.004258" style="stroke: #000000"/>
     <use xlink:href="#m896b93aee8" x="648.548275" y="515.166074" style="stroke: #000000"/>
     <use xlink:href="#m896b93aee8" x="656.361672" y="516.211157" style="stroke: #000000"/>
     <use xlink:href="#m896b93aee8" x="664.175069" y="517.150213" style="stroke: #000000"/>
     <use xlink:href="#m896b93aee8" x="671.988466" y="517.993107" style="stroke: #000000"/>
    </g>
   </g>
   <g id="patch_69">
    <path d="M 48.479375 524.877813 
L 48.479375 20.237812 
" style="fill: none; stroke: #000000; stroke-width: 0.8; stroke-linejoin: miter; stroke-linecap: square"/>
   </g>
   <g id="patch_70">
    <path d="M 701.679375 524.877813 
L 701.679375 20.237812 
" style="fill: none; stroke: #000000; stroke-width: 0.8; stroke-linejoin: miter; stroke-linecap: square"/>
   </g>
   <g id="patch_71">
    <path d="M 48.479375 524.877813 
L 701.679375 524.877813 
" style="fill: none; stroke: #000000; stroke-width: 0.8; stroke-linejoin: miter; stroke-linecap: square"/>
   </g>
   <g id="patch_72">
    <path d="M 48.479375 20.237812 
L 701.679375 20.237812 
" style="fill: none; stroke: #000000; stroke-width: 0.8; stroke-linejoin: miter; stroke-linecap: square"/>
   </g>
   <g id="text_38">
    <!-- Histogram with Fitted negative_binomial Distribution -->
    <g transform="translate(164.297344 14.237812) scale(0.14 -0.14)">
     <defs>
      <path id="DejaVuSans-Bold-48" d="M 588 4666 
L 1791 4666 
L 1791 2888 
L 3566 2888 
L 3566 4666 
L 4769 4666 
L 4769 0 
L 3566 0 
L 3566 1978 
L 1791 1978 
L 1791 0 
L 588 0 
L 588 4666 
z
" transform="scale(0.015625)"/>
      <path id="DejaVuSans-Bold-69" d="M 538 3500 
L 1656 3500 
L 1656 0 
L 538 0 
L 538 3500 
z
M 538 4863 
L 1656 4863 
L 1656 3950 
L 538 3950 
L 538 4863 
z
" transform="scale(0.015625)"/>
      <path id="DejaVuSans-Bold-73" d="M 3272 3391 
L 3272 2541 
Q 2913 2691 2578 2766 
Q 2244 2841 1947 2841 
Q 1628 2841 1473 2761 
Q 1319 2681 1319 2516 
Q 1319 2381 1436 2309 
Q 1553 2238 1856 2203 
L 2053 2175 
Q 2913 2066 3209 1816 
Q 3506 1566 3506 1031 
Q 3506 472 3093 190 
Q 2681 -91 1863 -91 
Q 1516 -91 1145 -36 
Q 775 19 384 128 
L 384 978 
Q 719 816 1070 734 
Q 1422 653 1784 653 
Q 2113 653 2278 743 
Q 2444 834 2444 1013 
Q 2444 1163 2330 1236 
Q 2216 1309 1875 1350 
L 1678 1375 
Q 931 1469 631 1722 
Q 331 1975 331 2491 
Q 331 3047 712 3315 
Q 1094 3584 1881 3584 
Q 2191 3584 2531 3537 
Q 2872 3491 3272 3391 
z
" transform="scale(0.015625)"/>
      <path id="DejaVuSans-Bold-74" d="M 1759 4494 
L 1759 3500 
L 2913 3500 
L 2913 2700 
L 1759 2700 
L 1759 1216 
Q 1759 972 1856 886 
Q 1953 800 2241 800 
L 2816 800 
L 2816 0 
L 1856 0 
Q 1194 0 917 276 
Q 641 553 641 1216 
L 641 2700 
L 84 2700 
L 84 3500 
L 641 3500 
L 641 4494 
L 1759 4494 
z
" transform="scale(0.015625)"/>
      <path id="DejaVuSans-Bold-6f" d="M 2203 2784 
Q 1831 2784 1636 2517 
Q 1441 2250 1441 1747 
Q 1441 1244 1636 976 
Q 1831 709 2203 709 
Q 2569 709 2762 976 
Q 2956 1244 2956 1747 
Q 2956 2250 2762 2517 
Q 2569 2784 2203 2784 
z
M 2203 3584 
Q 3106 3584 3614 3096 
Q 4122 2609 4122 1747 
Q 4122 884 3614 396 
Q 3106 -91 2203 -91 
Q 1297 -91 786 396 
Q 275 884 275 1747 
Q 275 2609 786 3096 
Q 1297 3584 2203 3584 
z
" transform="scale(0.015625)"/>
      <path id="DejaVuSans-Bold-67" d="M 2919 594 
Q 2688 288 2409 144 
Q 2131 0 1766 0 
Q 1125 0 706 504 
Q 288 1009 288 1791 
Q 288 2575 706 3076 
Q 1125 3578 1766 3578 
Q 2131 3578 2409 3434 
Q 2688 3291 2919 2981 
L 2919 3500 
L 4044 3500 
L 4044 353 
Q 4044 -491 3511 -936 
Q 2978 -1381 1966 -1381 
Q 1638 -1381 1331 -1331 
Q 1025 -1281 716 -1178 
L 716 -306 
Q 1009 -475 1290 -558 
Q 1572 -641 1856 -641 
Q 2406 -641 2662 -400 
Q 2919 -159 2919 353 
L 2919 594 
z
M 2181 2772 
Q 1834 2772 1640 2515 
Q 1447 2259 1447 1791 
Q 1447 1309 1634 1061 
Q 1822 813 2181 813 
Q 2531 813 2725 1069 
Q 2919 1325 2919 1791 
Q 2919 2259 2725 2515 
Q 2531 2772 2181 2772 
z
" transform="scale(0.015625)"/>
      <path id="DejaVuSans-Bold-72" d="M 3138 2547 
Q 2991 2616 2845 2648 
Q 2700 2681 2553 2681 
Q 2122 2681 1889 2404 
Q 1656 2128 1656 1613 
L 1656 0 
L 538 0 
L 538 3500 
L 1656 3500 
L 1656 2925 
Q 1872 3269 2151 3426 
Q 2431 3584 2822 3584 
Q 2878 3584 2943 3579 
Q 3009 3575 3134 3559 
L 3138 2547 
z
" transform="scale(0.015625)"/>
      <path id="DejaVuSans-Bold-61" d="M 2106 1575 
Q 1756 1575 1579 1456 
Q 1403 1338 1403 1106 
Q 1403 894 1545 773 
Q 1688 653 1941 653 
Q 2256 653 2472 879 
Q 2688 1106 2688 1447 
L 2688 1575 
L 2106 1575 
z
M 3816 1997 
L 3816 0 
L 2688 0 
L 2688 519 
Q 2463 200 2181 54 
Q 1900 -91 1497 -91 
Q 953 -91 614 226 
Q 275 544 275 1050 
Q 275 1666 698 1953 
Q 1122 2241 2028 2241 
L 2688 2241 
L 2688 2328 
Q 2688 2594 2478 2717 
Q 2269 2841 1825 2841 
Q 1466 2841 1156 2769 
Q 847 2697 581 2553 
L 581 3406 
Q 941 3494 1303 3539 
Q 1666 3584 2028 3584 
Q 2975 3584 3395 3211 
Q 3816 2838 3816 1997 
z
" transform="scale(0.015625)"/>
      <path id="DejaVuSans-Bold-6d" d="M 3781 2919 
Q 3994 3244 4286 3414 
Q 4578 3584 4928 3584 
Q 5531 3584 5847 3212 
Q 6163 2841 6163 2131 
L 6163 0 
L 5038 0 
L 5038 1825 
Q 5041 1866 5042 1909 
Q 5044 1953 5044 2034 
Q 5044 2406 4934 2573 
Q 4825 2741 4581 2741 
Q 4263 2741 4089 2478 
Q 3916 2216 3909 1719 
L 3909 0 
L 2784 0 
L 2784 1825 
Q 2784 2406 2684 2573 
Q 2584 2741 2328 2741 
Q 2006 2741 1831 2477 
Q 1656 2213 1656 1722 
L 1656 0 
L 531 0 
L 531 3500 
L 1656 3500 
L 1656 2988 
Q 1863 3284 2130 3434 
Q 2397 3584 2719 3584 
Q 3081 3584 3359 3409 
Q 3638 3234 3781 2919 
z
" transform="scale(0.015625)"/>
      <path id="DejaVuSans-Bold-20" transform="scale(0.015625)"/>
      <path id="DejaVuSans-Bold-77" d="M 225 3500 
L 1313 3500 
L 1900 1088 
L 2491 3500 
L 3425 3500 
L 4013 1113 
L 4603 3500 
L 5691 3500 
L 4769 0 
L 3547 0 
L 2956 2406 
L 2369 0 
L 1147 0 
L 225 3500 
z
" transform="scale(0.015625)"/>
      <path id="DejaVuSans-Bold-68" d="M 4056 2131 
L 4056 0 
L 2931 0 
L 2931 347 
L 2931 1625 
Q 2931 2084 2911 2256 
Q 2891 2428 2841 2509 
Q 2775 2619 2662 2680 
Q 2550 2741 2406 2741 
Q 2056 2741 1856 2470 
Q 1656 2200 1656 1722 
L 1656 0 
L 538 0 
L 538 4863 
L 1656 4863 
L 1656 2988 
Q 1909 3294 2193 3439 
Q 2478 3584 2822 3584 
Q 3428 3584 3742 3212 
Q 4056 2841 4056 2131 
z
" transform="scale(0.015625)"/>
      <path id="DejaVuSans-Bold-46" d="M 588 4666 
L 3834 4666 
L 3834 3756 
L 1791 3756 
L 1791 2888 
L 3713 2888 
L 3713 1978 
L 1791 1978 
L 1791 0 
L 588 0 
L 588 4666 
z
" transform="scale(0.015625)"/>
      <path id="DejaVuSans-Bold-65" d="M 4031 1759 
L 4031 1441 
L 1416 1441 
Q 1456 1047 1700 850 
Q 1944 653 2381 653 
Q 2734 653 3104 758 
Q 3475 863 3866 1075 
L 3866 213 
Q 3469 63 3072 -14 
Q 2675 -91 2278 -91 
Q 1328 -91 801 392 
Q 275 875 275 1747 
Q 275 2603 792 3093 
Q 1309 3584 2216 3584 
Q 3041 3584 3536 3087 
Q 4031 2591 4031 1759 
z
M 2881 2131 
Q 2881 2450 2695 2645 
Q 2509 2841 2209 2841 
Q 1884 2841 1681 2658 
Q 1478 2475 1428 2131 
L 2881 2131 
z
" transform="scale(0.015625)"/>
      <path id="DejaVuSans-Bold-64" d="M 2919 2988 
L 2919 4863 
L 4044 4863 
L 4044 0 
L 2919 0 
L 2919 506 
Q 2688 197 2409 53 
Q 2131 -91 1766 -91 
Q 1119 -91 703 423 
Q 288 938 288 1747 
Q 288 2556 703 3070 
Q 1119 3584 1766 3584 
Q 2128 3584 2408 3439 
Q 2688 3294 2919 2988 
z
M 2181 722 
Q 2541 722 2730 984 
Q 2919 1247 2919 1747 
Q 2919 2247 2730 2509 
Q 2541 2772 2181 2772 
Q 1825 2772 1636 2509 
Q 1447 2247 1447 1747 
Q 1447 1247 1636 984 
Q 1825 722 2181 722 
z
" transform="scale(0.015625)"/>
      <path id="DejaVuSans-Bold-6e" d="M 4056 2131 
L 4056 0 
L 2931 0 
L 2931 347 
L 2931 1631 
Q 2931 2084 2911 2256 
Q 2891 2428 2841 2509 
Q 2775 2619 2662 2680 
Q 2550 2741 2406 2741 
Q 2056 2741 1856 2470 
Q 1656 2200 1656 1722 
L 1656 0 
L 538 0 
L 538 3500 
L 1656 3500 
L 1656 2988 
Q 1909 3294 2193 3439 
Q 2478 3584 2822 3584 
Q 3428 3584 3742 3212 
Q 4056 2841 4056 2131 
z
" transform="scale(0.015625)"/>
      <path id="DejaVuSans-Bold-76" d="M 97 3500 
L 1216 3500 
L 2088 1081 
L 2956 3500 
L 4078 3500 
L 2700 0 
L 1472 0 
L 97 3500 
z
" transform="scale(0.015625)"/>
      <path id="DejaVuSans-Bold-5f" d="M 3200 -916 
L 3200 -1509 
L 0 -1509 
L 0 -916 
L 3200 -916 
z
" transform="scale(0.015625)"/>
      <path id="DejaVuSans-Bold-62" d="M 2400 722 
Q 2759 722 2948 984 
Q 3138 1247 3138 1747 
Q 3138 2247 2948 2509 
Q 2759 2772 2400 2772 
Q 2041 2772 1848 2508 
Q 1656 2244 1656 1747 
Q 1656 1250 1848 986 
Q 2041 722 2400 722 
z
M 1656 2988 
Q 1888 3294 2169 3439 
Q 2450 3584 2816 3584 
Q 3463 3584 3878 3070 
Q 4294 2556 4294 1747 
Q 4294 938 3878 423 
Q 3463 -91 2816 -91 
Q 2450 -91 2169 54 
Q 1888 200 1656 506 
L 1656 0 
L 538 0 
L 538 4863 
L 1656 4863 
L 1656 2988 
z
" transform="scale(0.015625)"/>
      <path id="DejaVuSans-Bold-6c" d="M 538 4863 
L 1656 4863 
L 1656 0 
L 538 0 
L 538 4863 
z
" transform="scale(0.015625)"/>
      <path id="DejaVuSans-Bold-44" d="M 1791 3756 
L 1791 909 
L 2222 909 
Q 2959 909 3348 1275 
Q 3738 1641 3738 2338 
Q 3738 3031 3350 3393 
Q 2963 3756 2222 3756 
L 1791 3756 
z
M 588 4666 
L 1856 4666 
Q 2919 4666 3439 4514 
Q 3959 4363 4331 4000 
Q 4659 3684 4818 3271 
Q 4978 2859 4978 2338 
Q 4978 1809 4818 1395 
Q 4659 981 4331 666 
Q 3956 303 3431 151 
Q 2906 0 1856 0 
L 588 0 
L 588 4666 
z
" transform="scale(0.015625)"/>
      <path id="DejaVuSans-Bold-75" d="M 500 1363 
L 500 3500 
L 1625 3500 
L 1625 3150 
Q 1625 2866 1622 2436 
Q 1619 2006 1619 1863 
Q 1619 1441 1641 1255 
Q 1663 1069 1716 984 
Q 1784 875 1895 815 
Q 2006 756 2150 756 
Q 2500 756 2700 1025 
Q 2900 1294 2900 1772 
L 2900 3500 
L 4019 3500 
L 4019 0 
L 2900 0 
L 2900 506 
Q 2647 200 2364 54 
Q 2081 -91 1741 -91 
Q 1134 -91 817 281 
Q 500 653 500 1363 
z
" transform="scale(0.015625)"/>
     </defs>
     <use xlink:href="#DejaVuSans-Bold-48"/>
     <use xlink:href="#DejaVuSans-Bold-69" transform="translate(83.691406 0)"/>
     <use xlink:href="#DejaVuSans-Bold-73" transform="translate(117.96875 0)"/>
     <use xlink:href="#DejaVuSans-Bold-74" transform="translate(177.490234 0)"/>
     <use xlink:href="#DejaVuSans-Bold-6f" transform="translate(225.292969 0)"/>
     <use xlink:href="#DejaVuSans-Bold-67" transform="translate(293.994141 0)"/>
     <use xlink:href="#DejaVuSans-Bold-72" transform="translate(365.576172 0)"/>
     <use xlink:href="#DejaVuSans-Bold-61" transform="translate(414.892578 0)"/>
     <use xlink:href="#DejaVuSans-Bold-6d" transform="translate(482.373047 0)"/>
     <use xlink:href="#DejaVuSans-Bold-20" transform="translate(586.572266 0)"/>
     <use xlink:href="#DejaVuSans-Bold-77" transform="translate(621.386719 0)"/>
     <use xlink:href="#DejaVuSans-Bold-69" transform="translate(713.769531 0)"/>
     <use xlink:href="#DejaVuSans-Bold-74" transform="translate(748.046875 0)"/>
     <use xlink:href="#DejaVuSans-Bold-68" transform="translate(795.849609 0)"/>
     <use xlink:href="#DejaVuSans-Bold-20" transform="translate(867.041016 0)"/>
     <use xlink:href="#DejaVuSans-Bold-46" transform="translate(901.855469 0)"/>
     <use xlink:href="#DejaVuSans-Bold-69" transform="translate(970.166016 0)"/>
     <use xlink:href="#DejaVuSans-Bold-74" transform="translate(1004.443359 0)"/>
     <use xlink:href="#DejaVuSans-Bold-74" transform="translate(1052.246094 0)"/>
     <use xlink:href="#DejaVuSans-Bold-65" transform="translate(1100.048828 0)"/>
     <use xlink:href="#DejaVuSans-Bold-64" transform="translate(1167.871094 0)"/>
     <use xlink:href="#DejaVuSans-Bold-20" transform="translate(1239.453125 0)"/>
     <use xlink:href="#DejaVuSans-Bold-6e" transform="translate(1274.267578 0)"/>
     <use xlink:href="#DejaVuSans-Bold-65" transform="translate(1345.458984 0)"/>
     <use xlink:href="#DejaVuSans-Bold-67" transform="translate(1413.28125 0)"/>
     <use xlink:href="#DejaVuSans-Bold-61" transform="translate(1484.863281 0)"/>
     <use xlink:href="#DejaVuSans-Bold-74" transform="translate(1552.34375 0)"/>
     <use xlink:href="#DejaVuSans-Bold-69" transform="translate(1600.146484 0)"/>
     <use xlink:href="#DejaVuSans-Bold-76" transform="translate(1634.423828 0)"/>
     <use xlink:href="#DejaVuSans-Bold-65" transform="translate(1699.609375 0)"/>
     <use xlink:href="#DejaVuSans-Bold-5f" transform="translate(1767.431641 0)"/>
     <use xlink:href="#DejaVuSans-Bold-62" transform="translate(1817.431641 0)"/>
     <use xlink:href="#DejaVuSans-Bold-69" transform="translate(1889.013672 0)"/>
     <use xlink:href="#DejaVuSans-Bold-6e" transform="translate(1923.291016 0)"/>
     <use xlink:href="#DejaVuSans-Bold-6f" transform="translate(1994.482422 0)"/>
     <use xlink:href="#DejaVuSans-Bold-6d" transform="translate(2063.183594 0)"/>
     <use xlink:href="#DejaVuSans-Bold-69" transform="translate(2167.382812 0)"/>
     <use xlink:href="#DejaVuSans-Bold-61" transform="translate(2201.660156 0)"/>
     <use xlink:href="#DejaVuSans-Bold-6c" transform="translate(2269.140625 0)"/>
     <use xlink:href="#DejaVuSans-Bold-20" transform="translate(2303.417969 0)"/>
     <use xlink:href="#DejaVuSans-Bold-44" transform="translate(2338.232422 0)"/>
     <use xlink:href="#DejaVuSans-Bold-69" transform="translate(2421.240234 0)"/>
     <use xlink:href="#DejaVuSans-Bold-73" transform="translate(2455.517578 0)"/>
     <use xlink:href="#DejaVuSans-Bold-74" transform="translate(2515.039062 0)"/>
     <use xlink:href="#DejaVuSans-Bold-72" transform="translate(2562.841797 0)"/>
     <use xlink:href="#DejaVuSans-Bold-69" transform="translate(2612.158203 0)"/>
     <use xlink:href="#DejaVuSans-Bold-62" transform="translate(2646.435547 0)"/>
     <use xlink:href="#DejaVuSans-Bold-75" transform="translate(2718.017578 0)"/>
     <use xlink:href="#DejaVuSans-Bold-74" transform="translate(2789.208984 0)"/>
     <use xlink:href="#DejaVuSans-Bold-69" transform="translate(2837.011719 0)"/>
     <use xlink:href="#DejaVuSans-Bold-6f" transform="translate(2871.289062 0)"/>
     <use xlink:href="#DejaVuSans-Bold-6e" transform="translate(2939.990234 0)"/>
    </g>
   </g>
   <g id="legend_1">
    <g id="patch_73">
     <path d="M 458.388594 61.635625 
L 693.979375 61.635625 
Q 696.179375 61.635625 696.179375 59.435625 
L 696.179375 27.937812 
Q 696.179375 25.737812 693.979375 25.737812 
L 458.388594 25.737812 
Q 456.188594 25.737812 456.188594 27.937812 
L 456.188594 59.435625 
Q 456.188594 61.635625 458.388594 61.635625 
z
" style="fill: #ffffff; opacity: 0.8; stroke: #cccccc; stroke-linejoin: miter"/>
    </g>
    <g id="line2d_46">
     <path d="M 460.588594 34.646094 
L 471.588594 34.646094 
L 482.588594 34.646094 
" style="fill: none; stroke: #000000; stroke-width: 2; stroke-linecap: square"/>
     <g>
      <use xlink:href="#m896b93aee8" x="471.588594" y="34.646094" style="stroke: #000000"/>
     </g>
    </g>
    <g id="text_39">
     <!-- Theoretical PMF (negative_binomial) -->
     <g transform="translate(491.388594 38.496094) scale(0.11 -0.11)">
      <defs>
       <path id="DejaVuSans-54" d="M -19 4666 
L 3928 4666 
L 3928 4134 
L 2272 4134 
L 2272 0 
L 1638 0 
L 1638 4134 
L -19 4134 
L -19 4666 
z
" transform="scale(0.015625)"/>
       <path id="DejaVuSans-68" d="M 3513 2113 
L 3513 0 
L 2938 0 
L 2938 2094 
Q 2938 2591 2744 2837 
Q 2550 3084 2163 3084 
Q 1697 3084 1428 2787 
Q 1159 2491 1159 1978 
L 1159 0 
L 581 0 
L 581 4863 
L 1159 4863 
L 1159 2956 
Q 1366 3272 1645 3428 
Q 1925 3584 2291 3584 
Q 2894 3584 3203 3211 
Q 3513 2838 3513 2113 
z
" transform="scale(0.015625)"/>
       <path id="DejaVuSans-72" d="M 2631 2963 
Q 2534 3019 2420 3045 
Q 2306 3072 2169 3072 
Q 1681 3072 1420 2755 
Q 1159 2438 1159 1844 
L 1159 0 
L 581 0 
L 581 3500 
L 1159 3500 
L 1159 2956 
Q 1341 3275 1631 3429 
Q 1922 3584 2338 3584 
Q 2397 3584 2469 3576 
Q 2541 3569 2628 3553 
L 2631 2963 
z
" transform="scale(0.015625)"/>
       <path id="DejaVuSans-69" d="M 603 3500 
L 1178 3500 
L 1178 0 
L 603 0 
L 603 3500 
z
M 603 4863 
L 1178 4863 
L 1178 4134 
L 603 4134 
L 603 4863 
z
" transform="scale(0.015625)"/>
       <path id="DejaVuSans-63" d="M 3122 3366 
L 3122 2828 
Q 2878 2963 2633 3030 
Q 2388 3097 2138 3097 
Q 1578 3097 1268 2742 
Q 959 2388 959 1747 
Q 959 1106 1268 751 
Q 1578 397 2138 397 
Q 2388 397 2633 464 
Q 2878 531 3122 666 
L 3122 134 
Q 2881 22 2623 -34 
Q 2366 -91 2075 -91 
Q 1284 -91 818 406 
Q 353 903 353 1747 
Q 353 2603 823 3093 
Q 1294 3584 2113 3584 
Q 2378 3584 2631 3529 
Q 2884 3475 3122 3366 
z
" transform="scale(0.015625)"/>
       <path id="DejaVuSans-20" transform="scale(0.015625)"/>
       <path id="DejaVuSans-50" d="M 1259 4147 
L 1259 2394 
L 2053 2394 
Q 2494 2394 2734 2622 
Q 2975 2850 2975 3272 
Q 2975 3691 2734 3919 
Q 2494 4147 2053 4147 
L 1259 4147 
z
M 628 4666 
L 2053 4666 
Q 2838 4666 3239 4311 
Q 3641 3956 3641 3272 
Q 3641 2581 3239 2228 
Q 2838 1875 2053 1875 
L 1259 1875 
L 1259 0 
L 628 0 
L 628 4666 
z
" transform="scale(0.015625)"/>
       <path id="DejaVuSans-4d" d="M 628 4666 
L 1569 4666 
L 2759 1491 
L 3956 4666 
L 4897 4666 
L 4897 0 
L 4281 0 
L 4281 4097 
L 3078 897 
L 2444 897 
L 1241 4097 
L 1241 0 
L 628 0 
L 628 4666 
z
" transform="scale(0.015625)"/>
       <path id="DejaVuSans-46" d="M 628 4666 
L 3309 4666 
L 3309 4134 
L 1259 4134 
L 1259 2759 
L 3109 2759 
L 3109 2228 
L 1259 2228 
L 1259 0 
L 628 0 
L 628 4666 
z
" transform="scale(0.015625)"/>
       <path id="DejaVuSans-28" d="M 1984 4856 
Q 1566 4138 1362 3434 
Q 1159 2731 1159 2009 
Q 1159 1288 1364 580 
Q 1569 -128 1984 -844 
L 1484 -844 
Q 1016 -109 783 600 
Q 550 1309 550 2009 
Q 550 2706 781 3412 
Q 1013 4119 1484 4856 
L 1984 4856 
z
" transform="scale(0.015625)"/>
       <path id="DejaVuSans-67" d="M 2906 1791 
Q 2906 2416 2648 2759 
Q 2391 3103 1925 3103 
Q 1463 3103 1205 2759 
Q 947 2416 947 1791 
Q 947 1169 1205 825 
Q 1463 481 1925 481 
Q 2391 481 2648 825 
Q 2906 1169 2906 1791 
z
M 3481 434 
Q 3481 -459 3084 -895 
Q 2688 -1331 1869 -1331 
Q 1566 -1331 1297 -1286 
Q 1028 -1241 775 -1147 
L 775 -588 
Q 1028 -725 1275 -790 
Q 1522 -856 1778 -856 
Q 2344 -856 2625 -561 
Q 2906 -266 2906 331 
L 2906 616 
Q 2728 306 2450 153 
Q 2172 0 1784 0 
Q 1141 0 747 490 
Q 353 981 353 1791 
Q 353 2603 747 3093 
Q 1141 3584 1784 3584 
Q 2172 3584 2450 3431 
Q 2728 3278 2906 2969 
L 2906 3500 
L 3481 3500 
L 3481 434 
z
" transform="scale(0.015625)"/>
       <path id="DejaVuSans-76" d="M 191 3500 
L 800 3500 
L 1894 563 
L 2988 3500 
L 3597 3500 
L 2284 0 
L 1503 0 
L 191 3500 
z
" transform="scale(0.015625)"/>
       <path id="DejaVuSans-5f" d="M 3263 -1063 
L 3263 -1509 
L -63 -1509 
L -63 -1063 
L 3263 -1063 
z
" transform="scale(0.015625)"/>
       <path id="DejaVuSans-62" d="M 3116 1747 
Q 3116 2381 2855 2742 
Q 2594 3103 2138 3103 
Q 1681 3103 1420 2742 
Q 1159 2381 1159 1747 
Q 1159 1113 1420 752 
Q 1681 391 2138 391 
Q 2594 391 2855 752 
Q 3116 1113 3116 1747 
z
M 1159 2969 
Q 1341 3281 1617 3432 
Q 1894 3584 2278 3584 
Q 2916 3584 3314 3078 
Q 3713 2572 3713 1747 
Q 3713 922 3314 415 
Q 2916 -91 2278 -91 
Q 1894 -91 1617 61 
Q 1341 213 1159 525 
L 1159 0 
L 581 0 
L 581 4863 
L 1159 4863 
L 1159 2969 
z
" transform="scale(0.015625)"/>
       <path id="DejaVuSans-6d" d="M 3328 2828 
Q 3544 3216 3844 3400 
Q 4144 3584 4550 3584 
Q 5097 3584 5394 3201 
Q 5691 2819 5691 2113 
L 5691 0 
L 5113 0 
L 5113 2094 
Q 5113 2597 4934 2840 
Q 4756 3084 4391 3084 
Q 3944 3084 3684 2787 
Q 3425 2491 3425 1978 
L 3425 0 
L 2847 0 
L 2847 2094 
Q 2847 2600 2669 2842 
Q 2491 3084 2119 3084 
Q 1678 3084 1418 2786 
Q 1159 2488 1159 1978 
L 1159 0 
L 581 0 
L 581 3500 
L 1159 3500 
L 1159 2956 
Q 1356 3278 1631 3431 
Q 1906 3584 2284 3584 
Q 2666 3584 2933 3390 
Q 3200 3197 3328 2828 
z
" transform="scale(0.015625)"/>
       <path id="DejaVuSans-29" d="M 513 4856 
L 1013 4856 
Q 1481 4119 1714 3412 
Q 1947 2706 1947 2009 
Q 1947 1309 1714 600 
Q 1481 -109 1013 -844 
L 513 -844 
Q 928 -128 1133 580 
Q 1338 1288 1338 2009 
Q 1338 2731 1133 3434 
Q 928 4138 513 4856 
z
" transform="scale(0.015625)"/>
      </defs>
      <use xlink:href="#DejaVuSans-54"/>
      <use xlink:href="#DejaVuSans-68" transform="translate(61.083984 0)"/>
      <use xlink:href="#DejaVuSans-65" transform="translate(124.462891 0)"/>
      <use xlink:href="#DejaVuSans-6f" transform="translate(185.986328 0)"/>
      <use xlink:href="#DejaVuSans-72" transform="translate(247.167969 0)"/>
      <use xlink:href="#DejaVuSans-65" transform="translate(286.03125 0)"/>
      <use xlink:href="#DejaVuSans-74" transform="translate(347.554688 0)"/>
      <use xlink:href="#DejaVuSans-69" transform="translate(386.763672 0)"/>
      <use xlink:href="#DejaVuSans-63" transform="translate(414.546875 0)"/>
      <use xlink:href="#DejaVuSans-61" transform="translate(469.527344 0)"/>
      <use xlink:href="#DejaVuSans-6c" transform="translate(530.806641 0)"/>
      <use xlink:href="#DejaVuSans-20" transform="translate(558.589844 0)"/>
      <use xlink:href="#DejaVuSans-50" transform="translate(590.376953 0)"/>
      <use xlink:href="#DejaVuSans-4d" transform="translate(650.679688 0)"/>
      <use xlink:href="#DejaVuSans-46" transform="translate(736.958984 0)"/>
      <use xlink:href="#DejaVuSans-20" transform="translate(794.478516 0)"/>
      <use xlink:href="#DejaVuSans-28" transform="translate(826.265625 0)"/>
      <use xlink:href="#DejaVuSans-6e" transform="translate(865.279297 0)"/>
      <use xlink:href="#DejaVuSans-65" transform="translate(928.658203 0)"/>
      <use xlink:href="#DejaVuSans-67" transform="translate(990.181641 0)"/>
      <use xlink:href="#DejaVuSans-61" transform="translate(1053.658203 0)"/>
      <use xlink:href="#DejaVuSans-74" transform="translate(1114.9375 0)"/>
      <use xlink:href="#DejaVuSans-69" transform="translate(1154.146484 0)"/>
      <use xlink:href="#DejaVuSans-76" transform="translate(1181.929688 0)"/>
      <use xlink:href="#DejaVuSans-65" transform="translate(1241.109375 0)"/>
      <use xlink:href="#DejaVuSans-5f" transform="translate(1302.632812 0)"/>
      <use xlink:href="#DejaVuSans-62" transform="translate(1352.632812 0)"/>
      <use xlink:href="#DejaVuSans-69" transform="translate(1416.109375 0)"/>
      <use xlink:href="#DejaVuSans-6e" transform="translate(1443.892578 0)"/>
      <use xlink:href="#DejaVuSans-6f" transform="translate(1507.271484 0)"/>
      <use xlink:href="#DejaVuSans-6d" transform="translate(1568.453125 0)"/>
      <use xlink:href="#DejaVuSans-69" transform="translate(1665.865234 0)"/>
      <use xlink:href="#DejaVuSans-61" transform="translate(1693.648438 0)"/>
      <use xlink:href="#DejaVuSans-6c" transform="translate(1754.927734 0)"/>
      <use xlink:href="#DejaVuSans-29" transform="translate(1782.710938 0)"/>
     </g>
    </g>
    <g id="patch_74">
     <path d="M 460.588594 54.947969 
L 482.588594 54.947969 
L 482.588594 47.247969 
L 460.588594 47.247969 
z
" style="opacity: 0.5"/>
    </g>
    <g id="text_40">
     <!-- Observed data -->
     <g transform="translate(491.388594 54.947969) scale(0.11 -0.11)">
      <defs>
       <path id="DejaVuSans-4f" d="M 2522 4238 
Q 1834 4238 1429 3725 
Q 1025 3213 1025 2328 
Q 1025 1447 1429 934 
Q 1834 422 2522 422 
Q 3209 422 3611 934 
Q 4013 1447 4013 2328 
Q 4013 3213 3611 3725 
Q 3209 4238 2522 4238 
z
M 2522 4750 
Q 3503 4750 4090 4092 
Q 4678 3434 4678 2328 
Q 4678 1225 4090 567 
Q 3503 -91 2522 -91 
Q 1538 -91 948 565 
Q 359 1222 359 2328 
Q 359 3434 948 4092 
Q 1538 4750 2522 4750 
z
" transform="scale(0.015625)"/>
       <path id="DejaVuSans-64" d="M 2906 2969 
L 2906 4863 
L 3481 4863 
L 3481 0 
L 2906 0 
L 2906 525 
Q 2725 213 2448 61 
Q 2172 -91 1784 -91 
Q 1150 -91 751 415 
Q 353 922 353 1747 
Q 353 2572 751 3078 
Q 1150 3584 1784 3584 
Q 2172 3584 2448 3432 
Q 2725 3281 2906 2969 
z
M 947 1747 
Q 947 1113 1208 752 
Q 1469 391 1925 391 
Q 2381 391 2643 752 
Q 2906 1113 2906 1747 
Q 2906 2381 2643 2742 
Q 2381 3103 1925 3103 
Q 1469 3103 1208 2742 
Q 947 2381 947 1747 
z
" transform="scale(0.015625)"/>
      </defs>
      <use xlink:href="#DejaVuSans-4f"/>
      <use xlink:href="#DejaVuSans-62" transform="translate(78.710938 0)"/>
      <use xlink:href="#DejaVuSans-73" transform="translate(142.1875 0)"/>
      <use xlink:href="#DejaVuSans-65" transform="translate(194.287109 0)"/>
      <use xlink:href="#DejaVuSans-72" transform="translate(255.810547 0)"/>
      <use xlink:href="#DejaVuSans-76" transform="translate(296.923828 0)"/>
      <use xlink:href="#DejaVuSans-65" transform="translate(356.103516 0)"/>
      <use xlink:href="#DejaVuSans-64" transform="translate(417.626953 0)"/>
      <use xlink:href="#DejaVuSans-20" transform="translate(481.103516 0)"/>
      <use xlink:href="#DejaVuSans-64" transform="translate(512.890625 0)"/>
      <use xlink:href="#DejaVuSans-61" transform="translate(576.367188 0)"/>
      <use xlink:href="#DejaVuSans-74" transform="translate(637.646484 0)"/>
      <use xlink:href="#DejaVuSans-61" transform="translate(676.855469 0)"/>
     </g>
    </g>
   </g>
  </g>
 </g>
 <defs>
  <clipPath id="p93fe338cdf">
   <rect x="48.479375" y="20.237812" width="653.2" height="504.64"/>
  </clipPath>
 </defs>
</svg>
